{"glyphs":{"0":{"ha":650,"x_min":102,"x_max":707,"o":"m 102 243 q 110 359 102 290 q 148 532 117 427 q 240 739 179 636 q 384 911 315 867 q 521 956 452 956 q 620 926 583 956 q 676 854 658 897 q 701 770 694 812 q 707 693 707 728 q 674 460 707 587 q 584 223 642 333 q 450 44 526 113 q 290 -24 374 -24 q 200 1 243 -24 q 130 86 157 26 q 102 243 102 146 m 220 261 q 246 105 220 165 q 321 45 272 45 q 396 78 359 45 q 452 150 433 111 q 546 396 502 247 q 590 693 590 546 q 568 837 590 780 q 489 895 545 895 q 437 878 462 895 q 386 826 412 861 q 330 728 361 790 q 242 461 265 591 q 220 261 220 332 z "},"1":{"ha":650,"x_min":107,"x_max":616,"o":"m 325 796 l 335 838 q 597 954 508 899 l 616 939 q 581 842 595 882 q 540 718 566 801 q 487 542 514 634 q 414 290 460 449 q 358 77 358 96 q 362 63 358 68 q 376 53 366 58 q 478 31 391 45 l 465 -7 q 400 -3 442 -5 q 301 0 345 0 q 107 -7 270 0 l 118 31 q 136 35 120 31 q 191 47 172 42 q 219 59 211 53 q 235 79 227 66 q 277 191 250 109 q 330 359 304 272 q 374 514 355 447 l 446 765 q 452 791 452 787 q 446 808 452 801 q 429 815 439 815 q 347 802 413 815 q 325 796 328 798 z "},"2":{"ha":650,"x_min":-3,"x_max":684,"o":"m 261 733 l 216 733 q 264 876 239 798 q 360 932 312 910 q 473 954 408 954 q 628 898 572 954 q 684 757 684 841 q 660 635 684 695 q 581 503 636 574 q 432 340 526 431 q 193 121 339 249 l 158 92 l 380 92 q 461 97 435 92 q 504 118 486 102 q 547 178 522 135 q 557 193 553 190 l 606 193 q 591 164 601 179 q 567 105 589 156 q 532 24 545 54 q 518 -7 519 -5 q 421 -3 476 -5 q 257 0 337 0 q 165 0 193 0 q 97 -2 137 -1 q 37 -5 58 -3 q -3 -7 17 -6 l 8 31 q 436 446 277 263 q 567 725 567 597 q 532 821 567 787 q 443 856 498 856 q 261 733 340 856 z "},"3":{"ha":650,"x_min":32,"x_max":657,"o":"m 301 771 l 258 772 q 294 896 277 822 q 486 954 394 954 q 611 911 564 954 q 657 800 657 869 q 605 671 657 723 q 461 574 552 619 q 600 367 600 517 q 573 231 600 299 q 495 104 547 162 q 374 11 444 45 q 224 -24 304 -24 q 120 -10 163 -24 q 32 28 77 4 q 63 100 54 73 q 87 179 73 127 l 127 179 q 138 113 131 138 q 171 67 144 87 q 253 46 198 46 q 379 92 327 46 q 456 205 431 138 q 481 335 481 272 q 428 471 481 421 q 264 518 375 521 l 277 566 q 423 610 362 583 q 519 678 484 637 q 555 772 555 720 q 525 847 555 821 q 453 872 495 872 q 377 854 409 872 q 330 815 346 836 q 301 771 313 794 z "},"4":{"ha":650,"x_min":47,"x_max":720,"o":"m 215 -7 l 227 31 q 248 35 225 31 q 329 60 318 49 q 390 211 347 75 l 399 239 l 47 239 q 68 319 60 275 q 205 466 160 417 q 350 626 251 515 q 496 790 450 736 q 604 916 543 844 q 650 929 633 923 q 703 954 667 936 l 720 939 q 692 869 702 895 q 666 790 682 842 q 642 714 649 739 q 585 525 635 690 q 540 370 552 414 q 526 319 528 327 q 642 325 597 321 l 650 311 q 614 232 628 273 q 503 239 555 237 q 464 79 464 117 q 473 57 464 62 q 559 35 480 53 q 575 32 569 33 q 582 31 581 31 l 572 -7 q 494 -3 541 -5 q 397 0 436 0 q 215 -7 327 0 m 482 688 l 281 463 q 151 319 168 338 q 422 319 341 317 l 444 389 l 496 557 q 570 783 550 728 l 567 786 q 530 743 550 766 q 482 688 510 720 z "},"5":{"ha":650,"x_min":60,"x_max":718,"o":"m 711 935 l 718 920 q 671 823 691 876 q 576 828 632 827 q 393 831 519 829 q 373 787 382 809 q 349 733 363 765 q 323 675 335 701 q 415 662 374 671 q 498 627 456 653 q 583 531 555 590 q 611 399 611 473 q 580 237 611 313 q 493 101 549 161 q 362 9 436 42 q 205 -24 288 -24 q 123 -14 155 -24 q 60 14 91 -3 q 114 161 90 81 l 150 161 q 265 49 163 49 q 389 91 334 49 q 474 202 444 134 q 505 343 505 270 q 450 512 505 447 q 302 576 395 576 q 240 568 274 576 l 220 589 l 236 623 q 305 771 290 735 q 357 903 321 806 l 367 930 q 558 928 489 928 q 653 929 624 928 q 711 935 682 931 z "},"6":{"ha":650,"x_min":86,"x_max":718,"o":"m 700 954 l 718 904 q 507 780 595 850 q 365 643 418 709 q 260 492 313 576 l 262 489 q 355 562 318 535 q 421 601 392 589 q 482 612 450 612 q 603 551 559 612 q 647 392 647 490 q 619 242 647 317 q 540 107 591 167 q 421 12 490 47 q 278 -24 353 -24 q 138 38 189 -24 q 86 215 86 100 q 136 449 86 331 q 271 668 185 566 q 468 844 357 770 q 700 954 578 918 m 200 212 q 224 98 200 161 q 323 36 248 36 q 433 87 386 36 q 506 217 481 139 q 530 370 530 294 q 512 473 530 437 q 471 518 493 508 q 431 528 450 528 q 335 495 389 528 q 240 391 280 462 q 200 212 200 320 z "},"7":{"ha":650,"x_min":168,"x_max":783,"o":"m 783 936 l 771 893 q 675 719 738 836 q 537 459 612 602 q 394 181 463 317 q 293 -24 326 46 q 283 -23 291 -24 q 267 -21 276 -22 q 252 -20 258 -20 q 235 -20 245 -20 q 179 -24 210 -20 l 168 -7 q 244 114 216 68 q 417 400 326 247 q 509 555 507 553 q 554 635 526 586 q 617 745 582 685 q 668 829 652 806 q 367 829 418 834 q 334 821 349 828 q 304 794 320 814 q 265 736 288 774 q 257 722 260 725 l 210 722 q 294 939 261 840 q 324 937 313 937 q 379 933 335 937 q 538 930 454 930 q 783 936 672 930 z "},"8":{"ha":650,"x_min":79,"x_max":703,"o":"m 479 528 q 581 389 550 443 q 611 275 611 334 q 584 160 611 215 q 510 64 556 104 q 405 0 464 23 q 283 -24 346 -24 q 181 0 227 -24 q 107 70 134 24 q 79 176 79 115 q 118 311 79 250 q 212 415 157 372 q 350 509 267 458 q 307 569 327 538 q 270 641 288 599 q 253 728 253 684 q 290 842 253 789 q 387 924 326 895 q 515 954 448 954 q 616 933 574 954 q 680 874 658 911 q 703 787 703 836 q 644 642 703 699 q 479 528 585 586 m 443 571 q 558 659 511 612 q 606 785 606 707 q 570 876 606 851 q 492 901 534 901 q 397 862 435 901 q 359 762 359 823 q 380 675 359 718 q 443 571 401 633 m 382 467 q 240 343 297 407 q 183 189 183 279 q 220 88 183 136 q 322 40 257 40 q 417 67 376 40 q 478 138 457 94 q 498 229 498 182 q 472 335 498 286 q 382 467 446 385 z "},"9":{"ha":650,"x_min":83,"x_max":715,"o":"m 98 -24 l 83 24 q 532 432 382 171 l 529 435 q 417 350 465 380 q 330 319 370 319 q 238 350 278 319 q 176 432 197 380 q 155 547 155 484 q 202 735 155 640 q 333 893 250 830 q 515 956 416 956 q 663 892 610 956 q 715 726 715 829 q 674 512 715 624 q 553 296 633 401 q 357 107 473 191 q 98 -24 241 23 m 603 728 q 564 860 603 825 q 482 896 524 896 q 371 846 419 896 q 298 718 323 795 q 273 564 273 641 q 309 439 273 472 q 379 407 344 407 q 470 439 417 407 q 563 543 523 471 q 603 728 603 615 z "}," ":{"ha":325,"x_min":0,"x_max":0,"o":""},"!":{"ha":361,"x_min":62,"x_max":464,"o":"m 215 260 l 161 260 q 235 577 184 354 q 306 911 285 800 q 378 930 359 924 q 449 958 397 936 l 464 945 q 415 814 437 873 q 358 663 393 754 q 288 471 324 571 q 227 296 252 370 l 215 260 m 62 41 q 90 117 62 93 q 146 140 118 140 q 187 122 170 140 q 204 78 204 104 q 181 12 204 43 q 125 -20 158 -20 q 76 2 90 -20 q 62 41 62 24 z "},"\"":{"ha":579,"x_min":241,"x_max":672,"o":"m 493 559 l 514 761 q 543 907 524 859 q 621 956 563 956 q 644 951 632 956 q 664 937 656 947 q 672 908 672 926 q 663 864 672 887 q 616 760 654 840 l 522 559 l 493 559 m 241 559 l 262 761 q 292 907 272 859 q 370 956 312 956 q 406 945 390 956 q 421 908 421 935 q 410 859 421 888 q 366 760 398 830 l 271 559 l 241 559 z "},"#":{"ha":926,"x_min":142,"x_max":947,"o":"m 142 661 l 363 661 l 421 935 l 504 935 l 446 661 l 730 661 l 789 935 l 872 935 l 814 661 l 947 661 l 947 578 l 798 578 l 746 326 l 947 326 l 947 243 l 729 243 l 671 -28 l 587 -28 l 646 243 l 359 243 l 301 -28 l 218 -28 l 277 243 l 142 243 l 142 326 l 293 326 l 346 578 l 142 578 l 142 661 m 714 578 l 429 578 l 376 326 l 663 326 l 714 578 z "},"$":{"ha":652,"x_min":45,"x_max":742,"o":"m 534 1002 l 595 1002 l 574 930 q 742 857 671 912 q 679 717 705 788 l 642 720 q 627 818 643 775 q 557 872 612 860 l 460 532 q 569 379 541 440 q 597 268 597 318 q 579 179 597 227 q 525 88 562 131 q 430 15 488 45 q 296 -24 372 -15 l 264 -132 l 205 -132 l 236 -24 q 139 -3 182 -18 q 45 45 95 11 q 76 119 62 83 q 106 204 90 155 l 144 200 q 150 144 146 166 q 163 102 153 123 q 197 67 174 82 q 258 45 220 52 l 372 443 l 351 472 q 322 508 340 485 q 289 549 304 532 q 233 693 233 616 q 267 804 233 749 q 365 893 300 858 q 515 930 429 928 l 534 1002 m 414 585 l 501 882 q 430 869 465 885 q 374 818 396 852 q 351 736 351 783 q 368 656 351 689 q 414 585 384 624 m 415 385 l 315 41 q 448 116 416 57 q 479 224 479 174 q 460 312 479 273 q 415 385 441 350 z "},"%":{"ha":1084,"x_min":167,"x_max":1040,"o":"m 260 582 q 314 489 260 489 q 381 540 349 489 q 433 668 414 591 q 453 817 453 745 q 439 880 453 857 q 400 903 426 903 q 330 848 362 903 q 278 716 297 793 q 260 582 260 640 m 921 954 l 999 954 l 283 -53 l 208 -53 l 921 954 m 167 602 q 184 706 167 645 q 232 824 201 767 q 310 917 263 880 q 414 954 357 954 q 489 930 458 954 q 532 870 519 907 q 546 791 546 833 q 512 630 546 713 q 421 494 478 547 q 301 440 365 440 q 197 493 228 440 q 167 602 167 546 m 661 107 q 678 212 661 151 q 726 331 694 273 q 805 425 758 388 q 908 461 851 461 q 983 437 953 461 q 1027 376 1013 414 q 1040 297 1040 339 q 1007 137 1040 220 q 916 0 973 54 q 796 -53 859 -53 q 692 0 722 -53 q 661 107 661 52 m 755 87 q 808 -5 755 -5 q 877 47 844 -5 q 928 176 909 99 q 947 323 947 252 q 933 386 947 363 q 895 410 920 410 q 824 354 856 410 q 774 221 792 298 q 755 87 755 144 z "},"&":{"ha":970,"x_min":60,"x_max":964,"o":"m 690 460 l 699 498 q 812 493 739 493 q 964 498 905 493 l 953 460 q 894 446 917 454 q 854 421 871 437 q 818 379 836 406 q 765 297 800 353 q 684 183 742 259 q 812 78 748 78 q 867 92 841 78 q 939 142 894 106 l 964 104 q 841 8 887 37 q 754 -20 795 -20 q 665 11 700 -20 q 593 93 631 41 q 467 12 534 43 q 302 -20 399 -20 q 111 53 161 -20 q 60 199 60 125 q 151 408 60 311 q 250 483 187 447 q 425 570 312 519 q 416 689 416 650 q 446 820 416 767 q 518 903 475 873 q 604 946 562 933 q 677 958 647 958 q 734 945 707 958 q 779 902 761 931 q 798 831 798 873 q 771 728 798 774 q 702 649 744 682 q 625 597 661 616 q 546 561 589 579 q 588 396 559 487 q 652 239 617 306 q 725 348 701 296 q 749 422 749 399 q 737 445 749 438 q 690 460 725 451 m 539 615 q 703 819 703 682 q 681 885 703 867 q 639 903 659 903 q 568 865 606 903 q 530 710 530 828 q 539 615 530 667 m 435 515 q 320 453 374 488 q 224 362 265 418 q 183 229 183 306 q 229 107 183 153 q 350 61 275 61 q 561 149 455 61 q 435 515 477 286 z "},"'":{"ha":304,"x_min":216,"x_max":396,"o":"m 216 559 l 237 761 q 268 908 248 861 q 345 956 287 956 q 368 951 356 956 q 388 937 380 947 q 396 908 396 926 q 385 859 396 888 q 340 760 373 830 l 245 559 l 216 559 z "},"(":{"ha":419,"x_min":77,"x_max":619,"o":"m 619 990 l 602 932 q 419 748 498 852 q 287 530 340 645 q 209 299 235 414 q 183 77 183 184 q 204 -103 183 -31 q 258 -239 225 -176 l 240 -293 q 161 -188 195 -241 q 101 -54 126 -134 q 77 127 77 26 q 109 360 77 239 q 207 598 141 481 q 377 817 273 715 q 619 990 481 919 z "},")":{"ha":390,"x_min":-131,"x_max":412,"o":"m -131 -293 l -113 -235 q 70 -50 -9 -154 q 202 169 149 54 q 280 399 255 284 q 306 621 306 513 q 284 805 306 732 q 231 936 262 878 l 249 990 q 326 888 290 943 q 387 752 362 833 q 412 570 412 671 q 380 336 412 458 q 281 97 348 214 q 111 -121 214 -20 q -131 -293 8 -221 z "},"*":{"ha":636,"x_min":158,"x_max":697,"o":"m 368 989 l 488 989 l 449 754 l 660 863 l 697 747 l 461 715 l 631 549 l 533 476 l 427 693 l 319 476 l 221 549 l 392 715 l 158 754 l 195 868 l 407 754 l 368 989 z "},"+":{"ha":926,"x_min":168,"x_max":905,"o":"m 168 493 l 492 493 l 492 818 l 581 818 l 581 493 l 905 493 l 905 404 l 581 404 l 581 79 l 492 79 l 492 404 l 168 404 l 168 493 z "},",":{"ha":361,"x_min":-11,"x_max":208,"o":"m 52 26 l 41 56 q 142 151 89 94 q 196 97 184 130 q 208 40 208 64 q 186 -50 208 -2 q 121 -144 165 -98 q 14 -231 77 -191 l -11 -195 q 70 -116 32 -161 q 107 -18 107 -70 q 52 26 107 34 z "},"-":{"ha":376,"x_min":50,"x_max":376,"o":"m 57 250 l 50 260 q 96 355 77 310 q 232 351 134 351 q 305 353 283 351 q 368 357 328 354 l 376 345 q 336 253 351 300 l 208 256 q 57 250 152 256 z "},"­":{"ha":376,"x_min":50,"x_max":376,"o":"m 57 250 l 50 260 q 96 355 77 310 q 232 351 134 351 q 305 353 283 351 q 368 357 328 354 l 376 345 q 336 253 351 300 l 208 256 q 57 250 152 256 z "},".":{"ha":361,"x_min":62,"x_max":204,"o":"m 62 41 q 90 117 62 93 q 146 140 118 140 q 187 122 170 140 q 204 78 204 104 q 194 34 204 57 q 165 -5 184 10 q 123 -20 146 -20 q 77 2 91 -20 q 62 41 62 24 z "},"/":{"ha":737,"x_min":144,"x_max":724,"o":"m 631 989 l 724 989 l 237 -3 l 144 -3 l 631 989 z "},":":{"ha":361,"x_min":62,"x_max":345,"o":"m 62 41 q 89 114 62 87 q 146 140 115 140 q 187 122 170 140 q 204 78 204 104 q 194 34 204 57 q 165 -5 184 10 q 123 -20 146 -20 q 77 2 91 -20 q 62 41 62 24 m 204 530 q 230 605 204 578 q 288 631 256 631 q 328 612 311 631 q 345 567 345 593 q 322 500 345 532 q 265 469 299 469 q 218 491 233 469 q 204 530 204 513 z "},";":{"ha":361,"x_min":-11,"x_max":345,"o":"m 52 26 l 41 56 q 142 151 89 94 q 196 97 184 130 q 208 40 208 64 q 186 -50 208 -2 q 121 -144 165 -98 q 14 -231 77 -191 l -11 -195 q 70 -116 32 -161 q 107 -18 107 -70 q 52 26 107 34 m 203 530 q 229 604 203 578 q 286 631 255 631 q 327 612 309 631 q 345 567 345 594 q 334 523 345 546 q 306 484 324 499 q 264 469 287 469 q 217 491 231 469 q 203 530 203 513 z "},"<":{"ha":926,"x_min":160,"x_max":897,"o":"m 160 490 l 897 800 l 897 703 l 279 450 l 897 196 l 897 100 l 160 410 l 160 490 z "},"=":{"ha":926,"x_min":168,"x_max":905,"o":"m 168 648 l 905 648 l 905 559 l 168 559 l 168 648 m 168 338 l 905 338 l 905 249 l 168 249 l 168 338 z "},">":{"ha":926,"x_min":176,"x_max":914,"o":"m 913 410 l 176 100 l 176 196 l 793 450 l 176 703 l 176 800 l 914 489 l 913 410 z "},"?":{"ha":550,"x_min":125,"x_max":616,"o":"m 250 755 l 208 755 q 248 899 238 861 q 440 958 336 958 q 528 940 487 958 q 593 887 569 922 q 616 802 616 852 q 582 681 616 736 q 468 546 548 627 q 359 428 396 473 q 300 340 323 382 q 254 233 278 297 l 204 233 q 249 362 221 302 q 306 464 277 422 q 376 558 334 507 q 476 693 448 646 q 504 789 504 740 q 474 860 504 836 q 406 884 445 884 q 309 843 345 884 q 250 755 272 803 m 125 41 q 152 117 125 94 q 207 140 179 140 q 248 122 231 140 q 265 78 265 104 q 255 34 265 57 q 226 -5 245 10 q 184 -20 208 -20 q 140 0 155 -20 q 125 41 125 20 z "},"@":{"ha":1274,"x_min":65,"x_max":1244,"o":"m 956 650 l 875 379 q 860 323 875 378 q 835 233 837 238 q 812 122 812 158 q 824 87 812 106 q 864 69 836 69 q 962 103 911 69 q 1055 198 1013 138 q 1124 340 1098 258 q 1150 511 1150 422 q 1096 725 1150 629 q 941 875 1041 821 q 711 929 842 929 q 473 875 581 929 q 288 729 364 821 q 170 520 211 637 q 129 283 129 403 q 169 64 129 164 q 280 -109 208 -37 q 450 -220 353 -181 q 660 -258 547 -258 q 868 -222 765 -258 q 1060 -101 971 -185 q 1206 117 1149 -16 l 1244 117 q 1150 -64 1212 14 q 1009 -194 1088 -142 q 839 -273 930 -246 q 657 -300 748 -300 q 356 -223 492 -300 q 143 -8 220 -146 q 65 301 65 129 q 152 640 65 488 q 388 879 239 793 q 707 965 536 965 q 918 927 827 965 q 1071 823 1010 888 q 1162 674 1132 757 q 1192 500 1192 591 q 1167 335 1192 420 q 1095 180 1143 250 q 977 65 1048 109 q 818 21 905 21 q 742 43 770 21 q 714 115 714 66 q 725 211 714 144 l 722 214 q 594 78 661 135 q 458 21 528 21 q 391 46 420 21 q 350 107 363 71 q 336 179 336 143 q 371 339 336 256 q 464 495 406 422 q 587 611 522 568 q 708 654 651 654 q 825 559 804 654 l 828 559 l 848 635 l 956 650 m 717 623 q 592 545 656 623 q 485 363 528 467 q 443 200 443 260 q 465 132 443 161 q 521 103 487 103 q 633 157 578 103 q 728 271 688 211 q 779 395 756 315 q 802 522 802 475 q 791 574 802 552 q 761 609 781 596 q 717 623 742 623 z "},"A":{"ha":926,"x_min":-43,"x_max":882,"o":"m 880 33 l 869 -7 q 799 -3 834 -4 q 693 0 743 0 q 465 -7 609 0 l 473 33 q 608 86 593 58 q 627 168 617 100 q 640 290 636 236 q 441 293 560 293 q 353 290 389 293 q 341 275 345 279 q 330 261 337 270 q 268 177 316 242 q 218 109 220 112 q 196 68 196 81 q 205 52 196 58 q 262 37 215 47 q 283 33 283 33 l 272 -7 q 199 -3 250 -5 q 113 0 146 0 q -43 -7 68 0 l -31 33 q 64 61 38 45 q 135 135 90 77 q 171 181 143 146 q 220 245 198 216 q 261 297 242 273 l 351 411 q 445 528 415 491 q 506 607 474 566 q 594 723 538 649 q 743 925 649 798 q 757 942 748 930 q 768 958 766 954 l 814 958 q 807 886 813 947 q 798 781 802 825 q 787 679 793 739 q 777 576 781 618 q 769 465 774 534 q 754 273 764 395 q 745 98 745 120 q 751 75 745 83 q 784 57 757 66 q 861 37 810 47 q 880 33 882 33 m 400 355 l 647 355 l 689 742 l 686 745 l 400 355 z "},"B":{"ha":839,"x_min":-14,"x_max":885,"o":"m 231 899 l 241 939 q 427 930 323 930 q 486 932 454 931 q 571 933 518 932 q 676 934 624 936 q 775 917 728 932 q 854 865 823 902 q 885 764 885 828 q 859 662 885 709 q 789 579 833 614 q 707 531 745 545 q 606 500 669 516 l 606 497 q 745 457 686 491 q 804 321 804 422 q 778 201 804 256 q 710 108 751 146 q 623 45 670 70 q 525 8 581 22 q 370 -7 469 -7 q 261 -4 328 -7 q 150 0 224 0 q -14 -7 104 0 l -1 33 q 24 37 -1 33 q 98 55 78 49 q 127 72 117 62 q 146 103 137 82 q 166 161 153 119 q 199 269 179 203 q 257 464 219 335 q 272 517 264 490 q 291 580 280 544 q 307 636 301 616 q 321 688 309 644 q 341 763 332 732 q 351 803 349 794 q 361 848 361 827 q 337 876 361 867 q 231 899 313 884 m 494 869 l 395 528 q 497 530 455 528 q 589 546 538 533 q 681 590 642 559 q 742 662 720 621 q 764 751 764 704 q 604 879 764 879 q 494 869 562 879 m 265 61 q 390 52 346 52 q 502 64 459 52 q 579 106 544 77 q 650 199 624 142 q 676 314 676 257 q 654 407 676 374 q 591 454 631 439 q 506 470 551 468 q 380 471 460 472 q 332 302 346 351 q 308 216 319 254 q 285 134 297 178 q 265 61 273 90 z "},"C":{"ha":868,"x_min":117,"x_max":986,"o":"m 796 204 l 829 160 q 617 20 710 68 q 418 -28 524 -28 q 243 26 311 -28 q 146 156 176 79 q 117 307 117 233 q 164 549 117 431 q 299 760 212 666 q 496 906 385 853 q 725 958 606 958 q 986 892 859 958 q 952 792 968 845 q 916 648 936 739 l 864 652 q 867 751 867 703 q 848 839 867 815 q 789 879 830 865 q 705 893 748 893 q 534 844 616 893 q 389 713 452 795 q 289 529 326 631 q 253 326 253 427 q 283 188 253 247 q 363 98 313 129 q 472 66 414 66 q 628 104 551 66 q 796 204 705 142 z "},"D":{"ha":1013,"x_min":-22,"x_max":1053,"o":"m 224 899 l 233 939 q 269 936 255 937 q 304 933 283 935 q 408 930 363 930 q 568 935 458 930 q 694 939 617 939 q 951 862 850 939 q 1053 606 1053 786 q 1024 432 1053 519 q 937 266 995 345 q 794 123 880 186 q 587 19 691 46 q 371 -8 482 -8 q 241 -3 353 -8 q 197 -1 238 -3 q 131 0 155 0 q -22 -7 86 0 l -9 33 q 24 40 -5 33 q 101 61 85 53 q 129 86 118 68 q 200 293 151 118 l 236 419 q 248 463 239 434 q 282 585 260 505 q 332 762 326 747 q 353 851 353 833 q 342 869 353 863 q 303 880 336 872 q 250 892 270 888 q 241 895 247 893 q 230 897 235 896 q 224 899 225 898 m 488 865 l 475 825 q 427 660 467 798 q 369 459 387 521 q 312 254 351 397 q 260 64 272 112 q 393 56 334 56 q 579 82 496 56 q 743 184 663 109 q 871 368 825 262 q 918 595 918 475 q 867 782 918 720 q 750 861 815 845 q 608 876 685 876 q 552 874 572 876 q 488 865 532 872 z "},"E":{"ha":868,"x_min":-17,"x_max":945,"o":"m 228 899 l 239 939 q 422 930 320 930 q 594 931 509 930 q 771 932 680 931 q 945 939 863 934 q 886 705 908 820 l 838 708 q 840 791 839 722 q 836 850 842 834 q 811 870 829 866 q 743 873 793 873 l 497 873 q 471 788 484 832 q 439 682 457 745 q 404 564 414 606 q 397 543 401 555 q 389 518 393 531 l 507 518 q 615 524 590 518 q 648 552 633 528 q 690 627 664 575 l 700 646 l 741 646 q 733 619 735 625 q 706 525 712 548 q 691 474 699 502 q 676 417 684 447 q 659 350 669 388 q 647 311 651 328 l 603 311 q 608 364 603 313 q 612 421 612 414 q 598 451 612 444 q 558 458 583 458 q 465 460 543 458 q 374 461 387 461 q 345 357 366 435 q 321 269 324 279 q 265 61 292 168 l 558 61 q 643 69 616 61 q 690 104 669 77 q 753 207 712 132 q 765 230 758 217 q 775 248 773 243 l 825 248 q 747 25 785 143 l 737 -7 q 519 -3 694 -5 q 297 0 342 0 q 205 0 235 0 q 123 -2 176 -1 q 41 -5 71 -3 q -17 -7 12 -6 l -4 33 l 21 39 q 93 55 68 48 q 127 71 119 62 q 144 100 136 79 q 187 229 161 144 q 245 433 212 315 q 297 620 273 535 q 338 770 320 705 q 355 843 355 836 q 342 869 355 862 q 254 893 323 880 q 228 899 235 896 z "},"F":{"ha":810,"x_min":-18,"x_max":971,"o":"m 228 899 l 239 939 q 450 930 349 930 q 640 931 564 930 q 791 933 715 932 q 971 939 867 935 q 911 690 933 821 l 861 690 q 863 736 863 715 q 865 771 864 757 q 865 810 865 785 q 851 859 865 850 q 796 868 836 868 l 488 868 l 386 517 q 554 519 517 517 q 607 533 591 522 q 671 644 631 549 l 720 644 q 665 469 687 550 q 623 304 642 389 l 575 304 q 579 336 576 306 q 586 418 586 392 q 567 451 586 444 q 461 458 549 458 l 370 458 q 304 219 337 344 q 271 78 271 94 q 279 62 271 65 q 406 37 288 59 q 436 33 434 33 l 425 -7 q 339 -3 389 -5 q 208 0 270 0 q -18 -7 107 0 l -7 33 q 2 34 -5 33 q 21 37 8 35 q 98 55 78 48 q 130 78 119 62 q 153 131 141 93 q 203 297 168 178 l 261 497 q 302 644 277 553 q 341 788 328 735 q 354 848 354 842 q 336 872 354 863 q 253 893 317 881 q 228 899 237 896 z "},"G":{"ha":999,"x_min":117,"x_max":1053,"o":"m 947 663 l 899 663 q 896 739 899 670 q 893 808 893 807 q 835 873 886 849 q 721 897 783 897 q 531 846 618 897 q 381 709 444 795 q 285 522 319 624 q 252 323 252 420 q 281 175 252 238 q 365 79 311 113 q 493 45 419 45 q 708 102 607 45 l 765 297 q 772 322 772 319 q 777 339 774 327 q 779 358 779 351 q 758 385 779 378 q 663 411 715 399 l 675 452 q 847 444 762 444 q 1053 452 896 444 l 1042 411 q 1028 409 1038 411 q 1015 406 1019 406 q 930 378 949 390 q 900 332 911 366 q 828 65 854 198 q 679 12 743 32 q 559 -18 616 -8 q 440 -28 503 -28 q 232 32 307 -28 q 141 164 165 83 q 117 314 117 244 q 161 542 117 427 q 289 750 206 656 q 487 901 372 844 q 733 958 602 958 q 1017 895 869 958 q 979 779 1002 856 q 947 663 956 701 z "},"H":{"ha":1028,"x_min":-16,"x_max":1196,"o":"m 228 899 l 239 939 q 444 930 369 930 q 643 939 519 930 l 632 899 q 539 878 569 887 q 494 851 509 869 q 443 711 478 829 l 389 524 q 638 522 573 522 q 823 524 703 522 q 834 562 828 538 q 857 644 840 585 l 867 681 q 909 847 909 823 q 899 869 909 862 q 806 893 880 881 q 779 899 785 897 l 791 939 q 886 932 846 935 q 994 930 926 930 q 1102 932 1063 930 q 1196 939 1141 935 l 1186 899 q 1165 895 1185 898 q 1073 870 1093 880 q 1043 839 1052 859 q 1006 735 1030 812 q 958 579 981 659 q 926 473 934 500 q 886 331 907 406 q 852 208 865 256 q 834 141 839 160 q 822 94 829 121 q 822 88 822 91 q 821 82 821 85 q 835 61 821 67 q 928 37 850 54 q 950 33 940 33 l 940 -7 q 860 -3 917 -5 q 757 0 796 0 q 644 -3 739 0 q 534 -7 574 -7 l 545 33 q 567 37 557 33 q 661 62 642 53 q 689 94 680 71 q 743 255 709 142 q 802 456 777 368 q 733 456 765 456 q 665 457 701 456 q 589 458 629 458 q 507 458 548 458 q 420 457 452 458 q 370 456 388 456 q 361 428 361 429 q 269 85 269 96 q 292 56 269 65 q 375 37 315 47 q 399 33 399 33 l 389 -7 q 307 -3 358 -5 q 192 0 239 0 q -16 -7 100 0 l -5 33 q 25 39 6 33 q 104 60 81 50 q 138 89 128 71 q 214 327 155 123 q 315 685 274 532 q 332 747 319 697 q 351 820 345 798 q 357 848 357 843 q 345 869 357 861 q 257 893 316 881 q 228 899 235 897 z "},"I":{"ha":492,"x_min":-9,"x_max":653,"o":"m 653 939 l 640 897 q 633 896 639 897 q 620 893 627 895 q 612 892 614 892 q 526 868 547 880 q 496 835 506 857 q 444 681 477 789 q 376 456 410 574 q 323 261 342 338 q 301 172 323 258 q 279 81 279 87 q 288 64 279 71 q 387 37 293 59 q 410 33 410 33 l 397 -7 q 317 -3 365 -5 q 195 0 250 0 q -9 -7 104 0 l 3 33 q 7 34 3 33 q 18 36 12 35 q 32 39 25 37 q 111 59 93 50 q 142 85 130 68 q 204 268 157 109 q 229 355 206 276 q 257 453 252 433 q 288 562 271 504 q 313 652 304 620 q 359 831 349 783 q 363 850 363 841 q 351 868 363 863 q 298 883 345 871 q 235 897 252 894 l 245 939 q 444 930 355 930 q 653 939 566 930 z "},"J":{"ha":593,"x_min":1,"x_max":779,"o":"m 361 899 l 371 939 q 404 937 390 937 q 452 933 417 936 q 554 930 515 930 q 747 937 561 930 l 779 939 l 768 899 q 743 893 763 897 q 664 875 686 882 q 633 856 643 867 q 615 819 623 844 l 590 745 l 532 559 q 481 380 509 490 q 419 176 439 232 q 375 83 400 119 q 335 40 359 59 q 279 4 311 20 q 212 -20 248 -12 q 142 -28 176 -28 q 65 -19 93 -28 q 1 9 37 -9 q 33 107 19 60 q 57 204 46 154 q 60 220 58 206 q 64 236 63 233 l 119 236 l 115 151 q 131 68 115 98 q 187 37 146 37 q 244 61 222 37 q 282 124 267 85 q 322 245 298 163 q 400 508 357 357 q 466 748 443 659 q 489 851 489 838 q 482 867 489 860 q 444 880 476 873 q 399 890 411 888 q 388 893 392 892 q 379 895 383 894 q 369 897 375 895 q 361 899 362 899 z "},"K":{"ha":983,"x_min":-16,"x_max":1132,"o":"m 1132 939 l 1125 899 q 1044 882 1072 891 q 972 847 1017 873 q 831 750 928 821 q 695 652 751 692 q 581 571 639 612 q 545 546 564 558 q 501 514 527 533 q 576 397 519 484 q 631 313 589 378 q 692 219 673 248 q 729 164 711 190 q 779 98 765 114 q 812 72 793 83 q 921 40 831 63 q 954 33 948 33 l 942 -7 q 865 -3 911 -5 q 743 0 802 0 q 526 -7 648 0 l 536 33 q 561 39 545 33 q 620 56 606 50 q 633 75 633 62 q 622 106 633 83 q 603 140 610 130 q 556 218 591 162 q 486 331 522 274 q 426 427 450 387 q 383 494 401 467 q 314 248 357 406 q 272 79 272 91 q 281 64 272 71 q 300 57 291 58 q 404 33 309 54 l 390 -7 q 300 -3 358 -5 q 176 0 228 0 q -16 -7 79 0 l -4 33 q 3 34 -3 33 q 21 37 9 35 q 106 60 87 51 q 136 87 125 70 q 165 165 144 102 q 216 332 186 229 q 250 453 245 435 q 354 828 340 769 q 357 850 357 840 q 350 867 357 862 q 313 881 342 873 q 262 892 284 889 q 243 896 250 895 q 231 899 236 897 l 240 939 q 427 930 366 930 q 646 939 471 930 l 635 899 q 623 896 629 897 q 606 892 616 895 q 527 872 549 881 q 496 847 505 863 q 475 793 486 831 q 466 762 471 779 q 457 734 460 745 q 389 514 420 624 q 593 660 459 559 l 720 751 q 802 815 755 777 q 848 868 848 854 q 782 899 848 885 l 793 939 q 942 930 884 930 q 1132 939 1007 930 z "},"L":{"ha":825,"x_min":-11,"x_max":828,"o":"m 233 899 l 243 939 q 446 930 353 930 q 667 939 566 930 l 657 899 q 623 893 648 897 q 541 877 568 885 q 503 855 513 868 q 482 812 492 842 q 413 589 458 741 q 326 291 367 437 q 265 62 284 144 l 562 62 q 642 72 616 62 q 688 109 667 81 q 755 222 709 138 q 762 236 758 228 q 770 250 766 243 l 828 250 q 746 18 796 168 q 743 3 746 14 q 739 -7 739 -7 q 507 -3 737 -7 l 351 0 q 246 0 298 0 q 115 -1 194 1 q -11 -7 35 -3 l -1 33 q 25 37 1 33 q 104 58 80 47 q 139 84 129 68 q 163 139 150 100 q 218 326 178 186 q 279 539 258 466 q 323 701 299 613 q 354 818 347 789 q 361 850 361 846 q 351 868 361 861 q 311 882 344 874 q 260 892 279 889 l 233 899 z "},"M":{"ha":1229,"x_min":-12,"x_max":1401,"o":"m 1401 939 l 1392 899 q 1383 897 1389 898 q 1369 893 1377 896 q 1289 874 1311 882 q 1255 851 1267 867 q 1232 796 1242 834 q 1206 711 1225 771 q 1178 621 1187 652 q 1110 391 1148 528 q 1051 170 1072 253 q 1029 81 1029 86 q 1061 54 1029 58 q 1098 46 1071 52 q 1140 36 1124 40 q 1158 33 1152 33 l 1146 -7 q 1065 -3 1114 -5 q 937 0 996 0 q 739 -7 829 0 l 751 33 q 768 36 756 33 q 861 58 846 53 q 888 77 876 63 q 954 254 914 111 l 1004 424 q 1038 535 1023 487 q 1054 589 1052 583 q 1068 635 1057 596 q 1117 794 1090 710 l 1114 798 q 1018 663 1085 757 q 841 416 951 570 q 671 178 732 263 q 546 0 582 56 l 501 0 q 497 42 498 29 q 493 93 496 55 q 463 390 475 278 q 455 468 462 399 q 447 545 448 536 q 422 787 428 715 l 419 787 q 379 646 409 749 q 269 250 346 532 q 244 153 260 215 q 228 85 228 91 q 234 66 228 73 q 261 53 239 60 q 350 33 282 47 l 339 -7 q 258 -3 309 -5 q 164 0 197 0 q -12 -7 144 0 l -1 33 q 14 36 5 33 q 105 58 83 49 q 136 90 126 67 q 217 331 159 138 q 315 665 276 525 q 343 765 323 695 q 364 835 364 835 q 368 852 368 845 q 346 872 368 867 l 208 899 l 220 939 q 292 932 267 935 q 366 930 318 930 q 515 939 420 930 q 519 899 519 918 q 570 401 550 558 l 596 186 l 782 443 q 920 633 824 503 q 1046 809 1008 755 q 1132 939 1084 863 q 1250 930 1187 930 q 1401 939 1308 930 z "},"N":{"ha":1013,"x_min":-11,"x_max":1189,"o":"m 208 899 l 221 939 q 347 933 285 933 q 479 939 418 933 q 596 637 523 830 q 641 519 618 578 q 676 429 663 460 q 718 322 688 397 q 768 195 748 247 l 771 195 q 838 433 798 293 q 899 654 882 592 q 927 761 916 715 q 945 828 939 806 q 947 846 947 836 q 933 870 947 862 q 851 892 920 878 q 841 895 847 893 q 832 897 836 896 q 827 899 829 898 l 839 939 q 1028 930 935 930 q 1189 939 1128 930 l 1179 899 l 1156 893 q 1077 874 1097 883 q 1043 843 1058 865 q 1002 736 1031 824 q 946 553 974 648 q 899 390 919 458 l 802 41 q 786 -22 798 27 l 734 -28 q 695 80 709 45 q 673 139 682 115 q 625 262 664 163 q 543 469 587 361 l 514 542 q 422 778 474 643 l 419 778 l 406 726 q 360 572 368 597 q 340 501 353 547 q 313 401 328 455 q 269 241 298 347 q 247 154 265 225 q 228 81 228 83 q 242 62 228 71 q 279 49 257 54 q 321 39 302 43 q 332 37 324 38 q 346 34 340 35 q 351 33 351 33 l 338 -7 q 272 -3 313 -5 q 178 0 223 0 q -11 -7 100 0 l 1 33 q 31 39 9 33 q 113 64 91 50 q 149 115 134 79 q 191 243 163 155 q 257 460 218 330 q 310 643 295 591 q 364 831 330 718 q 367 851 367 842 q 358 867 367 861 q 314 880 349 873 q 250 890 280 887 l 208 899 z "},"O":{"ha":956,"x_min":113,"x_max":996,"o":"m 113 309 q 161 546 113 429 q 292 757 209 664 q 481 904 374 850 q 700 958 589 958 q 915 874 835 958 q 996 627 996 790 q 945 368 996 489 q 810 159 895 248 q 618 21 725 71 q 400 -28 511 -28 q 215 34 279 -28 q 132 171 151 96 q 113 309 113 246 m 248 323 q 274 177 248 241 q 351 79 301 113 q 467 45 400 45 q 663 132 572 45 q 808 354 754 218 q 863 619 863 489 q 836 772 863 710 q 762 864 808 834 q 657 895 715 895 q 502 843 577 895 q 370 707 427 791 q 280 521 313 623 q 248 323 248 420 z "},"P":{"ha":796,"x_min":-14,"x_max":899,"o":"m 236 899 l 248 939 q 277 937 262 938 q 319 933 292 936 q 421 930 378 930 q 574 936 463 930 l 665 939 q 899 758 899 939 q 876 652 899 707 q 806 549 854 597 q 683 470 759 500 q 503 439 606 439 q 374 453 445 439 l 338 319 q 326 276 332 297 q 315 238 320 255 q 302 195 310 221 l 283 121 q 281 111 282 117 q 278 103 279 104 q 275 82 275 91 q 288 61 275 68 q 336 50 296 57 q 408 39 377 42 q 443 33 430 33 l 431 -7 q 345 -3 392 -5 q 195 0 273 0 q -14 -7 100 0 l -3 33 q 4 34 -1 33 q 15 36 9 35 q 28 39 21 37 q 116 61 98 53 q 146 97 134 69 q 185 211 159 128 q 264 484 210 294 q 269 500 264 486 q 281 538 273 515 q 314 654 309 642 q 336 732 326 699 q 355 804 346 766 q 364 851 364 841 q 348 873 364 866 q 258 893 332 881 q 236 899 241 896 m 392 505 q 489 493 453 493 q 630 522 566 493 q 734 608 695 551 q 772 741 772 665 q 720 851 772 827 q 599 876 667 876 q 501 864 549 876 q 489 827 500 861 q 403 546 474 781 q 398 527 400 535 q 392 505 395 519 z "},"Q":{"ha":956,"x_min":69,"x_max":996,"o":"m 867 -102 l 885 -139 q 740 -211 802 -188 q 650 -235 677 -235 q 587 -218 624 -235 q 461 -139 551 -202 q 408 -101 442 -125 q 340 -52 374 -77 q 288 -14 307 -27 q 69 57 215 35 l 81 100 q 176 83 124 96 q 114 310 114 171 q 196 617 114 466 q 414 864 278 769 q 700 958 551 958 q 853 922 787 958 q 958 810 920 886 q 996 625 996 734 q 948 377 996 495 q 820 171 900 259 q 639 33 739 83 q 441 -17 539 -17 q 370 -11 423 -17 l 367 -14 q 602 -122 563 -107 q 704 -144 656 -144 q 742 -142 725 -144 q 790 -129 760 -139 q 867 -102 821 -119 m 248 309 q 278 164 248 224 q 357 73 308 104 q 463 43 406 43 q 667 133 575 43 q 812 358 760 222 q 864 624 864 494 q 849 739 864 690 q 807 824 835 789 q 741 877 780 859 q 654 895 702 895 q 455 807 549 895 q 304 582 360 720 q 248 309 248 445 z "},"R":{"ha":940,"x_min":-22,"x_max":926,"o":"m 225 899 l 235 939 q 279 936 262 937 q 323 933 296 935 q 441 930 393 930 q 562 933 479 930 q 673 939 614 939 q 826 899 763 939 q 889 762 889 859 q 877 684 889 726 q 830 597 865 642 q 736 518 796 553 q 660 484 694 494 q 585 465 625 473 q 591 449 586 461 q 598 433 597 437 q 602 425 600 429 q 636 354 607 414 q 676 267 665 294 q 761 97 745 119 q 788 71 773 81 q 828 54 804 62 q 899 36 852 47 q 911 34 904 35 q 922 32 918 33 q 926 31 925 31 l 917 -7 q 864 -3 895 -5 q 774 0 819 0 q 653 -4 701 0 q 562 232 621 95 q 539 288 553 253 q 512 354 525 322 q 485 419 499 385 q 477 439 484 422 q 469 457 471 455 q 370 465 429 457 q 356 416 362 439 q 337 348 349 392 q 311 254 324 303 q 269 98 279 131 q 265 81 265 90 q 295 55 265 64 q 374 36 326 45 l 397 33 l 386 -7 q 315 -3 357 -5 q 196 0 254 0 q -22 -7 93 0 l -12 33 q 17 39 -3 33 q 98 59 77 50 q 130 85 119 68 q 157 155 140 102 q 236 416 189 255 q 318 707 283 578 q 353 851 353 837 q 340 871 353 867 q 225 899 336 873 m 489 865 l 435 689 q 383 515 396 562 q 457 511 446 511 q 606 535 537 511 q 719 611 675 559 q 762 743 762 662 q 608 876 762 876 q 489 865 561 876 z "},"S":{"ha":753,"x_min":78,"x_max":819,"o":"m 147 298 l 203 298 q 200 241 201 263 q 199 207 199 219 q 236 94 199 130 q 305 57 267 66 q 374 47 342 47 q 480 78 439 47 q 539 153 522 109 q 557 236 557 197 q 523 356 557 305 q 437 454 489 406 q 327 563 360 528 q 276 633 294 597 q 257 708 257 669 q 296 827 257 769 q 408 921 335 884 q 578 958 481 958 q 675 948 630 958 q 748 927 720 938 q 819 895 776 916 q 788 792 796 825 q 768 693 780 760 l 765 672 l 711 672 q 710 783 713 747 q 696 836 707 819 q 638 883 679 865 q 553 901 597 901 q 466 881 506 901 q 403 827 426 861 q 380 753 380 794 q 409 670 380 709 q 530 539 437 631 q 654 399 620 452 q 689 278 689 347 q 647 135 689 205 q 523 18 604 64 q 332 -28 442 -28 q 78 41 199 -28 q 106 132 97 100 q 125 202 116 163 q 147 298 135 241 z "},"T":{"ha":911,"x_min":193,"x_max":1072,"o":"m 1007 679 l 960 679 q 961 704 960 681 q 966 819 962 728 q 948 860 969 852 q 865 868 927 868 l 713 868 q 705 842 712 864 q 697 815 699 821 q 672 728 689 785 q 645 633 656 671 q 618 541 633 595 q 593 450 603 486 q 497 102 513 164 q 494 78 494 93 q 503 61 494 65 q 602 40 517 52 q 637 33 632 33 l 627 -7 q 534 -3 593 -5 q 422 0 465 0 q 193 -7 355 0 l 204 33 q 210 34 206 33 q 218 36 214 35 q 228 38 222 37 q 236 39 234 39 q 340 65 324 53 q 415 254 370 90 q 453 380 420 275 q 466 423 459 402 q 475 456 472 444 l 536 669 q 593 868 568 777 l 440 868 q 368 863 391 868 q 329 839 345 858 q 294 775 313 821 l 254 679 l 205 679 q 264 939 241 808 q 311 938 290 939 q 368 937 332 937 q 458 935 404 936 q 648 930 582 930 q 848 933 691 930 l 1072 939 q 1036 811 1046 857 q 1019 734 1028 773 q 1007 679 1010 695 z "},"U":{"ha":1013,"x_min":192,"x_max":1196,"o":"m 1196 939 l 1185 899 q 1158 893 1179 897 q 1094 878 1117 886 q 1057 853 1072 870 q 1033 811 1042 836 q 1004 725 1023 787 q 950 550 966 604 q 925 466 934 496 q 886 326 917 435 q 828 175 863 241 q 745 63 792 108 q 632 -4 697 19 q 485 -28 566 -28 q 313 8 378 -28 q 220 99 248 43 q 192 216 192 155 q 199 299 192 256 q 228 420 207 342 q 285 625 249 498 q 300 680 292 653 q 314 732 307 707 q 332 802 321 758 l 340 829 q 342 839 340 831 q 343 852 343 847 q 334 869 343 865 q 296 881 325 873 q 249 890 267 888 l 216 899 l 228 939 q 329 932 293 935 q 427 930 365 930 q 532 932 493 930 q 633 939 571 935 l 624 899 q 507 870 528 880 q 472 832 485 861 q 418 661 458 796 q 353 439 374 514 q 324 320 332 364 q 315 232 315 275 q 342 131 315 170 q 414 75 370 92 q 514 57 459 57 q 642 84 589 57 q 732 162 696 111 q 795 288 768 214 q 857 484 823 361 q 931 746 909 665 q 953 846 953 828 q 936 870 953 861 q 863 892 918 880 q 833 899 848 894 l 844 939 q 1022 930 948 930 q 1196 939 1121 930 z "},"V":{"ha":940,"x_min":210,"x_max":1136,"o":"m 210 899 l 221 939 q 416 930 307 930 q 625 939 494 930 l 614 899 q 589 893 605 896 q 508 870 530 882 q 475 835 486 858 q 461 785 465 814 q 446 621 457 757 q 438 527 444 600 q 426 397 431 454 q 415 279 420 340 q 407 195 409 218 l 410 192 q 447 242 435 227 q 507 322 459 258 q 593 437 555 386 q 765 667 688 566 q 901 863 901 844 q 886 883 901 877 q 831 896 870 890 q 812 899 818 896 l 822 939 q 991 930 909 930 q 1136 939 1059 930 l 1125 897 q 1059 880 1083 888 q 1018 859 1035 872 q 1000 842 1008 849 q 977 815 993 834 q 932 759 962 796 q 856 663 902 722 q 711 477 787 575 q 582 312 634 380 q 510 218 530 243 q 354 11 490 192 q 338 -11 350 5 q 325 -28 326 -26 l 278 -28 q 284 46 282 16 q 292 136 287 77 q 301 238 297 195 q 310 336 304 281 l 334 624 q 344 764 340 707 q 347 831 347 822 q 330 866 347 856 q 241 892 312 876 q 210 899 223 894 z "},"W":{"ha":1346,"x_min":210,"x_max":1537,"o":"m 210 899 l 220 939 q 416 930 352 930 q 628 939 480 930 l 616 899 q 526 875 549 882 q 492 857 504 868 q 475 822 481 845 q 435 473 458 750 q 424 356 433 452 q 414 257 414 261 q 411 231 414 250 q 408 211 409 213 l 411 208 q 473 299 443 256 q 567 431 503 341 q 705 624 631 520 q 802 761 779 728 q 806 833 806 824 q 799 859 806 850 q 773 873 793 867 q 699 892 753 880 q 669 899 683 894 l 682 939 q 878 930 784 930 q 926 931 896 930 q 1001 935 956 932 q 1086 939 1046 937 l 1075 899 l 1047 892 q 980 873 1002 882 q 947 852 958 865 q 932 818 937 840 q 922 746 927 797 l 914 675 l 893 465 q 882 352 890 427 q 873 260 875 277 q 872 246 873 258 q 870 222 871 234 q 869 208 869 210 l 872 208 q 913 271 885 229 q 971 357 941 313 q 1021 429 1002 401 l 1203 697 q 1303 850 1301 842 q 1305 861 1305 859 q 1229 896 1305 884 l 1215 899 l 1223 939 q 1375 930 1290 930 q 1537 939 1460 930 l 1529 899 q 1465 883 1487 890 q 1423 860 1442 876 q 1384 820 1404 845 q 1321 733 1365 795 q 1243 627 1246 631 q 1179 538 1231 610 q 1064 377 1128 467 q 912 162 1000 288 q 782 -28 825 36 l 736 -28 q 755 197 746 71 q 787 571 783 512 q 790 603 789 583 q 793 635 791 622 l 790 637 q 746 572 782 623 l 627 401 q 617 388 624 397 q 600 364 610 378 q 580 336 591 351 q 557 304 569 321 q 440 139 482 199 q 323 -28 374 44 l 278 -28 q 282 26 278 6 l 301 231 q 311 335 306 271 q 317 427 315 399 q 334 647 326 528 q 340 716 336 665 q 346 787 344 768 q 347 802 347 795 q 347 827 347 809 q 340 857 347 848 q 310 873 333 866 q 210 899 287 881 z "},"X":{"ha":983,"x_min":-14,"x_max":1132,"o":"m 273 899 l 288 939 q 381 932 344 935 q 484 930 418 930 q 588 932 549 930 q 692 939 627 935 l 681 899 q 671 896 677 897 q 660 893 665 895 q 562 864 588 877 q 536 835 536 852 q 558 747 536 822 q 602 597 579 672 q 610 571 610 581 l 665 627 q 753 714 753 714 q 804 766 762 722 q 856 818 847 810 q 889 867 889 850 q 873 884 889 878 q 810 899 850 890 l 818 939 q 970 930 891 930 q 1132 939 1057 930 l 1120 897 q 1035 873 1060 883 q 977 833 1010 863 q 884 745 943 804 q 778 642 843 702 q 632 496 693 559 q 648 442 641 465 q 675 355 656 418 q 766 83 751 111 q 786 65 774 71 q 829 53 799 60 q 914 33 890 37 l 901 -7 q 821 -3 867 -5 q 704 0 757 0 q 496 -7 621 0 l 507 33 q 520 36 510 33 q 532 39 530 39 q 570 51 549 44 q 607 63 591 57 q 625 74 622 70 q 629 87 629 78 q 598 213 629 104 q 553 371 568 323 l 542 407 q 513 378 527 392 q 485 350 499 363 q 401 268 471 336 q 304 171 355 222 q 240 106 252 120 q 221 69 221 83 q 231 56 221 60 q 289 39 241 50 q 299 37 294 38 q 309 34 304 35 q 313 33 313 33 l 301 -7 q 239 -3 275 -5 q 154 0 191 0 q -14 -7 78 0 l -4 33 q 67 55 39 39 q 138 110 95 71 q 210 178 170 140 q 322 287 250 217 q 446 408 394 357 q 521 482 497 458 q 495 570 514 509 q 458 682 477 631 q 411 833 454 696 q 387 867 404 857 q 301 892 370 877 q 273 899 292 893 z "},"Y":{"ha":882,"x_min":195,"x_max":1078,"o":"m 205 899 l 218 939 q 268 936 224 939 q 339 931 311 932 q 396 930 366 930 q 621 939 490 930 l 611 899 q 585 892 597 894 q 482 859 492 867 q 469 835 469 850 q 509 686 469 810 l 567 498 q 585 521 577 511 q 625 571 593 531 q 715 688 656 612 q 829 838 760 743 q 836 848 832 840 q 839 860 839 855 q 827 877 839 872 q 770 893 816 882 q 751 899 756 896 l 761 939 q 916 930 861 930 q 1078 939 1000 930 l 1065 897 q 987 878 1011 888 q 930 834 964 868 q 829 715 897 800 q 718 579 805 688 q 589 418 627 468 q 583 397 587 411 q 573 366 578 383 q 560 319 568 348 q 534 231 551 290 q 520 179 532 222 q 503 112 509 135 q 497 83 497 88 q 505 63 497 69 q 532 54 513 58 q 611 39 567 50 q 642 33 627 33 l 629 -7 q 557 -3 601 -5 q 443 0 496 0 q 195 -7 368 0 l 205 33 q 213 34 206 33 q 225 36 219 35 q 232 37 231 37 q 337 62 319 54 q 367 100 355 71 q 467 418 382 140 q 472 437 472 431 q 470 449 472 444 q 467 459 469 455 q 460 475 465 464 q 400 659 439 531 q 360 779 385 706 q 323 863 334 852 q 297 877 313 872 q 227 893 280 882 q 205 899 210 897 z "},"Z":{"ha":825,"x_min":3,"x_max":945,"o":"m 260 704 l 208 704 q 244 827 238 802 q 255 863 245 829 q 269 916 264 898 q 277 939 269 916 q 426 933 359 935 q 541 931 492 932 q 618 930 589 930 q 945 939 740 930 l 932 890 q 773 721 858 812 q 620 552 689 629 q 479 395 551 475 q 361 261 408 315 q 187 62 250 138 l 547 62 q 641 69 613 62 q 691 105 668 76 q 757 215 715 135 q 775 249 762 226 l 829 249 q 818 220 822 236 q 785 124 806 184 q 749 18 764 64 q 746 11 747 15 q 743 1 745 6 q 741 -7 742 -3 q 545 -1 696 -4 q 452 0 475 0 q 403 0 428 0 q 327 -1 416 0 q 166 -4 238 -3 q 3 -7 95 -5 l 16 40 q 45 72 25 55 q 196 238 132 167 q 315 368 261 309 q 461 531 368 427 q 559 642 555 636 q 662 756 627 718 q 717 818 697 795 q 758 865 737 841 l 461 865 q 384 863 408 865 q 343 849 360 860 q 313 813 327 838 q 275 736 298 788 q 260 704 263 714 z "},"[":{"ha":419,"x_min":-8,"x_max":596,"o":"m 596 977 l 581 922 l 440 922 q 421 861 432 897 q 395 773 410 825 q 361 657 380 722 q 310 475 347 608 q 240 229 273 341 q 178 15 208 116 q 117 -197 149 -85 q 113 -210 115 -203 q 109 -224 111 -216 l 250 -224 l 235 -278 q 113 -275 179 -275 q -8 -278 50 -275 q 179 355 54 -87 q 199 426 180 357 q 239 566 219 494 q 267 667 258 637 q 342 943 294 760 q 351 977 345 948 q 468 974 415 974 q 596 977 520 974 z "},"\\":{"ha":737,"x_min":144,"x_max":724,"o":"m 144 989 l 237 989 l 724 -3 l 631 -3 l 144 989 z "},"]":{"ha":390,"x_min":-160,"x_max":444,"o":"m -160 -279 l -144 -225 l -4 -225 q 9 -184 3 -202 q 22 -140 14 -165 q 46 -62 31 -115 q 75 40 62 -8 q 319 895 172 384 q 324 907 321 897 q 328 921 327 918 l 186 921 l 201 975 q 323 972 257 972 q 444 975 386 972 q 400 839 408 863 q 373 748 393 815 q 326 583 354 682 q 257 342 297 484 q 241 286 256 337 q 209 172 227 235 q 185 87 191 110 q 170 31 178 64 q 155 -21 168 26 q 129 -118 142 -68 q 110 -186 115 -167 q 94 -245 105 -205 q 85 -279 90 -256 q -32 -277 21 -277 q -160 -279 -84 -277 z "},"^":{"ha":593,"x_min":78,"x_max":686,"o":"m 399 989 l 686 503 l 610 503 l 383 888 l 155 503 l 78 503 l 368 989 l 399 989 z "},"_":{"ha":694,"x_min":-8,"x_max":703,"o":"m 703 -174 l -8 -174 l -8 -104 l 703 -104 l 703 -174 z "},"`":{"ha":463,"x_min":232,"x_max":464,"o":"m 464 720 l 428 720 q 323 846 341 825 q 286 889 306 867 q 232 945 267 910 l 237 956 q 372 956 288 954 q 380 936 378 940 q 386 918 381 932 q 409 861 393 901 q 444 772 425 820 q 464 720 463 724 z "},"a":{"ha":652,"x_min":46,"x_max":643,"o":"m 614 165 l 636 136 q 547 58 595 96 q 461 1 498 21 q 408 -20 424 -20 q 376 20 376 -20 q 388 82 376 39 q 403 132 399 126 q 416 179 409 157 l 414 182 q 286 45 357 109 q 158 -20 216 -20 q 79 25 113 -20 q 46 154 46 69 q 82 326 46 241 q 182 480 119 412 q 330 590 246 549 q 505 631 413 631 q 571 624 516 631 q 635 616 627 617 l 643 600 q 569 414 604 519 q 514 227 534 310 q 493 127 493 143 q 510 100 493 100 q 599 153 532 100 q 614 165 610 163 m 515 554 q 433 571 463 571 q 328 537 378 571 q 239 444 277 503 q 178 313 200 385 q 155 170 155 240 q 173 91 155 116 q 210 65 191 65 q 291 110 236 65 q 392 225 345 155 q 443 324 422 269 q 501 509 463 378 q 508 530 503 512 q 515 554 514 549 z "},"b":{"ha":623,"x_min":66,"x_max":624,"o":"m 175 867 l 186 908 q 407 989 329 947 l 429 971 q 418 946 422 956 q 409 923 414 936 q 392 874 404 911 q 370 807 380 838 q 239 407 294 585 l 241 404 q 335 517 290 468 q 425 598 379 566 q 511 631 471 631 q 592 585 561 631 q 624 453 624 538 q 590 279 624 363 q 497 126 555 194 q 363 19 438 58 q 211 -20 289 -20 q 115 2 164 -20 q 66 92 66 23 q 75 160 66 121 q 124 332 79 177 q 176 514 168 487 q 191 562 178 518 q 217 649 204 606 q 232 697 231 693 q 244 743 233 704 q 262 804 260 787 q 272 852 272 833 q 243 873 272 873 q 197 869 235 873 q 186 868 195 869 q 175 867 176 867 m 511 407 q 456 541 511 541 q 356 472 427 541 q 229 307 285 403 q 172 126 172 212 q 196 59 172 81 q 254 37 220 37 q 358 73 311 37 q 441 165 406 108 q 493 286 475 222 q 511 407 511 349 z "},"c":{"ha":492,"x_min":40,"x_max":566,"o":"m 424 178 l 458 144 q 382 74 422 109 q 287 10 342 40 q 180 -20 232 -20 q 75 35 110 -20 q 40 155 40 90 q 74 329 40 242 q 166 484 109 416 q 295 591 224 552 q 437 631 366 631 q 506 621 479 631 q 566 595 533 612 q 541 531 547 547 q 524 465 536 514 l 484 465 q 393 570 466 570 q 287 518 344 570 q 190 379 229 466 q 151 195 151 293 q 166 109 151 153 q 229 64 181 64 q 424 178 299 64 z "},"d":{"ha":665,"x_min":50,"x_max":770,"o":"m 623 165 l 647 136 q 419 -20 480 -20 q 398 -14 410 -20 q 386 16 386 -7 q 391 46 386 23 q 403 92 397 68 q 415 136 410 115 l 428 182 l 425 184 q 294 46 368 113 q 164 -20 221 -20 q 84 30 117 -20 q 50 167 50 80 q 86 343 50 259 q 182 492 122 427 q 314 593 241 556 q 457 631 386 631 q 542 616 490 631 l 585 760 q 599 804 591 783 q 610 856 610 840 q 587 875 610 875 q 510 867 561 875 l 519 905 q 581 925 558 918 q 635 943 604 932 q 673 956 666 953 q 708 971 688 962 q 747 989 729 981 l 770 972 q 739 899 753 935 q 694 769 713 826 q 652 642 675 712 q 615 524 630 572 q 545 297 562 351 q 516 195 529 243 q 504 123 504 146 q 521 102 504 102 q 599 147 538 102 l 623 165 m 518 530 q 403 567 458 567 q 292 521 336 567 q 195 365 229 456 q 161 189 161 274 q 177 100 161 133 q 218 68 193 68 q 283 98 247 68 q 349 158 319 128 q 436 287 406 220 q 503 478 467 353 q 518 530 505 489 z "},"e":{"ha":507,"x_min":46,"x_max":546,"o":"m 422 158 l 450 119 q 178 -20 279 -20 q 96 11 125 -20 q 56 82 66 41 q 46 163 46 124 q 82 338 46 253 q 180 489 118 422 q 315 593 241 556 q 460 631 388 631 q 519 613 493 631 q 546 554 546 596 q 496 430 546 488 q 382 342 447 371 q 274 303 329 317 q 167 281 220 289 q 162 246 167 278 q 158 191 158 214 q 173 103 158 144 q 233 62 189 62 q 422 158 299 62 m 180 329 q 394 420 342 357 q 447 533 447 483 q 404 579 447 579 q 291 521 357 579 q 180 329 225 463 z "},"f":{"ha":334,"x_min":-236,"x_max":673,"o":"m 107 555 l 114 586 q 215 619 170 602 q 255 754 238 707 q 297 836 272 801 q 366 908 321 870 q 558 989 460 989 q 622 980 595 989 q 673 957 649 970 q 650 896 656 913 q 633 835 644 878 l 597 838 q 577 904 594 876 q 509 932 561 932 q 451 913 477 932 q 405 858 425 894 q 369 778 385 822 q 328 644 353 733 q 319 612 328 637 q 467 615 374 611 l 473 606 q 441 551 454 578 q 304 557 385 555 q 228 269 254 368 q 166 47 194 140 q 114 -96 138 -45 q 63 -178 91 -146 q -5 -240 36 -210 q -138 -292 -77 -292 q -189 -283 -168 -292 q -236 -257 -209 -275 q -206 -212 -216 -230 q -183 -165 -195 -193 l -170 -165 q -136 -204 -153 -191 q -85 -218 -119 -218 q -1 -167 -32 -218 q 65 16 29 -115 q 98 141 79 60 q 187 511 118 222 q 192 531 189 515 q 199 557 196 547 q 107 555 158 555 z "},"g":{"ha":593,"x_min":-93,"x_max":646,"o":"m 639 611 l 646 602 q 615 547 628 576 q 530 558 577 555 q 554 468 554 507 q 542 389 554 436 q 497 296 529 342 q 406 215 466 250 q 257 172 347 180 q 211 107 211 131 q 237 76 211 91 q 336 37 264 62 q 524 -106 524 -23 q 483 -191 524 -147 q 366 -263 442 -235 q 187 -292 289 -292 q 70 -279 123 -292 q -20 -245 16 -266 q -75 -200 -56 -224 q -93 -157 -93 -176 q -52 -97 -93 -123 q 39 -43 -5 -65 q 129 1 82 -20 q 101 21 111 12 q 92 41 92 30 q 100 70 92 56 q 127 101 109 84 q 186 155 144 119 q 201 169 191 159 q 214 179 211 178 q 159 201 184 188 q 114 247 135 214 q 93 336 93 279 q 132 473 93 404 q 239 586 170 542 q 395 631 309 631 q 446 625 427 631 q 490 607 465 620 q 550 607 515 606 q 639 611 585 607 m 197 347 q 215 263 197 306 q 292 220 233 220 q 369 253 332 220 q 428 340 406 287 q 450 449 450 393 q 433 544 450 498 q 364 589 416 589 q 247 509 297 589 q 197 347 197 429 m 171 -14 l 134 -35 q 84 -66 111 -46 q 39 -107 56 -86 q 21 -146 21 -127 q 83 -214 21 -190 q 211 -237 144 -237 q 306 -224 259 -237 q 382 -188 353 -210 q 411 -140 411 -165 q 393 -106 411 -119 q 330 -74 374 -93 q 171 -14 277 -49 z "},"h":{"ha":694,"x_min":32,"x_max":675,"o":"m 427 989 l 446 971 q 401 856 429 935 q 357 729 372 777 q 288 509 292 522 q 233 340 248 385 l 236 338 q 417 538 317 446 q 610 631 516 631 q 663 576 663 631 q 655 525 663 552 q 611 380 648 498 q 542 163 547 178 q 530 118 530 132 q 547 94 530 94 q 571 104 556 94 q 603 126 586 113 q 637 153 621 139 q 645 159 642 155 q 650 163 648 162 l 675 135 q 591 58 638 94 q 503 1 544 21 q 439 -20 461 -20 q 400 17 400 -20 q 411 76 400 37 q 438 161 422 115 q 461 229 454 208 q 527 422 509 364 q 545 507 545 480 q 522 533 545 533 q 426 482 485 533 q 332 389 367 431 q 255 287 283 333 q 209 198 226 240 q 155 45 193 155 q 140 0 150 23 q 32 -9 63 -1 q 121 268 76 116 q 187 495 171 441 q 228 633 203 548 q 247 697 231 644 q 275 800 262 751 q 289 856 289 848 q 267 875 289 875 q 187 867 254 875 l 199 908 q 427 989 329 940 z "},"i":{"ha":376,"x_min":71,"x_max":431,"o":"m 318 163 l 345 134 q 214 27 283 75 q 109 -20 146 -20 q 82 -8 94 -20 q 71 21 71 3 q 90 109 71 47 l 140 249 q 182 378 145 264 q 220 497 220 492 q 205 514 220 514 q 172 497 195 514 q 131 460 148 479 l 113 441 l 87 469 q 222 587 160 544 q 317 631 285 631 q 345 604 345 631 q 329 537 345 589 q 289 410 313 485 q 250 294 264 334 q 212 184 233 248 q 192 107 192 121 q 205 90 192 90 q 298 149 231 90 q 309 156 302 151 q 318 163 315 161 m 374 921 q 414 903 397 921 q 431 860 431 886 q 407 794 431 825 q 353 764 383 764 q 313 784 330 764 q 297 831 297 805 q 307 873 297 853 q 334 907 317 893 q 374 921 352 921 z "},"j":{"ha":334,"x_min":-212,"x_max":415,"o":"m 92 432 l 66 461 q 190 570 115 510 q 304 631 265 631 q 327 622 318 631 q 336 600 336 614 q 317 513 336 572 q 264 346 289 429 q 189 85 239 262 q 136 -73 160 -15 q 83 -169 112 -131 q 9 -240 55 -207 q -117 -292 -60 -292 q -212 -258 -165 -292 q -157 -167 -181 -217 l -144 -167 q -64 -220 -119 -220 q 1 -178 -26 -220 q 52 -46 27 -136 q 110 160 68 12 q 138 261 123 202 l 167 364 q 182 418 171 379 q 197 473 193 456 q 201 493 201 491 q 191 505 201 505 q 148 483 177 505 q 92 432 119 460 m 358 921 q 398 903 381 921 q 415 860 415 886 q 391 794 415 825 q 338 764 368 764 q 298 784 315 764 q 282 831 282 805 q 304 892 282 864 q 358 921 327 921 z "},"k":{"ha":636,"x_min":25,"x_max":668,"o":"m 180 868 l 191 908 q 315 947 280 935 q 415 989 350 960 l 436 974 q 404 892 421 941 q 384 829 403 888 q 339 692 365 770 q 295 562 313 614 q 254 437 278 509 l 257 435 q 413 572 330 513 q 585 631 497 631 q 651 610 635 631 q 668 558 668 589 q 640 458 668 511 q 539 360 612 405 q 342 298 466 315 q 436 134 404 181 q 468 92 460 100 q 490 83 476 83 q 538 102 511 83 q 591 144 564 121 l 604 155 l 632 126 q 514 20 572 59 q 433 -20 456 -20 q 386 17 402 -20 q 298 177 315 148 q 244 267 282 205 l 228 294 l 215 294 q 197 231 210 277 q 170 133 184 184 q 153 69 155 81 l 134 0 q 25 -9 73 0 q 93 194 60 89 q 168 446 127 299 l 227 650 q 234 680 230 662 q 243 710 239 698 q 283 856 283 848 q 254 876 283 876 q 204 871 229 876 l 180 868 m 227 340 q 447 371 369 336 q 548 451 524 407 q 571 532 571 496 q 534 570 571 570 q 450 538 499 570 q 378 488 400 507 q 287 409 342 460 q 227 340 231 357 z "},"l":{"ha":347,"x_min":45,"x_max":440,"o":"m 180 864 l 192 905 l 220 913 q 340 952 311 941 q 422 989 370 963 l 440 968 q 414 903 431 949 q 358 739 387 828 q 338 675 352 720 q 313 594 324 631 q 282 497 301 558 l 236 345 q 220 290 229 324 q 189 186 205 245 q 172 113 172 126 q 187 94 172 94 q 275 149 204 94 q 294 163 288 156 l 321 134 q 185 25 260 70 q 83 -20 110 -20 q 57 -11 68 -20 q 45 16 45 -2 q 110 250 45 52 q 149 375 120 281 q 194 524 178 469 q 230 647 210 578 q 282 827 250 715 q 286 848 286 847 q 258 871 286 871 q 180 864 237 871 z "},"m":{"ha":1055,"x_min":45,"x_max":1042,"o":"m 83 439 l 60 467 q 201 591 135 551 q 290 631 267 631 q 312 623 303 631 q 321 600 321 616 q 306 528 321 574 q 248 361 292 482 q 231 317 241 347 l 233 314 q 348 459 292 399 q 453 557 404 519 q 541 613 503 595 q 603 631 580 631 q 660 582 660 631 q 645 497 660 549 q 611 393 630 444 q 582 317 593 341 l 585 314 q 735 495 662 423 q 867 598 808 566 q 966 631 926 631 q 1026 572 1026 631 q 958 329 1026 530 q 916 198 937 264 q 895 115 895 132 q 909 97 895 97 q 959 118 929 97 q 1014 163 989 140 l 1042 134 q 891 14 951 47 q 803 -20 831 -20 q 764 16 764 -20 q 780 92 764 39 q 837 268 795 145 q 894 438 879 391 q 909 504 909 484 q 886 533 909 533 q 819 503 862 533 q 731 426 777 472 q 656 340 685 379 q 596 250 618 291 q 557 163 574 208 q 503 0 541 118 q 393 -9 427 -1 q 526 406 457 174 q 543 497 543 460 q 521 530 543 530 q 459 499 503 530 q 361 411 416 469 q 264 288 302 349 q 205 166 227 226 q 153 0 184 106 q 45 -9 85 0 q 115 208 104 176 l 168 379 q 193 486 193 458 q 179 509 193 509 q 129 480 163 509 q 83 439 95 452 z "},"n":{"ha":708,"x_min":50,"x_max":694,"o":"m 668 163 l 694 135 q 566 27 629 73 q 456 -20 504 -20 q 427 -8 437 -20 q 418 17 418 4 q 434 93 418 41 q 488 257 450 144 q 545 427 527 369 q 564 510 564 484 q 558 529 564 522 q 543 536 552 536 q 495 518 526 536 q 429 468 465 499 q 349 387 394 437 q 271 285 298 330 q 225 192 243 240 q 178 52 207 143 q 161 0 165 9 q 50 -9 92 -1 q 96 132 62 26 q 110 178 100 144 q 123 221 121 212 q 189 432 178 387 q 200 490 200 468 q 187 507 200 507 q 138 480 171 507 q 92 437 105 452 l 68 468 q 142 541 109 513 q 209 590 175 568 q 267 621 243 611 q 298 631 290 631 q 319 622 310 630 q 328 600 328 614 q 297 476 328 560 q 233 311 267 392 l 236 309 q 348 451 289 383 q 482 575 407 519 q 624 631 557 631 q 682 574 682 631 q 669 511 682 549 q 640 415 667 502 q 603 296 612 329 q 576 214 593 264 q 555 151 560 164 q 550 117 550 135 q 564 96 550 96 q 668 163 589 96 z "},"o":{"ha":608,"x_min":54,"x_max":599,"o":"m 54 199 q 90 368 54 288 q 182 507 125 448 q 306 599 240 567 q 429 631 372 631 q 535 590 498 631 q 586 498 573 550 q 599 403 599 447 q 565 240 599 316 q 473 104 530 163 q 348 13 415 45 q 221 -20 281 -20 q 94 48 134 -20 q 54 199 54 116 m 163 210 q 187 96 163 150 q 278 43 212 43 q 386 95 337 43 q 463 231 435 147 q 492 403 492 315 q 472 516 492 459 q 383 572 452 572 q 273 512 323 572 q 193 366 222 452 q 163 210 163 279 z "},"p":{"ha":652,"x_min":-131,"x_max":648,"o":"m 86 435 l 62 465 q 159 553 111 515 q 244 611 208 591 q 297 631 281 631 q 326 602 326 631 q 258 399 326 556 l 261 396 q 368 524 314 470 q 465 604 421 577 q 533 631 508 631 q 593 608 567 631 q 634 546 620 585 q 648 456 648 507 q 617 283 648 368 q 529 129 585 198 q 402 20 473 60 q 256 -20 332 -20 q 158 8 210 -20 q 147 -29 153 -18 q 131 -89 143 -45 q 111 -162 118 -132 q 103 -205 103 -192 q 121 -229 103 -222 q 189 -245 138 -236 q 200 -249 196 -248 q 207 -250 205 -250 l 196 -290 q 26 -283 101 -283 q -131 -290 -43 -283 l -119 -250 q -112 -248 -118 -250 q -102 -245 -105 -247 q -55 -234 -71 -238 q -33 -229 -39 -231 q -18 -220 -26 -227 q 41 -68 5 -195 l 140 261 q 204 490 204 471 q 193 507 204 507 q 110 454 172 507 q 86 435 101 445 m 179 83 q 209 61 195 71 q 243 46 223 52 q 289 40 262 40 q 387 76 340 40 q 467 170 433 112 q 519 295 500 227 q 538 425 538 363 q 528 502 538 464 q 486 541 518 541 q 416 505 460 541 q 338 429 372 469 q 281 349 308 394 q 230 239 254 303 q 179 83 205 175 z "},"q":{"ha":623,"x_min":46,"x_max":653,"o":"m 504 -250 l 494 -290 q 334 -283 412 -283 q 144 -290 241 -283 l 155 -250 q 178 -248 165 -248 q 217 -241 198 -244 q 253 -234 236 -238 q 277 -224 269 -231 q 339 -60 294 -208 q 406 151 380 74 l 403 154 q 320 70 361 108 q 239 6 280 32 q 164 -20 199 -20 q 75 35 104 -20 q 46 161 46 90 q 111 392 46 283 q 277 566 176 501 q 475 631 378 631 q 591 612 522 631 q 646 604 625 604 l 653 587 q 618 518 633 554 q 587 429 604 481 q 503 161 570 376 q 480 84 492 126 q 448 -24 467 43 q 415 -140 428 -90 q 401 -200 401 -190 q 420 -231 401 -220 q 504 -250 439 -241 m 525 547 q 429 572 469 572 q 330 543 378 572 q 241 457 281 513 q 179 327 201 401 q 157 171 157 253 q 169 102 157 136 q 215 68 180 68 q 282 97 244 68 q 336 144 320 126 q 408 233 382 190 q 450 319 434 275 q 507 493 467 363 q 525 547 519 532 z "},"r":{"ha":463,"x_min":50,"x_max":571,"o":"m 90 441 l 65 472 q 292 631 231 631 q 318 603 318 631 q 305 536 318 582 q 271 428 292 490 q 237 332 250 367 q 214 272 224 296 l 216 269 q 323 447 273 370 q 406 563 372 524 q 466 616 439 602 q 521 631 492 631 q 571 616 541 631 q 544 559 549 574 q 519 496 538 545 l 490 496 q 465 515 481 515 q 409 481 441 515 q 348 406 376 447 q 288 310 320 364 q 224 195 244 239 q 176 57 205 151 q 158 0 165 18 q 103 -1 119 0 q 50 -9 87 -3 q 103 157 62 27 q 173 380 144 286 q 201 488 201 474 q 184 511 201 511 q 146 490 174 511 q 110 460 118 468 l 90 441 z "},"s":{"ha":449,"x_min":-12,"x_max":476,"o":"m 439 468 l 407 468 q 381 544 403 508 q 298 581 359 581 q 230 557 257 581 q 203 498 203 533 q 210 467 203 483 q 239 427 218 451 q 297 368 260 404 q 380 270 352 315 q 408 178 408 224 q 375 82 408 128 q 286 8 342 37 q 161 -20 229 -20 q 60 -3 98 -20 q -12 40 22 14 q 46 160 24 105 l 64 155 q 85 97 74 111 q 136 59 103 74 q 203 45 170 45 q 281 71 252 45 q 310 138 310 96 q 289 201 310 165 q 205 300 267 236 q 130 391 149 360 q 111 458 111 422 q 140 543 111 503 q 221 607 170 583 q 335 631 273 631 q 476 591 414 631 q 460 537 471 576 q 439 468 448 498 z "},"t":{"ha":390,"x_min":46,"x_max":469,"o":"m 328 777 l 366 774 q 307 611 330 678 q 464 614 392 611 l 469 602 q 439 550 451 576 q 290 554 381 555 q 248 411 280 522 q 193 216 215 300 q 171 114 171 132 q 179 96 171 100 q 193 92 187 92 q 326 170 222 92 l 351 143 q 222 33 292 86 q 96 -20 151 -20 q 46 29 46 -20 q 54 76 46 44 q 71 137 62 108 q 87 193 79 167 q 98 228 92 208 q 114 280 104 249 q 148 394 123 312 q 186 522 172 475 q 196 555 188 522 q 103 551 165 555 l 113 593 q 214 645 168 611 q 328 777 260 680 z "},"u":{"ha":708,"x_min":65,"x_max":694,"o":"m 93 437 l 69 468 q 210 590 146 549 q 300 631 275 631 q 319 621 311 631 q 328 596 328 611 q 303 486 328 565 q 257 350 279 408 q 182 104 182 144 q 207 77 182 77 q 294 122 235 77 q 410 236 353 168 q 481 335 454 288 q 527 428 509 381 q 574 568 545 475 l 586 608 q 694 619 647 610 q 647 468 693 616 q 591 290 602 321 q 553 163 570 216 q 545 115 545 132 q 561 96 545 96 q 653 150 578 96 q 661 156 655 151 q 668 161 667 161 l 692 134 q 576 34 626 68 q 498 -10 526 0 q 454 -20 469 -20 q 431 -10 441 -20 q 421 14 421 -1 q 432 74 421 37 q 461 162 442 112 q 513 294 480 213 l 510 297 q 314 74 418 168 q 118 -20 210 -20 q 81 -6 98 -20 q 65 35 65 7 q 81 117 65 65 q 154 348 122 250 q 195 468 186 445 q 199 490 199 479 q 195 501 199 497 q 184 505 192 505 q 93 437 165 505 z "},"v":{"ha":579,"x_min":60,"x_max":614,"o":"m 87 450 l 60 475 q 157 580 104 529 q 245 631 209 631 q 285 597 271 631 q 302 416 302 546 q 294 178 302 338 l 292 131 l 294 127 q 366 214 338 179 q 433 302 395 249 q 495 402 471 356 q 518 482 518 448 q 503 526 518 516 q 468 536 488 535 l 463 549 q 508 591 493 576 q 541 631 522 607 q 599 585 585 618 q 614 525 614 551 q 575 400 614 465 q 465 250 536 336 q 394 166 439 219 q 301 61 349 113 q 225 -20 253 9 l 186 -20 q 201 198 197 88 q 205 353 205 309 q 200 465 205 408 q 175 521 195 521 q 129 491 161 521 q 87 450 96 461 z "},"w":{"ha":926,"x_min":58,"x_max":957,"o":"m 87 450 l 58 479 q 93 515 68 489 q 149 569 119 542 q 206 613 180 596 q 249 631 233 631 q 293 570 283 631 q 302 411 302 509 q 300 297 302 353 q 297 224 298 242 l 294 178 l 297 175 q 333 232 322 214 q 366 281 345 249 q 439 395 387 313 q 481 461 458 425 q 520 521 505 498 q 553 571 535 545 q 593 631 570 598 l 636 631 l 631 379 q 628 245 629 321 q 625 115 627 170 l 628 113 q 808 344 752 261 q 864 482 864 427 q 849 524 864 510 q 814 536 834 538 l 807 549 q 848 587 831 570 q 886 631 865 604 q 927 607 912 625 q 950 566 943 589 q 957 526 957 544 q 939 444 957 484 q 889 358 921 404 q 808 253 863 319 q 705 131 753 186 q 615 30 656 75 q 568 -20 573 -15 l 528 -20 l 538 447 l 534 450 q 421 273 490 381 l 249 12 q 228 -20 234 -5 l 187 -20 q 207 353 207 168 q 201 469 207 418 q 178 521 196 521 q 103 465 161 521 q 87 450 92 452 z "},"x":{"ha":623,"x_min":-28,"x_max":684,"o":"m 107 429 l 78 457 q 138 532 99 490 q 213 603 177 574 q 271 631 250 631 q 311 603 296 631 q 329 555 326 575 q 362 425 359 437 q 371 390 366 412 q 443 496 402 435 q 497 571 484 557 q 621 631 554 631 q 684 616 648 631 q 647 505 668 574 l 623 505 q 582 541 608 541 q 519 503 551 541 q 473 442 513 495 q 390 318 433 389 q 424 187 409 243 q 450 109 439 132 q 472 92 458 92 q 576 182 501 92 l 607 157 q 406 -20 468 -20 q 375 -5 385 -20 q 321 183 350 24 q 318 198 319 191 q 315 208 316 205 q 301 187 304 197 q 204 65 244 109 q 128 1 165 22 q 47 -20 91 -20 q -28 5 10 -20 q 20 104 -5 48 l 31 104 q 53 78 43 87 q 83 69 64 69 q 182 123 130 69 q 300 279 233 177 q 248 478 279 380 q 214 517 233 517 q 121 446 182 517 q 107 429 110 435 z "},"y":{"ha":636,"x_min":-96,"x_max":644,"o":"m 87 450 l 60 476 q 163 584 110 538 q 245 631 216 631 q 282 605 269 631 q 302 549 296 578 q 323 437 315 500 q 336 317 332 374 q 342 200 340 260 q 345 94 345 140 l 347 94 q 487 296 422 193 q 551 472 551 400 q 501 534 551 533 l 496 547 q 572 631 536 585 q 632 583 619 616 q 644 521 644 550 q 610 392 644 461 q 460 164 575 323 q 291 -56 372 41 q 160 -200 210 -154 q -3 -292 63 -292 q -96 -257 -51 -292 q -47 -165 -68 -214 l -36 -165 q -7 -198 -21 -189 q 33 -208 6 -208 q 112 -175 66 -208 q 252 -20 157 -142 q 247 163 252 64 q 232 341 241 261 q 207 470 222 422 q 175 518 193 518 q 107 469 158 518 l 87 450 z "},"z":{"ha":521,"x_min":-36,"x_max":581,"o":"m 132 435 l 97 452 q 144 542 124 509 q 189 597 164 575 q 243 619 214 619 q 335 599 266 619 q 433 579 394 579 q 558 619 487 579 l 581 591 q 268 267 484 472 q 136 140 154 157 q 74 77 118 123 l 77 74 q 140 110 113 97 q 199 123 167 123 q 243 118 217 123 q 286 109 269 113 q 392 87 373 87 q 438 112 416 87 q 488 182 459 136 l 522 164 q 445 29 476 68 q 357 -9 413 -9 q 229 12 327 -9 q 182 23 214 17 q 121 29 151 29 q -8 -9 63 29 l -36 14 q 16 87 -10 54 q 94 177 41 121 q 218 298 147 232 q 253 333 227 308 q 303 379 279 357 q 336 411 326 401 l 432 505 l 456 524 l 453 526 q 359 494 391 494 q 292 507 323 494 q 267 514 283 509 q 243 521 251 519 q 220 525 233 525 q 183 508 199 525 q 140 447 166 492 l 132 435 z "},"{":{"ha":665,"x_min":208,"x_max":586,"o":"m 586 -277 l 586 -300 q 450 -249 507 -289 q 362 -152 392 -209 q 332 -36 332 -94 q 346 69 332 7 q 363 174 363 133 q 326 264 363 220 q 208 319 288 309 l 208 346 q 298 378 262 353 q 348 434 333 403 q 363 492 363 465 q 356 552 363 515 q 346 596 349 588 q 335 659 338 630 q 332 701 332 688 q 361 815 332 759 q 449 913 391 872 q 586 965 508 955 l 586 940 q 474 884 515 923 q 433 781 433 844 q 450 673 433 746 q 464 568 464 610 q 422 445 464 512 q 264 336 381 377 l 264 334 q 376 270 330 310 q 443 186 421 231 q 464 97 464 142 q 450 -8 464 55 q 433 -115 433 -78 q 586 -277 433 -237 z "},"|":{"ha":737,"x_min":389,"x_max":479,"o":"m 389 989 l 479 989 l 479 -165 l 389 -165 l 389 989 z "},"}":{"ha":665,"x_min":192,"x_max":570,"o":"m 192 942 l 192 965 q 328 914 271 954 q 415 817 385 874 q 446 701 446 760 q 432 596 446 656 q 415 492 415 532 q 452 402 415 447 q 570 346 489 358 l 570 319 q 452 264 490 309 q 415 174 415 220 q 422 115 415 151 q 432 69 429 80 q 446 -36 446 11 q 416 -150 446 -94 q 329 -248 387 -206 q 192 -300 271 -289 l 192 -275 q 345 -115 345 -238 q 328 -8 345 -81 q 314 97 314 55 q 328 170 314 129 q 386 255 342 212 q 514 329 430 299 l 514 332 q 365 434 415 368 q 314 568 314 500 q 328 673 314 610 q 345 781 345 743 q 325 856 345 824 q 272 909 306 888 q 192 942 238 930 z "},"~":{"ha":926,"x_min":171,"x_max":903,"o":"m 868 553 l 903 553 q 876 438 901 484 q 811 370 850 392 q 728 347 772 347 q 676 352 703 347 q 608 373 650 357 q 473 428 566 389 q 328 471 370 471 q 239 434 263 471 q 205 349 214 398 l 171 349 q 184 436 174 398 q 225 504 195 473 q 278 542 249 529 q 340 554 307 554 q 424 540 372 554 q 599 472 475 526 q 695 436 667 444 q 745 429 724 429 q 824 456 788 429 q 868 553 860 484 z "},"Ä":{"ha":926,"x_min":-43,"x_max":982,"o":"m 880 33 l 869 -7 q 799 -3 834 -4 q 693 0 743 0 q 465 -7 609 0 l 473 33 q 608 86 593 58 q 627 168 617 100 q 640 290 636 236 q 441 293 560 293 q 353 290 389 293 q 341 275 345 279 q 330 261 337 270 q 268 177 316 242 q 218 109 220 112 q 196 68 196 81 q 205 52 196 58 q 262 37 215 47 q 283 33 283 33 l 272 -7 q 199 -3 250 -5 q 113 0 146 0 q -43 -7 68 0 l -31 33 q 64 61 38 45 q 135 135 90 77 q 171 181 143 146 q 220 245 198 216 q 261 297 242 273 l 351 411 q 445 528 415 491 q 506 607 474 566 q 594 723 538 649 q 743 925 649 798 q 757 942 748 930 q 768 958 766 954 l 814 958 q 807 886 813 947 q 798 781 802 825 q 787 679 793 739 q 777 576 781 618 q 769 465 774 534 q 754 273 764 395 q 745 98 745 120 q 751 75 745 83 q 784 57 757 66 q 861 37 810 47 q 880 33 882 33 m 400 355 l 647 355 l 689 742 l 686 745 l 400 355 m 930 1186 q 967 1172 951 1186 q 982 1131 982 1157 q 960 1067 982 1096 q 909 1039 939 1039 q 870 1057 884 1039 q 856 1100 856 1075 q 878 1159 856 1132 q 930 1186 899 1186 m 709 1186 q 744 1172 729 1186 q 760 1131 760 1158 q 738 1067 760 1096 q 686 1039 716 1039 q 648 1057 662 1039 q 633 1100 633 1075 q 655 1159 633 1132 q 709 1186 677 1186 z "},"Å":{"ha":926,"x_min":-43,"x_max":924,"o":"m 880 33 l 869 -7 q 799 -3 834 -4 q 693 0 743 0 q 465 -7 609 0 l 473 33 q 608 86 593 58 q 627 168 617 100 q 640 290 636 236 q 441 293 560 293 q 353 290 389 293 q 341 275 345 279 q 330 261 337 270 q 268 177 316 242 q 218 109 220 112 q 196 68 196 81 q 205 52 196 58 q 262 37 215 47 q 283 33 283 33 l 272 -7 q 199 -3 250 -5 q 113 0 146 0 q -43 -7 68 0 l -31 33 q 64 61 38 45 q 135 135 90 77 q 171 181 143 146 q 220 245 198 216 q 261 297 242 273 l 351 411 q 445 528 415 491 q 506 607 474 566 q 594 723 538 649 q 743 925 649 798 q 757 942 748 930 q 768 958 766 954 l 814 958 q 807 886 813 947 q 798 781 802 825 q 787 679 793 739 q 777 576 781 618 q 769 465 774 534 q 754 273 764 395 q 745 98 745 120 q 751 75 745 83 q 784 57 757 66 q 861 37 810 47 q 880 33 882 33 m 400 355 l 647 355 l 689 742 l 686 745 l 400 355 m 787 1253 q 856 1234 825 1253 q 906 1183 888 1215 q 924 1116 924 1152 q 905 1048 924 1080 q 855 998 887 1016 q 787 979 823 979 q 720 998 751 979 q 670 1048 688 1016 q 652 1116 652 1080 q 691 1213 652 1172 q 787 1253 730 1253 m 787 1195 q 731 1172 755 1195 q 707 1116 707 1149 q 731 1058 707 1080 q 787 1035 754 1035 q 844 1058 821 1035 q 867 1116 867 1082 q 843 1172 867 1149 q 787 1195 820 1195 z "},"Ç":{"ha":868,"x_min":117,"x_max":986,"o":"m 205 -292 l 200 -249 q 208 -247 201 -248 q 218 -244 214 -245 q 330 -215 277 -235 q 383 -164 383 -195 q 375 -141 383 -149 q 354 -134 366 -134 q 317 -142 342 -134 l 304 -117 q 389 -35 351 -74 l 397 -28 q 184 87 252 -18 q 117 307 117 191 q 164 549 117 431 q 299 760 212 666 q 496 906 385 853 q 725 958 606 958 q 986 892 859 958 q 952 792 968 845 q 916 648 936 739 l 864 652 q 867 751 867 703 q 848 839 867 815 q 788 879 829 865 q 705 893 747 893 q 534 844 616 893 q 389 713 452 795 q 289 529 326 631 q 253 326 253 427 q 283 188 253 247 q 363 98 313 129 q 472 66 414 66 q 628 104 551 66 q 796 204 705 142 l 829 160 q 646 35 727 81 q 475 -24 564 -12 q 436 -64 452 -50 q 483 -87 464 -73 q 503 -138 503 -102 q 477 -202 503 -170 q 386 -259 452 -234 q 205 -292 319 -284 z "},"É":{"ha":868,"x_min":-17,"x_max":945,"o":"m 228 899 l 239 939 q 422 930 320 930 q 594 931 509 930 q 771 932 680 931 q 945 939 863 934 q 886 705 908 820 l 838 708 q 840 791 839 722 q 836 850 842 834 q 811 870 829 866 q 743 873 793 873 l 497 873 q 471 788 484 832 q 439 682 457 745 q 404 564 414 606 q 397 543 401 555 q 389 518 393 531 l 507 518 q 615 524 590 518 q 648 552 633 528 q 690 627 664 575 l 700 646 l 741 646 q 733 619 735 625 q 706 525 712 548 q 691 474 699 502 q 676 417 684 447 q 659 350 669 388 q 647 311 651 328 l 603 311 q 608 364 603 313 q 612 421 612 414 q 598 451 612 444 q 558 458 583 458 q 465 460 543 458 q 374 461 387 461 q 345 357 366 435 q 321 269 324 279 q 265 61 292 168 l 558 61 q 643 69 616 61 q 690 104 669 77 q 753 207 712 132 q 765 230 758 217 q 775 248 773 243 l 825 248 q 747 25 785 143 l 737 -7 q 519 -3 694 -5 q 297 0 342 0 q 205 0 235 0 q 123 -2 176 -1 q 41 -5 71 -3 q -17 -7 12 -6 l -4 33 l 21 39 q 93 55 68 48 q 127 71 119 62 q 144 100 136 79 q 187 229 161 144 q 245 433 212 315 q 297 620 273 535 q 338 770 320 705 q 355 843 355 836 q 342 869 355 862 q 254 893 323 880 q 228 899 235 896 m 628 1000 l 592 1000 q 612 1053 593 1004 q 650 1148 631 1101 q 669 1199 669 1196 q 684 1236 672 1208 q 818 1236 768 1234 l 824 1225 q 770 1170 789 1191 q 732 1127 750 1148 q 628 1000 715 1106 z "},"Ñ":{"ha":1013,"x_min":-11,"x_max":1189,"o":"m 208 899 l 221 939 q 347 933 285 933 q 479 939 418 933 q 596 637 523 830 q 641 519 618 578 q 676 429 663 460 q 718 322 688 397 q 768 195 748 247 l 771 195 q 838 433 798 293 q 899 654 882 592 q 927 761 916 715 q 945 828 939 806 q 947 846 947 836 q 933 870 947 862 q 851 892 920 878 q 841 895 847 893 q 832 897 836 896 q 827 899 829 898 l 839 939 q 1028 930 935 930 q 1189 939 1128 930 l 1179 899 l 1156 893 q 1077 874 1097 883 q 1043 843 1058 865 q 1002 736 1031 824 q 946 553 974 648 q 899 390 919 458 l 802 41 q 786 -22 798 27 l 734 -28 q 695 80 709 45 q 673 139 682 115 q 625 262 664 163 q 543 469 587 361 l 514 542 q 422 778 474 643 l 419 778 l 406 726 q 360 572 368 597 q 340 501 353 547 q 313 401 328 455 q 269 241 298 347 q 247 154 265 225 q 228 81 228 83 q 242 62 228 71 q 279 49 257 54 q 321 39 302 43 q 332 37 324 38 q 346 34 340 35 q 351 33 351 33 l 338 -7 q 272 -3 313 -5 q 178 0 223 0 q -11 -7 100 0 l 1 33 q 31 39 9 33 q 113 64 91 50 q 149 115 134 79 q 191 243 163 155 q 257 460 218 330 q 310 643 295 591 q 364 831 330 718 q 367 851 367 842 q 358 867 367 861 q 314 880 349 873 q 250 890 280 887 l 208 899 m 918 1196 l 960 1196 q 893 1070 929 1107 q 829 1034 857 1034 q 729 1075 802 1034 q 647 1110 665 1110 q 568 1034 607 1110 l 526 1034 q 654 1196 584 1196 q 692 1190 675 1196 q 764 1150 708 1183 q 844 1120 823 1120 q 883 1140 867 1120 q 918 1196 899 1160 z "},"Ö":{"ha":956,"x_min":113,"x_max":996,"o":"m 113 309 q 161 546 113 429 q 292 757 209 664 q 481 904 374 850 q 700 958 589 958 q 915 874 835 958 q 996 627 996 790 q 945 368 996 489 q 810 159 895 248 q 618 21 725 71 q 400 -28 511 -28 q 215 34 279 -28 q 132 171 151 96 q 113 309 113 246 m 248 323 q 274 177 248 241 q 351 79 301 113 q 467 45 400 45 q 663 132 572 45 q 808 354 754 218 q 863 619 863 489 q 836 772 863 710 q 762 864 808 834 q 657 895 715 895 q 502 843 577 895 q 370 707 427 791 q 280 521 313 623 q 248 323 248 420 m 862 1186 q 898 1172 883 1186 q 913 1131 913 1157 q 892 1067 913 1096 q 840 1039 870 1039 q 802 1057 816 1039 q 787 1100 787 1075 q 809 1159 787 1132 q 862 1186 831 1186 m 640 1186 q 676 1172 661 1186 q 691 1131 691 1158 q 669 1067 691 1096 q 618 1039 648 1039 q 579 1057 593 1039 q 565 1100 565 1075 q 587 1159 565 1132 q 640 1186 608 1186 z "},"Ü":{"ha":1013,"x_min":192,"x_max":1196,"o":"m 1196 939 l 1185 899 q 1158 893 1179 897 q 1094 878 1117 886 q 1057 853 1072 870 q 1033 811 1042 836 q 1004 725 1023 787 q 950 550 966 604 q 925 466 934 496 q 886 326 917 435 q 828 175 863 241 q 745 63 792 108 q 632 -4 697 19 q 485 -28 566 -28 q 313 8 378 -28 q 220 99 248 43 q 192 216 192 155 q 199 299 192 256 q 228 420 207 342 q 285 625 249 498 q 300 680 292 653 q 314 732 307 707 q 332 802 321 758 l 340 829 q 342 839 340 831 q 343 852 343 847 q 334 869 343 865 q 296 881 325 873 q 249 890 267 888 l 216 899 l 228 939 q 329 932 293 935 q 427 930 365 930 q 532 932 493 930 q 633 939 571 935 l 624 899 q 507 870 528 880 q 472 832 485 861 q 418 661 458 796 q 353 439 374 514 q 324 320 332 364 q 315 232 315 275 q 342 131 315 170 q 414 75 370 92 q 514 57 459 57 q 642 84 589 57 q 732 162 696 111 q 795 288 768 214 q 857 484 823 361 q 931 746 909 665 q 953 846 953 828 q 936 870 953 861 q 863 892 918 880 q 833 899 848 894 l 844 939 q 1022 930 948 930 q 1196 939 1121 930 m 890 1186 q 926 1172 911 1186 q 941 1131 941 1157 q 920 1067 941 1096 q 868 1039 898 1039 q 829 1057 844 1039 q 815 1100 815 1075 q 837 1159 815 1132 q 890 1186 859 1186 m 668 1186 q 704 1172 688 1186 q 719 1131 719 1158 q 697 1067 719 1096 q 646 1039 675 1039 q 607 1057 621 1039 q 593 1100 593 1075 q 614 1159 593 1132 q 668 1186 636 1186 z "},"á":{"ha":652,"x_min":46,"x_max":643,"o":"m 614 165 l 636 136 q 547 58 595 96 q 461 1 498 21 q 408 -20 424 -20 q 376 20 376 -20 q 388 82 376 39 q 403 132 399 126 q 416 179 409 157 l 414 182 q 286 45 357 109 q 158 -20 216 -20 q 79 25 113 -20 q 46 154 46 69 q 82 326 46 241 q 182 480 119 412 q 330 590 246 549 q 505 631 413 631 q 571 624 516 631 q 635 616 627 617 l 643 600 q 569 414 604 519 q 514 227 534 310 q 493 127 493 143 q 510 100 493 100 q 599 153 532 100 q 614 165 610 163 m 515 554 q 433 571 463 571 q 328 537 378 571 q 239 444 277 503 q 178 313 200 385 q 155 170 155 240 q 173 91 155 116 q 210 65 191 65 q 291 110 236 65 q 392 225 345 155 q 443 324 422 269 q 501 509 463 378 q 508 530 503 512 q 515 554 514 549 m 436 720 l 400 720 q 420 772 401 724 q 458 868 439 820 q 477 918 477 916 q 492 956 480 928 q 626 956 576 954 l 632 945 q 578 889 597 910 q 541 846 558 867 q 436 720 523 825 z "},"à":{"ha":652,"x_min":46,"x_max":643,"o":"m 614 165 l 636 136 q 547 58 595 96 q 461 1 498 21 q 408 -20 424 -20 q 376 20 376 -20 q 388 82 376 39 q 403 132 399 126 q 416 179 409 157 l 414 182 q 286 45 357 109 q 158 -20 216 -20 q 79 25 113 -20 q 46 154 46 69 q 82 326 46 241 q 182 480 119 412 q 330 590 246 549 q 505 631 413 631 q 571 624 516 631 q 635 616 627 617 l 643 600 q 569 414 604 519 q 514 227 534 310 q 493 127 493 143 q 510 100 493 100 q 599 153 532 100 q 614 165 610 163 m 515 554 q 433 571 463 571 q 328 537 378 571 q 239 444 277 503 q 178 313 200 385 q 155 170 155 240 q 173 91 155 116 q 210 65 191 65 q 291 110 236 65 q 392 225 345 155 q 443 324 422 269 q 501 509 463 378 q 508 530 503 512 q 515 554 514 549 m 585 713 l 549 713 q 444 840 462 819 q 407 883 427 861 q 353 939 387 904 l 358 949 q 493 949 409 947 q 500 930 499 934 q 507 912 502 926 q 530 854 513 895 q 565 766 546 814 q 585 713 583 718 z "},"â":{"ha":652,"x_min":46,"x_max":643,"o":"m 614 165 l 636 136 q 547 58 595 96 q 461 1 498 21 q 408 -20 424 -20 q 376 20 376 -20 q 388 82 376 39 q 403 132 399 126 q 416 179 409 157 l 414 182 q 286 45 357 109 q 158 -20 216 -20 q 79 25 113 -20 q 46 154 46 69 q 82 326 46 241 q 182 480 119 412 q 330 590 246 549 q 505 631 413 631 q 571 624 516 631 q 635 616 627 617 l 643 600 q 569 414 604 519 q 514 227 534 310 q 493 127 493 143 q 510 100 493 100 q 599 153 532 100 q 614 165 610 163 m 515 554 q 433 571 463 571 q 328 537 378 571 q 239 444 277 503 q 178 313 200 385 q 155 170 155 240 q 173 91 155 116 q 210 65 191 65 q 291 110 236 65 q 392 225 345 155 q 443 324 422 269 q 501 509 463 378 q 508 530 503 512 q 515 554 514 549 m 629 720 l 587 720 q 578 734 581 728 l 533 800 q 517 824 523 814 q 508 838 511 833 q 501 848 505 844 q 423 791 465 824 q 328 720 366 747 l 277 720 q 296 741 279 722 q 410 868 368 818 q 471 937 454 921 q 493 936 471 937 q 526 935 515 935 q 575 937 544 935 q 579 918 579 925 q 598 836 584 895 q 622 741 612 777 q 625 732 623 739 q 629 720 627 726 z "},"ä":{"ha":652,"x_min":46,"x_max":677,"o":"m 614 165 l 636 136 q 547 58 595 96 q 461 1 498 21 q 408 -20 424 -20 q 376 20 376 -20 q 388 82 376 39 q 403 132 399 126 q 416 179 409 157 l 414 182 q 286 45 357 109 q 158 -20 216 -20 q 79 25 113 -20 q 46 154 46 69 q 82 326 46 241 q 182 480 119 412 q 330 590 246 549 q 505 631 413 631 q 571 624 516 631 q 635 616 627 617 l 643 600 q 569 414 604 519 q 514 227 534 310 q 493 127 493 143 q 510 100 493 100 q 599 153 532 100 q 614 165 610 163 m 515 554 q 433 571 463 571 q 328 537 378 571 q 239 444 277 503 q 178 313 200 385 q 155 170 155 240 q 173 91 155 116 q 210 65 191 65 q 291 110 236 65 q 392 225 345 155 q 443 324 422 269 q 501 509 463 378 q 508 530 503 512 q 515 554 514 549 m 626 905 q 662 891 647 905 q 677 850 677 876 q 656 787 677 815 q 604 758 634 758 q 566 776 580 758 q 551 819 551 794 q 573 878 551 851 q 626 905 595 905 m 404 905 q 440 891 425 905 q 455 850 455 877 q 433 787 455 815 q 382 758 412 758 q 343 776 357 758 q 329 819 329 794 q 351 878 329 851 q 404 905 372 905 z "},"ã":{"ha":652,"x_min":46,"x_max":696,"o":"m 614 165 l 636 136 q 547 58 595 96 q 461 1 498 21 q 408 -20 424 -20 q 376 20 376 -20 q 388 82 376 39 q 403 132 399 126 q 416 179 409 157 l 414 182 q 286 45 357 109 q 158 -20 216 -20 q 79 25 113 -20 q 46 154 46 69 q 82 326 46 241 q 182 480 119 412 q 330 590 246 549 q 505 631 413 631 q 571 624 516 631 q 635 616 627 617 l 643 600 q 569 414 604 519 q 514 227 534 310 q 493 127 493 143 q 510 100 493 100 q 599 153 532 100 q 614 165 610 163 m 515 554 q 433 571 463 571 q 328 537 378 571 q 239 444 277 503 q 178 313 200 385 q 155 170 155 240 q 173 91 155 116 q 210 65 191 65 q 291 110 236 65 q 392 225 345 155 q 443 324 422 269 q 501 509 463 378 q 508 530 503 512 q 515 554 514 549 m 654 916 l 696 916 q 629 790 665 827 q 565 753 593 753 q 465 794 538 753 q 383 829 401 829 q 304 753 343 829 l 262 753 q 390 916 320 916 q 428 909 412 916 q 500 869 444 902 q 581 839 559 839 q 620 859 604 839 q 654 916 635 879 z "},"å":{"ha":652,"x_min":46,"x_max":643,"o":"m 614 165 l 636 136 q 547 58 595 96 q 461 1 498 21 q 408 -20 424 -20 q 376 20 376 -20 q 388 82 376 39 q 403 132 399 126 q 416 179 409 157 l 414 182 q 286 45 357 109 q 158 -20 216 -20 q 79 25 113 -20 q 46 154 46 69 q 82 326 46 241 q 182 480 119 412 q 330 590 246 549 q 505 631 413 631 q 571 624 516 631 q 635 616 627 617 l 643 600 q 569 414 604 519 q 514 227 534 310 q 493 127 493 143 q 510 100 493 100 q 599 153 532 100 q 614 165 610 163 m 515 554 q 433 571 463 571 q 328 537 378 571 q 239 444 277 503 q 178 313 200 385 q 155 170 155 240 q 173 91 155 116 q 210 65 191 65 q 291 110 236 65 q 392 225 345 155 q 443 324 422 269 q 501 509 463 378 q 508 530 503 512 q 515 554 514 549 m 483 972 q 552 954 520 972 q 601 903 583 935 q 619 835 619 871 q 601 767 619 799 q 551 717 583 735 q 483 699 519 699 q 415 717 446 699 q 366 767 384 735 q 347 835 347 799 q 387 932 347 891 q 483 972 426 972 m 483 914 q 427 891 450 914 q 403 835 403 868 q 426 777 403 800 q 483 754 450 754 q 539 778 517 754 q 562 835 562 801 q 539 891 562 869 q 483 914 515 914 z "},"ç":{"ha":492,"x_min":7,"x_max":566,"o":"m 524 465 l 484 465 q 393 570 466 570 q 287 518 344 570 q 190 379 229 466 q 151 195 151 293 q 166 109 151 153 q 229 64 181 64 q 424 178 299 64 l 458 144 q 339 43 395 81 q 248 -7 283 5 q 200 -57 229 -28 q 257 -122 257 -75 q 189 -227 257 -191 q 17 -290 121 -262 l 7 -253 q 104 -210 56 -236 q 153 -153 153 -184 q 142 -132 153 -140 q 118 -123 132 -123 q 94 -127 106 -123 l 82 -109 q 176 -20 134 -64 q 74 35 109 -19 q 40 155 40 88 q 74 329 40 242 q 166 484 109 416 q 295 591 224 552 q 437 631 366 631 q 506 621 479 631 q 566 595 533 612 q 542 535 548 552 q 524 465 536 517 z "},"é":{"ha":507,"x_min":46,"x_max":560,"o":"m 422 158 l 450 119 q 178 -20 279 -20 q 96 11 125 -20 q 56 82 66 41 q 46 163 46 124 q 82 338 46 253 q 180 489 118 422 q 315 593 241 556 q 460 631 388 631 q 519 613 493 631 q 546 554 546 596 q 496 430 546 488 q 382 342 447 371 q 274 303 329 317 q 167 281 220 289 q 162 246 167 278 q 158 191 158 214 q 173 103 158 144 q 233 62 189 62 q 422 158 299 62 m 180 329 q 394 420 342 357 q 447 533 447 483 q 404 579 447 579 q 291 521 357 579 q 180 329 225 463 m 364 720 l 328 720 q 348 772 330 724 q 386 868 367 820 q 406 918 405 916 q 420 956 408 928 q 554 956 504 954 l 560 945 q 506 889 526 910 q 469 846 486 867 q 364 720 451 825 z "},"è":{"ha":507,"x_min":46,"x_max":546,"o":"m 422 158 l 450 119 q 178 -20 279 -20 q 96 11 125 -20 q 56 82 66 41 q 46 163 46 124 q 82 338 46 253 q 180 489 118 422 q 315 593 241 556 q 460 631 388 631 q 519 613 493 631 q 546 554 546 596 q 496 430 546 488 q 382 342 447 371 q 274 303 329 317 q 167 281 220 289 q 162 246 167 278 q 158 191 158 214 q 173 103 158 144 q 233 62 189 62 q 422 158 299 62 m 180 329 q 394 420 342 357 q 447 533 447 483 q 404 579 447 579 q 291 521 357 579 q 180 329 225 463 m 486 720 l 450 720 q 346 846 363 825 q 309 889 328 867 q 254 945 289 910 l 260 956 q 395 956 311 954 q 402 936 401 940 q 408 918 404 932 q 431 861 415 901 q 466 772 448 820 q 486 720 485 724 z "},"ê":{"ha":507,"x_min":46,"x_max":557,"o":"m 422 158 l 450 119 q 178 -20 279 -20 q 96 11 125 -20 q 56 82 66 41 q 46 163 46 124 q 82 338 46 253 q 180 489 118 422 q 315 593 241 556 q 460 631 388 631 q 519 613 493 631 q 546 554 546 596 q 496 430 546 488 q 382 342 447 371 q 274 303 329 317 q 167 281 220 289 q 162 246 167 278 q 158 191 158 214 q 173 103 158 144 q 233 62 189 62 q 422 158 299 62 m 180 329 q 394 420 342 357 q 447 533 447 483 q 404 579 447 579 q 291 521 357 579 q 180 329 225 463 m 557 720 l 515 720 q 506 734 509 728 l 461 800 q 445 824 451 814 q 436 838 439 833 q 429 848 433 844 q 351 791 393 824 q 256 720 294 747 l 205 720 q 224 741 207 722 q 338 868 296 818 q 399 937 382 921 q 421 936 399 937 q 454 935 444 935 q 503 937 472 935 q 507 918 507 925 q 526 836 512 895 q 550 741 541 777 q 553 732 551 739 q 557 720 555 726 z "},"ë":{"ha":507,"x_min":46,"x_max":606,"o":"m 422 158 l 450 119 q 178 -20 279 -20 q 96 11 125 -20 q 56 82 66 41 q 46 163 46 124 q 82 338 46 253 q 180 489 118 422 q 315 593 241 556 q 460 631 388 631 q 519 613 493 631 q 546 554 546 596 q 496 430 546 488 q 382 342 447 371 q 274 303 329 317 q 167 281 220 289 q 162 246 167 278 q 158 191 158 214 q 173 103 158 144 q 233 62 189 62 q 422 158 299 62 m 180 329 q 394 420 342 357 q 447 533 447 483 q 404 579 447 579 q 291 521 357 579 q 180 329 225 463 m 554 905 q 590 891 575 905 q 606 850 606 876 q 584 787 606 815 q 532 758 562 758 q 494 776 508 758 q 479 819 479 794 q 501 878 479 851 q 554 905 523 905 m 332 905 q 368 891 353 905 q 383 850 383 877 q 361 787 383 815 q 310 758 340 758 q 271 776 286 758 q 257 819 257 794 q 279 878 257 851 q 332 905 300 905 z "},"í":{"ha":376,"x_min":71,"x_max":495,"o":"m 318 163 l 345 134 q 214 27 283 75 q 109 -20 146 -20 q 82 -8 94 -20 q 71 21 71 3 q 90 109 71 47 l 140 249 q 182 378 145 264 q 220 497 220 492 q 205 514 220 514 q 172 497 195 514 q 131 460 148 479 l 113 441 l 87 469 q 222 587 160 544 q 317 631 285 631 q 345 604 345 631 q 329 537 345 589 q 289 410 313 485 q 250 294 264 334 q 212 184 233 248 q 192 107 192 121 q 205 90 192 90 q 298 149 231 90 q 309 156 302 151 q 318 163 315 161 m 299 720 l 263 720 q 283 772 264 724 q 321 868 302 820 q 340 918 340 916 q 355 956 343 928 q 489 956 439 954 l 495 945 q 441 889 460 910 q 404 846 421 867 q 299 720 386 825 z "},"ì":{"ha":376,"x_min":71,"x_max":421,"o":"m 318 163 l 345 134 q 214 27 283 75 q 109 -20 146 -20 q 82 -8 94 -20 q 71 21 71 3 q 90 109 71 47 l 140 249 q 182 378 145 264 q 220 497 220 492 q 205 514 220 514 q 172 497 195 514 q 131 460 148 479 l 113 441 l 87 469 q 222 587 160 544 q 317 631 285 631 q 345 604 345 631 q 329 537 345 589 q 289 410 313 485 q 250 294 264 334 q 212 184 233 248 q 192 107 192 121 q 205 90 192 90 q 298 149 231 90 q 309 156 302 151 q 318 163 315 161 m 421 720 l 385 720 q 281 846 298 825 q 243 889 263 867 q 189 945 224 910 l 195 956 q 330 956 245 954 q 337 936 336 940 q 343 918 338 932 q 366 861 350 901 q 401 772 382 820 q 421 720 420 724 z "},"î":{"ha":376,"x_min":71,"x_max":492,"o":"m 318 163 l 345 134 q 214 27 283 75 q 109 -20 146 -20 q 82 -8 94 -20 q 71 21 71 3 q 90 109 71 47 l 140 249 q 182 378 145 264 q 220 497 220 492 q 205 514 220 514 q 172 497 195 514 q 131 460 148 479 l 113 441 l 87 469 q 222 587 160 544 q 317 631 285 631 q 345 604 345 631 q 329 537 345 589 q 289 410 313 485 q 250 294 264 334 q 212 184 233 248 q 192 107 192 121 q 205 90 192 90 q 298 149 231 90 q 309 156 302 151 q 318 163 315 161 m 492 720 l 450 720 q 441 734 444 728 l 396 800 q 380 824 386 814 q 371 838 374 833 q 364 848 368 844 q 286 791 328 824 q 191 720 229 747 l 140 720 q 159 741 142 722 q 273 868 231 818 q 334 937 317 921 q 356 936 334 937 q 389 935 378 935 q 438 937 407 935 q 442 918 442 925 q 461 836 447 895 q 485 741 475 777 q 488 732 486 739 q 492 720 490 726 z "},"ï":{"ha":376,"x_min":71,"x_max":541,"o":"m 318 163 l 345 134 q 214 27 283 75 q 109 -20 146 -20 q 82 -8 94 -20 q 71 21 71 3 q 90 109 71 47 l 140 249 q 182 378 145 264 q 220 497 220 492 q 205 514 220 514 q 172 497 195 514 q 131 460 148 479 l 113 441 l 87 469 q 222 587 160 544 q 317 631 285 631 q 345 604 345 631 q 329 537 345 589 q 289 410 313 485 q 250 294 264 334 q 212 184 233 248 q 192 107 192 121 q 205 90 192 90 q 298 149 231 90 q 309 156 302 151 q 318 163 315 161 m 489 905 q 525 891 510 905 q 541 850 541 876 q 519 787 541 815 q 467 758 497 758 q 429 776 443 758 q 414 819 414 794 q 436 878 414 851 q 489 905 458 905 m 267 905 q 303 891 288 905 q 318 850 318 877 q 296 787 318 815 q 245 758 275 758 q 206 776 220 758 q 192 819 192 794 q 214 878 192 851 q 267 905 235 905 z "},"ñ":{"ha":708,"x_min":50,"x_max":725,"o":"m 668 163 l 694 135 q 566 27 629 73 q 456 -20 504 -20 q 427 -8 437 -20 q 418 17 418 4 q 434 93 418 41 q 488 257 450 144 q 545 427 527 369 q 564 510 564 484 q 558 529 564 522 q 543 536 552 536 q 495 518 526 536 q 429 468 465 499 q 349 387 394 437 q 271 285 298 330 q 225 192 243 240 q 178 52 207 143 q 161 0 165 9 q 50 -9 92 -1 q 96 132 62 26 q 110 178 100 144 q 123 221 121 212 q 189 432 178 387 q 200 490 200 468 q 187 507 200 507 q 138 480 171 507 q 92 437 105 452 l 68 468 q 142 541 109 513 q 209 590 175 568 q 267 621 243 611 q 298 631 290 631 q 319 622 310 630 q 328 600 328 614 q 297 476 328 560 q 233 311 267 392 l 236 309 q 348 451 289 383 q 482 575 407 519 q 624 631 557 631 q 682 574 682 631 q 669 511 682 549 q 640 415 667 502 q 603 296 612 329 q 576 214 593 264 q 555 151 560 164 q 550 117 550 135 q 564 96 550 96 q 668 163 589 96 m 683 916 l 725 916 q 659 790 694 827 q 594 753 623 753 q 494 794 567 753 q 412 829 430 829 q 333 753 372 829 l 292 753 q 419 916 349 916 q 457 909 441 916 q 529 869 473 902 q 610 839 588 839 q 649 859 633 839 q 683 916 665 879 z "},"ó":{"ha":608,"x_min":54,"x_max":612,"o":"m 54 199 q 90 368 54 288 q 182 507 125 448 q 306 599 240 567 q 429 631 372 631 q 535 590 498 631 q 586 498 573 550 q 599 403 599 447 q 565 240 599 316 q 473 104 530 163 q 348 13 415 45 q 221 -20 281 -20 q 94 48 134 -20 q 54 199 54 116 m 163 210 q 187 96 163 150 q 278 43 212 43 q 386 95 337 43 q 463 231 435 147 q 492 403 492 315 q 472 516 492 459 q 383 572 452 572 q 273 512 323 572 q 193 366 222 452 q 163 210 163 279 m 416 720 l 380 720 q 400 772 381 724 q 437 868 418 820 q 457 918 456 916 q 471 956 460 928 q 606 956 555 954 l 612 945 q 557 889 577 910 q 520 846 538 867 q 416 720 503 825 z "},"ò":{"ha":608,"x_min":54,"x_max":599,"o":"m 54 199 q 90 368 54 288 q 182 507 125 448 q 306 599 240 567 q 429 631 372 631 q 535 590 498 631 q 586 498 573 550 q 599 403 599 447 q 565 240 599 316 q 473 104 530 163 q 348 13 415 45 q 221 -20 281 -20 q 94 48 134 -20 q 54 199 54 116 m 163 210 q 187 96 163 150 q 278 43 212 43 q 386 95 337 43 q 463 231 435 147 q 492 403 492 315 q 472 516 492 459 q 383 572 452 572 q 273 512 323 572 q 193 366 222 452 q 163 210 163 279 m 538 720 l 502 720 q 397 846 415 825 q 360 889 380 867 q 306 945 340 910 l 311 956 q 446 956 362 954 q 454 936 452 940 q 460 918 455 932 q 483 861 467 901 q 518 772 499 820 q 538 720 536 724 z "},"ô":{"ha":608,"x_min":54,"x_max":608,"o":"m 54 199 q 90 368 54 288 q 182 507 125 448 q 306 599 240 567 q 429 631 372 631 q 535 590 498 631 q 586 498 573 550 q 599 403 599 447 q 565 240 599 316 q 473 104 530 163 q 348 13 415 45 q 221 -20 281 -20 q 94 48 134 -20 q 54 199 54 116 m 163 210 q 187 96 163 150 q 278 43 212 43 q 386 95 337 43 q 463 231 435 147 q 492 403 492 315 q 472 516 492 459 q 383 572 452 572 q 273 512 323 572 q 193 366 222 452 q 163 210 163 279 m 608 720 l 567 720 q 557 734 561 728 l 513 800 q 496 824 503 814 q 487 838 490 833 q 481 848 484 844 q 403 791 445 824 q 307 720 346 747 l 257 720 q 275 741 258 722 q 389 868 347 818 q 450 937 433 921 q 473 936 450 937 q 506 935 495 935 q 555 937 524 935 q 559 918 559 925 q 578 836 564 895 q 602 741 592 777 q 604 732 602 739 q 608 720 606 726 z "},"ö":{"ha":608,"x_min":54,"x_max":657,"o":"m 54 199 q 90 368 54 288 q 182 507 125 448 q 306 599 240 567 q 429 631 372 631 q 535 590 498 631 q 586 498 573 550 q 599 403 599 447 q 565 240 599 316 q 473 104 530 163 q 348 13 415 45 q 221 -20 281 -20 q 94 48 134 -20 q 54 199 54 116 m 163 210 q 187 96 163 150 q 278 43 212 43 q 386 95 337 43 q 463 231 435 147 q 492 403 492 315 q 472 516 492 459 q 383 572 452 572 q 273 512 323 572 q 193 366 222 452 q 163 210 163 279 m 606 905 q 642 891 627 905 q 657 850 657 876 q 635 787 657 815 q 584 758 614 758 q 545 776 559 758 q 531 819 531 794 q 553 878 531 851 q 606 905 574 905 m 384 905 q 419 891 404 905 q 435 850 435 877 q 413 787 435 815 q 361 758 391 758 q 323 776 337 758 q 309 819 309 794 q 330 878 309 851 q 384 905 352 905 z "},"õ":{"ha":608,"x_min":54,"x_max":675,"o":"m 54 199 q 90 368 54 288 q 182 507 125 448 q 306 599 240 567 q 429 631 372 631 q 535 590 498 631 q 586 498 573 550 q 599 403 599 447 q 565 240 599 316 q 473 104 530 163 q 348 13 415 45 q 221 -20 281 -20 q 94 48 134 -20 q 54 199 54 116 m 163 210 q 187 96 163 150 q 278 43 212 43 q 386 95 337 43 q 463 231 435 147 q 492 403 492 315 q 472 516 492 459 q 383 572 452 572 q 273 512 323 572 q 193 366 222 452 q 163 210 163 279 m 633 916 l 675 916 q 609 790 645 827 q 545 753 573 753 q 445 794 517 753 q 363 829 380 829 q 283 753 323 829 l 242 753 q 370 916 300 916 q 408 909 391 916 q 479 869 424 902 q 560 839 538 839 q 599 859 583 839 q 633 916 615 879 z "},"ú":{"ha":708,"x_min":65,"x_max":694,"o":"m 93 437 l 69 468 q 210 590 146 549 q 300 631 275 631 q 319 621 311 631 q 328 596 328 611 q 303 486 328 565 q 257 350 279 408 q 182 104 182 144 q 207 77 182 77 q 294 122 235 77 q 410 236 353 168 q 481 335 454 288 q 527 428 509 381 q 574 568 545 475 l 586 608 q 694 619 647 610 q 647 468 693 616 q 591 290 602 321 q 553 163 570 216 q 545 115 545 132 q 561 96 545 96 q 653 150 578 96 q 661 156 655 151 q 668 161 667 161 l 692 134 q 576 34 626 68 q 498 -10 526 0 q 454 -20 469 -20 q 431 -10 441 -20 q 421 14 421 -1 q 432 74 421 37 q 461 162 442 112 q 513 294 480 213 l 510 297 q 314 74 418 168 q 118 -20 210 -20 q 81 -6 98 -20 q 65 35 65 7 q 81 117 65 65 q 154 348 122 250 q 195 468 186 445 q 199 490 199 479 q 195 501 199 497 q 184 505 192 505 q 93 437 165 505 m 465 720 l 429 720 q 449 772 431 724 q 487 868 468 820 q 507 918 506 916 q 521 956 509 928 q 655 956 605 954 l 661 945 q 607 889 627 910 q 570 846 587 867 q 465 720 552 825 z "},"ù":{"ha":708,"x_min":65,"x_max":694,"o":"m 93 437 l 69 468 q 210 590 146 549 q 300 631 275 631 q 319 621 311 631 q 328 596 328 611 q 303 486 328 565 q 257 350 279 408 q 182 104 182 144 q 207 77 182 77 q 294 122 235 77 q 410 236 353 168 q 481 335 454 288 q 527 428 509 381 q 574 568 545 475 l 586 608 q 694 619 647 610 q 647 468 693 616 q 591 290 602 321 q 553 163 570 216 q 545 115 545 132 q 561 96 545 96 q 653 150 578 96 q 661 156 655 151 q 668 161 667 161 l 692 134 q 576 34 626 68 q 498 -10 526 0 q 454 -20 469 -20 q 431 -10 441 -20 q 421 14 421 -1 q 432 74 421 37 q 461 162 442 112 q 513 294 480 213 l 510 297 q 314 74 418 168 q 118 -20 210 -20 q 81 -6 98 -20 q 65 35 65 7 q 81 117 65 65 q 154 348 122 250 q 195 468 186 445 q 199 490 199 479 q 195 501 199 497 q 184 505 192 505 q 93 437 165 505 m 587 720 l 551 720 q 447 846 465 825 q 410 889 429 867 q 355 945 390 910 l 361 956 q 496 956 412 954 q 503 936 502 940 q 509 918 505 932 q 532 861 516 901 q 567 772 549 820 q 587 720 586 724 z "},"û":{"ha":708,"x_min":65,"x_max":694,"o":"m 93 437 l 69 468 q 210 590 146 549 q 300 631 275 631 q 319 621 311 631 q 328 596 328 611 q 303 486 328 565 q 257 350 279 408 q 182 104 182 144 q 207 77 182 77 q 294 122 235 77 q 410 236 353 168 q 481 335 454 288 q 527 428 509 381 q 574 568 545 475 l 586 608 q 694 619 647 610 q 647 468 693 616 q 591 290 602 321 q 553 163 570 216 q 545 115 545 132 q 561 96 545 96 q 653 150 578 96 q 661 156 655 151 q 668 161 667 161 l 692 134 q 576 34 626 68 q 498 -10 526 0 q 454 -20 469 -20 q 431 -10 441 -20 q 421 14 421 -1 q 432 74 421 37 q 461 162 442 112 q 513 294 480 213 l 510 297 q 314 74 418 168 q 118 -20 210 -20 q 81 -6 98 -20 q 65 35 65 7 q 81 117 65 65 q 154 348 122 250 q 195 468 186 445 q 199 490 199 479 q 195 501 199 497 q 184 505 192 505 q 93 437 165 505 m 658 720 l 616 720 q 607 734 610 728 l 562 800 q 546 824 552 814 q 537 838 540 833 q 530 848 534 844 q 452 791 494 824 q 357 720 395 747 l 307 720 q 325 741 308 722 q 439 868 397 818 q 500 937 483 921 q 522 936 500 937 q 555 935 545 935 q 604 937 573 935 q 608 918 608 925 q 627 836 613 895 q 651 741 642 777 q 654 732 652 739 q 658 720 656 726 z "},"ü":{"ha":708,"x_min":65,"x_max":707,"o":"m 93 437 l 69 468 q 210 590 146 549 q 300 631 275 631 q 319 621 311 631 q 328 596 328 611 q 303 486 328 565 q 257 350 279 408 q 182 104 182 144 q 207 77 182 77 q 294 122 235 77 q 410 236 353 168 q 481 335 454 288 q 527 428 509 381 q 574 568 545 475 l 586 608 q 694 619 647 610 q 647 468 693 616 q 591 290 602 321 q 553 163 570 216 q 545 115 545 132 q 561 96 545 96 q 653 150 578 96 q 661 156 655 151 q 668 161 667 161 l 692 134 q 576 34 626 68 q 498 -10 526 0 q 454 -20 469 -20 q 431 -10 441 -20 q 421 14 421 -1 q 432 74 421 37 q 461 162 442 112 q 513 294 480 213 l 510 297 q 314 74 418 168 q 118 -20 210 -20 q 81 -6 98 -20 q 65 35 65 7 q 81 117 65 65 q 154 348 122 250 q 195 468 186 445 q 199 490 199 479 q 195 501 199 497 q 184 505 192 505 q 93 437 165 505 m 655 905 q 691 891 676 905 q 707 850 707 876 q 685 787 707 815 q 633 758 663 758 q 595 776 609 758 q 581 819 581 794 q 602 878 581 851 q 655 905 624 905 m 433 905 q 469 891 454 905 q 484 850 484 877 q 463 787 484 815 q 411 758 441 758 q 372 776 387 758 q 358 819 358 794 q 380 878 358 851 q 433 905 401 905 z "},"†":{"ha":593,"x_min":74,"x_max":685,"o":"m 439 989 l 576 989 q 563 958 572 977 q 551 932 554 939 q 511 840 527 876 q 472 749 494 803 q 439 669 444 680 l 469 673 q 564 688 522 684 l 624 699 q 655 703 642 701 q 685 708 669 705 l 654 591 q 587 605 627 598 q 520 616 547 612 q 476 623 494 620 q 454 625 458 625 q 443 627 452 626 q 432 629 433 629 q 421 588 423 597 q 413 557 418 578 q 404 518 408 535 q 385 437 400 501 l 334 224 q 273 -26 296 75 q 225 -248 229 -227 l 214 -292 l 74 -292 q 160 -40 98 -227 l 241 207 q 257 254 250 232 q 301 390 264 275 q 348 536 338 504 q 367 597 358 568 q 375 629 375 622 q 136 591 293 624 l 168 708 q 193 704 180 704 q 393 669 354 675 q 410 780 399 707 q 426 895 420 854 q 439 989 431 935 z "},"°":{"ha":550,"x_min":201,"x_max":618,"o":"m 410 956 q 491 940 454 956 q 557 895 528 924 q 602 829 587 866 q 618 747 618 791 q 590 643 618 691 q 514 567 562 595 q 410 539 466 539 q 306 567 355 539 q 230 643 258 595 q 201 747 201 690 q 230 851 201 804 q 306 927 258 899 q 410 956 354 956 m 410 899 q 335 879 370 899 q 279 824 300 859 q 258 747 258 789 q 278 672 258 707 q 333 616 298 637 q 410 596 368 596 q 485 616 450 596 q 541 672 520 637 q 561 747 561 707 q 540 824 561 789 q 485 879 519 859 q 410 899 450 899 z "},"¢":{"ha":492,"x_min":90,"x_max":615,"o":"m 574 647 l 534 647 q 511 719 528 688 q 449 753 494 750 l 301 249 q 377 284 332 255 q 473 361 422 313 l 509 328 q 397 231 450 269 q 279 172 345 192 l 222 -24 l 170 -24 l 224 164 q 124 219 159 166 q 90 339 90 271 q 116 492 90 416 q 188 630 142 568 q 292 738 233 693 q 410 802 351 783 l 453 949 l 505 949 l 465 812 q 549 806 514 816 q 615 778 584 795 q 589 707 596 730 q 574 647 582 684 m 250 254 l 392 742 q 307 670 352 722 q 233 541 262 618 q 203 379 203 464 q 250 254 203 278 z "},"£":{"ha":694,"x_min":16,"x_max":799,"o":"m 741 768 l 700 774 q 604 901 705 901 q 477 796 512 901 q 433 542 443 690 q 509 542 481 541 q 599 546 536 543 l 606 533 q 567 479 583 509 q 427 484 488 484 q 409 351 422 409 q 374 256 395 294 q 318 186 352 219 q 231 114 285 154 q 214 101 226 109 q 199 93 201 93 l 201 90 q 319 127 286 127 q 353 122 337 127 q 418 96 369 116 q 486 78 460 78 q 547 97 519 78 q 619 157 576 115 l 650 126 q 545 20 597 64 q 441 -24 492 -24 q 397 -18 418 -24 q 323 11 376 -12 q 221 40 261 40 q 40 -25 143 40 l 16 18 q 39 33 37 33 q 192 151 138 100 q 278 279 245 201 q 319 484 311 357 q 189 479 229 484 l 184 492 q 218 545 201 513 q 319 542 257 542 q 334 684 326 631 q 368 786 343 738 q 441 878 393 834 q 534 934 483 914 q 636 954 585 954 q 799 895 722 954 q 763 828 771 845 q 741 768 755 811 z "},"§":{"ha":550,"x_min":-43,"x_max":654,"o":"m 591 799 l 551 804 q 554 836 554 812 q 530 907 554 878 q 452 937 505 937 q 363 900 395 937 q 332 821 332 863 q 350 736 332 783 q 429 593 368 690 q 515 431 484 509 q 533 345 533 391 q 492 219 533 287 q 318 96 451 151 q 363 15 343 58 q 383 -72 383 -28 q 350 -175 383 -123 q 261 -259 317 -226 q 139 -292 205 -292 q -43 -214 37 -292 q -1 -158 -23 -190 q 37 -102 22 -126 l 62 -113 q 98 -211 55 -188 q 172 -235 140 -235 q 230 -217 206 -235 q 267 -174 254 -200 q 279 -122 279 -148 q 180 114 279 -43 q 97 268 117 216 q 78 363 78 319 q 297 596 78 519 q 248 692 264 652 q 231 778 231 732 q 269 886 231 838 q 366 961 307 934 q 484 989 425 989 q 584 970 543 989 q 654 925 624 951 q 620 867 630 887 q 591 799 610 847 m 321 555 q 219 500 260 532 q 178 403 178 468 q 188 348 178 379 q 220 272 198 316 q 261 195 242 227 q 296 136 280 162 q 401 215 370 172 q 433 301 433 258 q 404 412 433 351 q 321 555 374 473 z "},"•":{"ha":492,"x_min":158,"x_max":498,"o":"m 498 460 q 476 374 498 414 q 414 312 453 335 q 329 289 376 289 q 208 339 258 289 q 158 460 158 389 q 208 580 158 530 q 329 629 258 629 q 414 606 376 629 q 476 545 453 583 q 498 460 498 506 z "},"¶":{"ha":623,"x_min":40,"x_max":681,"o":"m 590 882 l 590 -300 l 542 -300 l 542 882 l 415 882 l 415 -300 l 366 -300 l 366 408 q 115 478 186 414 q 58 565 75 514 q 40 665 40 616 q 74 796 40 739 q 176 887 107 854 q 345 920 244 920 l 681 920 l 681 882 l 590 882 z "},"ß":{"ha":636,"x_min":-233,"x_max":699,"o":"m 110 551 l 117 583 q 216 619 172 601 q 245 725 236 693 q 271 788 255 756 q 307 845 286 820 q 361 897 328 870 q 575 989 474 989 q 672 954 646 989 q 699 882 699 918 q 673 794 699 836 q 614 721 647 751 q 559 676 581 691 q 475 603 495 628 q 454 555 454 577 q 530 392 454 522 q 589 269 572 318 q 600 205 600 235 q 584 132 600 172 q 537 58 568 93 q 458 2 505 23 q 355 -20 411 -20 q 216 24 281 -20 q 253 86 242 66 q 277 143 263 106 l 294 143 q 306 91 299 111 q 333 55 312 71 q 392 39 353 39 q 477 75 451 39 q 504 153 504 112 q 490 224 504 185 q 441 319 476 263 q 379 437 393 400 q 364 496 364 473 q 372 541 364 520 q 406 595 379 562 q 485 682 432 629 q 558 768 522 720 q 595 864 595 817 q 578 915 595 895 q 528 935 562 935 q 446 899 486 935 q 376 786 406 863 q 354 721 366 758 q 324 617 343 684 q 280 455 305 549 q 203 171 254 360 q 192 129 197 142 q 142 -37 163 22 q 96 -135 121 -97 q 40 -203 72 -174 q -54 -267 -4 -243 q -140 -292 -103 -292 q -233 -256 -180 -292 q -183 -165 -206 -218 l -167 -165 q -134 -204 -151 -191 q -82 -218 -118 -218 q -7 -176 -37 -218 q 49 -44 22 -134 q 126 252 76 45 q 168 422 159 385 q 182 480 177 459 q 192 517 188 502 q 195 529 193 524 q 197 538 196 535 q 200 548 198 542 q 201 555 201 555 q 110 551 163 557 z "},"®":{"ha":1055,"x_min":127,"x_max":1090,"o":"m 343 755 l 604 755 q 753 713 699 755 q 807 604 807 671 q 656 453 807 492 l 798 252 q 841 204 824 214 q 879 192 859 193 l 879 168 l 755 168 l 555 443 l 504 443 l 504 283 q 507 223 504 236 q 524 201 509 211 q 583 192 538 192 l 583 168 l 335 168 l 335 192 q 395 210 384 192 q 406 285 406 229 l 406 639 q 396 714 406 696 q 343 732 387 731 l 343 755 m 504 715 l 504 472 l 524 472 q 644 499 591 472 q 697 596 697 526 q 681 660 697 631 q 633 707 664 689 q 561 725 602 725 q 504 715 531 725 m 608 940 q 849 876 737 940 q 1025 702 960 812 q 1090 460 1090 591 q 1026 219 1090 330 q 850 44 961 109 q 608 -21 739 -21 q 368 44 478 -21 q 192 219 257 109 q 127 460 127 330 q 193 702 127 591 q 369 876 258 812 q 608 940 480 940 m 608 899 q 389 840 490 899 q 229 681 288 781 q 170 460 170 580 q 229 239 170 340 q 389 80 288 138 q 608 21 491 21 q 828 80 726 21 q 989 239 930 138 q 1048 460 1048 340 q 1015 630 1048 550 q 919 771 981 710 q 777 865 858 832 q 608 899 696 899 z "},"©":{"ha":1055,"x_min":127,"x_max":1090,"o":"m 847 770 l 860 579 l 833 579 q 773 688 818 637 q 628 739 728 739 q 515 709 564 739 q 438 618 466 678 q 411 475 411 557 q 423 365 411 425 q 485 251 435 305 q 635 196 534 196 q 847 306 766 196 l 872 292 q 760 188 823 222 q 612 154 696 154 q 484 178 541 154 q 384 246 427 202 q 320 342 342 290 q 298 456 298 395 q 322 574 298 517 q 390 675 346 631 q 498 745 435 720 q 636 770 562 770 q 690 765 669 770 q 761 745 711 760 q 786 739 777 739 q 819 770 808 739 l 847 770 m 608 940 q 849 876 737 940 q 1025 702 960 812 q 1090 460 1090 591 q 1026 219 1090 330 q 850 44 961 109 q 608 -21 739 -21 q 368 44 478 -21 q 192 219 257 109 q 127 460 127 330 q 193 702 127 591 q 369 876 258 812 q 608 940 480 940 m 608 899 q 389 840 490 899 q 229 681 288 781 q 170 460 170 580 q 229 239 170 340 q 389 80 288 138 q 608 21 491 21 q 828 80 726 21 q 989 239 930 138 q 1048 460 1048 340 q 1015 630 1048 550 q 919 771 981 710 q 777 865 858 832 q 608 899 696 899 z "},"™":{"ha":1360,"x_min":102,"x_max":1419,"o":"m 117 989 l 610 989 l 625 852 l 602 852 q 559 931 593 913 q 469 949 525 949 l 419 949 l 419 555 q 424 500 419 519 q 444 474 429 481 q 492 465 458 467 l 492 441 l 237 441 l 237 465 q 294 485 282 471 q 306 554 306 499 l 306 949 l 253 949 q 161 926 186 949 q 125 852 135 903 l 102 852 l 117 989 m 865 989 l 1051 602 l 1231 989 l 1419 989 l 1419 964 q 1369 956 1383 962 q 1349 932 1354 949 q 1344 872 1344 915 l 1344 555 q 1356 484 1344 500 q 1419 465 1368 468 l 1419 441 l 1150 441 l 1150 465 q 1217 484 1202 467 q 1231 554 1231 500 l 1231 888 l 1227 888 l 1022 441 l 1000 441 l 794 882 l 791 882 l 791 555 q 801 486 791 506 q 854 465 811 465 l 879 465 l 879 441 l 671 441 l 671 465 q 722 473 706 467 q 744 497 739 480 q 749 554 749 515 l 749 871 q 745 930 749 913 q 724 956 741 947 q 671 964 708 964 l 671 989 l 865 989 z "},"´":{"ha":463,"x_min":306,"x_max":538,"o":"m 342 720 l 306 720 q 326 772 307 724 q 363 868 345 820 q 383 918 382 916 q 397 956 386 928 q 532 956 481 954 l 538 945 q 484 889 503 910 q 446 846 464 867 q 342 720 429 825 z "},"¨":{"ha":463,"x_min":235,"x_max":583,"o":"m 532 905 q 568 891 553 905 q 583 850 583 876 q 562 787 583 815 q 510 758 540 758 q 471 776 486 758 q 457 819 457 794 q 479 878 457 851 q 532 905 500 905 m 310 905 q 346 891 330 905 q 361 850 361 877 q 339 787 361 815 q 288 758 317 758 q 249 776 263 758 q 235 819 235 794 q 256 878 235 851 q 310 905 278 905 z "},"≠":{"ha":926,"x_min":94,"x_max":831,"o":"m 94 566 l 94 654 l 502 654 l 644 1014 l 718 1014 l 581 654 l 831 654 l 831 566 l 545 566 l 456 337 l 831 337 l 831 248 l 421 248 l 279 -111 l 203 -111 l 345 248 l 94 248 l 94 337 l 379 337 l 468 566 l 94 566 z "},"Æ":{"ha":1375,"x_min":-53,"x_max":1451,"o":"m 657 899 l 668 939 q 1051 930 871 930 q 1451 939 1106 930 q 1420 833 1426 856 q 1396 726 1415 810 q 1392 704 1396 716 l 1344 710 q 1344 719 1344 715 q 1345 733 1345 723 q 1347 755 1346 743 q 1348 791 1347 768 q 1342 849 1350 833 q 1320 869 1335 865 q 1251 872 1314 871 q 1139 873 1187 873 l 1029 873 l 1010 812 q 937 578 952 627 q 928 547 932 561 q 920 518 924 532 l 1051 518 q 1119 524 1099 518 q 1153 549 1139 530 q 1197 627 1166 568 q 1202 638 1199 632 q 1207 646 1206 644 l 1250 646 q 1237 605 1245 631 q 1223 559 1230 578 q 1203 492 1212 521 q 1183 423 1195 464 q 1160 335 1172 382 q 1154 313 1154 316 l 1109 313 q 1118 419 1109 307 q 1089 454 1122 448 q 1011 460 1060 458 q 904 461 962 461 q 867 329 880 378 q 850 268 854 279 l 799 82 q 797 70 799 80 q 794 62 794 60 l 1076 62 q 1133 65 1114 62 q 1172 83 1152 68 q 1216 132 1192 98 q 1267 218 1240 167 q 1282 248 1280 241 l 1333 248 q 1322 220 1329 233 q 1253 14 1289 127 l 1244 -7 q 1013 -1 1190 -4 q 829 0 929 0 q 515 -7 675 0 l 525 33 q 636 58 633 57 q 679 114 663 67 q 734 294 694 157 q 740 311 736 302 q 745 326 743 320 l 408 326 q 359 273 392 310 q 268 172 280 184 q 243 145 267 172 q 203 96 220 118 q 186 65 186 74 q 191 54 186 58 q 211 46 195 50 q 258 36 227 43 q 273 33 269 33 l 262 -7 q 201 -3 245 -5 q 111 0 149 0 q -53 -7 66 0 l -41 33 q 24 49 1 40 q 72 80 46 58 q 151 157 98 102 q 281 292 224 232 q 451 475 337 352 q 656 700 565 599 q 758 812 748 801 q 783 852 783 840 q 757 873 783 865 q 682 893 730 882 q 657 899 668 893 m 762 390 q 899 871 829 597 l 896 873 q 869 843 885 861 q 841 810 853 825 q 813 779 828 795 q 757 717 799 763 q 503 433 663 614 q 483 412 495 426 q 464 390 471 397 q 543 389 494 389 q 653 389 592 389 q 762 390 715 389 z "},"Ø":{"ha":956,"x_min":17,"x_max":1092,"o":"m 179 77 l 60 -33 l 17 11 l 147 131 q 113 313 113 211 q 160 545 113 429 q 290 755 207 661 q 479 904 373 849 q 700 958 585 958 q 785 949 744 958 q 865 916 826 939 q 935 848 903 892 l 1050 956 l 1092 908 l 965 794 q 994 625 994 724 q 945 371 994 490 q 810 162 895 252 q 618 22 725 72 q 400 -28 512 -28 q 179 77 250 -28 m 857 694 l 278 167 q 338 88 304 115 q 402 53 372 60 q 465 45 433 45 q 618 96 545 45 q 746 233 691 147 q 832 420 802 319 q 863 618 863 520 q 862 649 863 633 q 860 675 861 666 q 857 694 859 684 m 256 229 l 839 762 q 657 895 783 895 q 505 845 579 895 q 371 710 430 795 q 279 522 312 625 q 245 318 245 420 q 256 229 245 275 z "},"∞":{"ha":990,"x_min":35,"x_max":966,"o":"m 500 412 q 575 478 551 458 q 624 514 600 498 q 680 543 649 530 q 777 562 728 565 q 865 534 825 559 q 931 471 906 509 q 960 387 956 432 q 940 282 966 334 q 866 199 915 231 q 756 174 817 168 q 665 197 709 178 q 591 238 622 216 q 532 290 561 261 q 500 321 503 319 q 462 283 484 304 q 410 238 440 261 q 337 197 380 216 q 245 174 294 178 q 135 199 184 168 q 61 282 86 231 q 41 387 35 334 q 71 471 45 433 q 136 534 96 510 q 225 562 177 559 q 321 543 273 565 q 377 514 352 530 q 426 478 401 498 q 500 412 450 458 m 455 367 q 359 443 395 418 q 290 479 323 468 q 215 488 248 494 q 157 460 181 481 q 122 412 134 439 q 111 359 111 385 q 136 291 111 321 q 197 247 160 260 q 271 243 235 234 q 355 277 326 256 q 455 367 385 298 m 547 367 q 618 299 593 321 q 667 264 643 277 q 730 243 692 252 q 804 247 767 234 q 866 291 842 260 q 891 359 890 321 q 871 429 892 393 q 809 482 850 465 q 711 479 768 498 q 642 442 677 467 q 547 367 606 416 z "},"±":{"ha":926,"x_min":168,"x_max":905,"o":"m 168 61 l 905 61 l 905 -28 l 168 -28 l 168 61 m 168 610 l 492 610 l 492 935 l 581 935 l 581 610 l 905 610 l 905 521 l 581 521 l 581 197 l 492 197 l 492 521 l 168 521 l 168 610 z "},"≤":{"ha":926,"x_min":94,"x_max":832,"o":"m 94 -31 l 94 59 l 832 59 l 832 -31 l 94 -31 m 94 549 l 95 629 l 832 939 l 832 842 l 214 589 l 832 335 l 832 239 l 94 549 z "},"≥":{"ha":926,"x_min":94,"x_max":832,"o":"m 94 59 l 832 59 l 832 -31 l 94 -31 l 94 59 m 94 939 l 831 629 l 832 549 l 94 239 l 94 335 l 711 589 l 94 842 l 94 939 z "},"¥":{"ha":882,"x_min":97,"x_max":1095,"o":"m 583 498 l 806 783 q 826 812 814 795 q 847 842 839 829 q 856 860 856 854 q 844 877 856 872 q 786 893 832 882 q 768 899 772 897 l 778 939 q 857 932 829 935 q 932 930 884 930 q 1095 939 1016 930 l 1082 897 q 1023 886 1042 891 q 982 865 1004 880 q 929 816 960 850 q 857 730 899 783 q 808 670 854 725 q 718 559 762 614 q 668 498 674 505 l 975 498 l 956 440 l 623 440 l 606 418 l 571 302 l 920 302 l 900 244 l 555 244 l 519 113 q 516 69 511 80 q 549 54 522 58 q 628 39 609 43 q 657 33 644 33 l 646 -7 q 572 -3 616 -5 q 460 0 514 0 q 211 -7 383 0 l 222 33 q 229 34 223 33 q 241 36 235 35 q 249 37 248 37 q 334 55 312 50 q 365 70 355 61 q 382 100 374 79 l 432 244 l 97 244 l 117 302 l 447 302 l 490 440 l 153 440 l 172 498 l 468 498 q 449 558 462 520 q 432 610 436 597 q 421 641 430 616 q 412 668 413 666 l 392 730 q 366 806 383 759 q 340 863 348 854 q 312 878 330 872 q 243 893 294 883 q 222 899 227 897 l 235 939 q 412 930 347 930 q 637 939 507 930 l 628 899 q 602 892 614 894 q 557 880 584 888 q 516 867 530 872 q 497 859 503 863 q 486 835 486 851 q 490 814 486 829 q 500 774 493 799 q 510 739 507 749 l 583 498 z "},"µ":{"ha":694,"x_min":-83,"x_max":668,"o":"m 195 597 l 298 597 l 199 252 q 197 247 198 251 q 193 236 196 243 q 191 224 192 229 q 189 218 189 220 q 170 127 170 150 q 182 75 170 102 q 237 47 195 47 q 310 70 271 47 q 392 158 349 93 q 469 340 435 222 l 545 597 l 647 597 l 534 205 q 528 184 534 204 q 511 104 511 136 q 518 69 511 87 q 550 50 525 50 q 601 77 578 50 q 643 146 623 103 l 668 146 q 636 70 652 99 q 586 16 620 41 q 540 -8 565 0 q 496 -17 515 -17 q 440 4 473 -17 q 407 86 407 25 q 411 135 407 110 l 408 138 q 333 49 374 85 q 257 -2 292 13 q 193 -17 221 -17 q 122 2 144 -17 q 82 57 100 22 q 63 -13 67 5 q 55 -53 58 -30 q 46 -124 51 -75 q 40 -184 41 -172 q -33 -298 30 -298 q -74 -279 -64 -298 q -83 -244 -83 -259 q -75 -205 -83 -229 q -32 -119 -66 -182 q 46 87 12 -35 l 64 146 l 195 597 z "},"∂":{"ha":686,"x_min":36,"x_max":646,"o":"m 149 926 l 95 996 q 215 1031 146 1019 q 347 1028 283 1043 q 474 968 416 1012 q 580 842 533 924 q 623 730 608 792 q 642 622 638 669 q 646 546 646 574 q 640 449 646 514 q 616 310 633 384 q 574 182 600 235 q 512 73 542 113 q 430 4 483 34 q 289 -29 361 -34 q 159 16 216 -24 q 104 63 128 37 q 63 129 81 90 q 42 216 46 168 q 60 355 36 292 q 119 460 85 418 q 205 534 158 508 q 316 558 253 560 q 416 537 376 556 q 524 464 456 518 q 539 625 536 531 q 526 740 541 669 q 495 846 511 810 q 438 925 479 886 q 340 970 397 965 q 279 972 302 973 q 241 966 256 970 q 197 948 225 961 q 149 926 170 935 m 513 415 q 445 483 473 460 q 363 504 416 505 q 230 429 283 502 q 188 354 202 390 q 166 282 173 319 q 160 205 160 245 q 172 107 160 155 q 224 32 184 60 q 281 12 254 13 q 340 25 308 12 q 452 154 410 56 q 491 280 476 214 q 513 415 505 347 z "},"∑":{"ha":990,"x_min":20,"x_max":965,"o":"m 857 1035 l 865 814 l 838 814 q 803 908 816 883 q 750 953 791 933 q 625 972 709 972 l 260 972 l 639 475 l 231 4 l 746 4 q 833 17 802 4 q 885 62 863 31 q 933 161 907 94 l 965 161 q 927 -5 935 36 q 905 -150 920 -45 q 851 -140 879 -145 q 799 -135 823 -135 l 100 -135 q 75 -136 90 -135 q 44 -138 60 -137 q 20 -139 29 -139 l 504 414 l 22 1044 q 94 1039 44 1043 q 167 1035 143 1035 l 857 1035 z "},"∏":{"ha":1143,"x_min":35,"x_max":1116,"o":"m 981 873 l 981 4 q 997 -67 981 -43 q 1042 -100 1013 -92 q 1116 -109 1072 -109 l 1116 -140 l 690 -140 l 690 -109 q 791 -86 758 -109 q 823 4 823 -64 l 823 966 l 326 966 l 326 4 q 342 -67 326 -43 q 388 -100 358 -92 q 461 -109 417 -109 l 461 -140 l 35 -140 l 35 -109 q 137 -86 104 -109 q 170 4 170 -64 l 170 873 q 37 1011 170 1011 l 37 1043 l 1111 1043 l 1111 1011 q 981 873 981 1011 z "},"π":{"ha":762,"x_min":14,"x_max":736,"o":"m 465 557 l 309 557 q 286 333 297 420 q 265 183 275 246 q 244 69 255 121 q 218 6 235 29 q 168 -25 201 -16 q 114 -14 141 -32 q 82 28 87 3 q 80 59 78 46 q 87 82 82 71 q 100 102 93 93 q 114 119 106 111 q 137 147 116 122 q 170 193 159 172 q 183 239 180 214 l 224 557 l 158 557 q 105 544 130 557 q 66 513 80 530 l 37 469 l 14 469 q 37 533 23 496 q 77 604 52 570 q 130 655 96 633 q 207 676 163 676 l 725 676 l 725 557 l 550 557 q 533 231 533 395 q 543 172 533 201 q 568 129 553 144 q 615 106 587 111 q 671 123 642 101 q 693 151 686 136 q 703 181 701 167 q 707 210 705 195 l 736 210 q 719 108 735 153 q 680 36 703 63 q 636 -4 658 8 q 579 -22 612 -19 q 519 -7 547 -25 q 452 96 475 26 q 437 203 439 136 q 441 334 435 270 l 465 557 z "},"∫":{"ha":380,"x_min":3,"x_max":414,"o":"m 268 677 l 267 378 q 219 -29 265 131 q 179 -114 205 -81 q 128 -142 168 -129 q 57 -142 88 -156 q 29 -117 42 -134 q 11 -87 16 -100 q 11 -43 3 -64 q 44 -11 19 -23 q 85 -7 67 1 q 123 -39 103 -16 q 156 -41 143 -59 q 175 15 170 -24 q 179 103 180 53 q 176 199 178 155 q 174 280 175 243 q 172 390 172 317 q 171 539 171 464 l 171 739 q 172 869 171 800 q 177 992 174 939 q 188 1087 181 1046 q 207 1169 195 1128 q 232 1220 214 1192 q 269 1260 251 1249 q 308 1272 287 1271 q 348 1266 328 1273 q 378 1253 368 1259 q 405 1212 396 1241 q 396 1160 414 1183 q 367 1140 386 1147 q 329 1134 348 1132 q 297 1150 310 1136 q 270 1166 282 1165 q 250 1159 257 1168 q 241 1136 243 1149 q 243 1094 241 1118 q 252 976 245 1069 q 264 811 260 884 q 268 677 268 739 z "},"ª":{"ha":406,"x_min":140,"x_max":539,"o":"m 514 689 l 536 663 q 478 616 510 639 q 420 580 447 593 q 380 567 393 567 q 353 595 353 567 q 370 660 353 614 l 367 663 q 221 567 279 567 q 163 596 186 567 q 140 671 140 625 q 182 809 140 743 q 294 917 224 876 q 443 958 365 958 q 534 953 480 958 l 539 936 q 464 737 494 853 l 446 676 q 441 661 441 664 q 453 648 441 648 q 464 653 456 648 q 485 667 472 658 q 498 677 497 677 q 514 689 509 686 m 440 905 q 397 916 413 916 q 314 881 354 916 q 251 791 275 846 q 228 685 228 737 q 256 627 228 627 q 304 654 271 627 q 364 718 338 682 q 384 751 376 736 q 401 792 391 766 q 440 905 410 819 z "},"º":{"ha":433,"x_min":201,"x_max":567,"o":"m 201 700 q 240 830 201 770 q 337 924 279 889 q 449 958 395 958 q 542 913 517 958 q 567 821 567 869 q 544 722 567 768 q 483 641 521 675 q 400 586 444 606 q 315 567 356 567 q 229 608 257 567 q 201 700 201 648 m 288 707 q 301 643 288 673 q 353 612 314 612 q 417 643 387 612 q 465 721 447 673 q 482 818 482 768 q 463 893 482 872 q 421 914 443 914 q 357 881 387 914 q 307 799 326 848 q 288 707 288 749 z "},"Ω":{"ha":1067,"x_min":47,"x_max":1022,"o":"m 435 211 l 457 0 l 47 0 l 47 225 l 68 225 q 99 156 81 172 q 160 140 116 140 l 379 140 l 376 179 q 278 215 316 197 q 205 262 239 233 q 144 330 172 290 q 83 474 98 400 q 80 618 68 549 q 122 741 92 688 q 194 836 157 805 q 281 895 231 866 q 396 939 328 922 q 534 956 464 956 q 674 939 606 956 q 789 895 742 922 q 875 836 838 866 q 947 741 911 806 q 989 618 977 688 q 986 474 1001 549 q 925 330 972 400 q 832 238 884 271 q 693 179 779 205 l 690 140 l 909 140 q 971 157 954 140 q 1002 225 989 174 l 1022 225 l 1022 0 l 612 0 l 635 211 q 672 228 652 218 q 714 252 693 237 q 758 296 735 267 q 799 370 780 326 q 831 516 824 428 q 816 693 838 604 q 736 839 793 782 q 534 911 664 911 q 334 839 405 911 q 254 693 276 782 q 238 516 231 604 q 271 370 245 428 q 312 296 290 326 q 355 252 334 267 q 397 227 377 236 q 435 211 416 218 z "},"æ":{"ha":868,"x_min":43,"x_max":909,"o":"m 786 157 l 812 118 q 669 17 732 54 q 541 -20 606 -20 q 459 14 487 -20 q 424 87 432 47 q 414 167 415 127 q 273 30 334 79 q 153 -20 213 -20 q 66 38 90 -20 q 43 149 43 96 q 75 310 43 227 q 169 466 108 394 q 310 581 229 538 q 484 624 391 624 q 546 620 519 624 q 624 610 573 616 l 631 595 q 602 532 616 567 l 604 529 q 695 598 640 565 q 817 631 749 631 q 909 549 909 631 q 880 453 909 506 q 764 352 850 401 q 525 281 679 302 q 515 193 515 239 q 539 92 515 122 q 595 62 563 62 q 689 90 642 62 q 786 157 736 118 m 517 542 q 477 562 496 555 q 429 568 458 568 q 316 531 368 568 q 229 435 265 494 q 173 305 193 375 q 154 174 154 235 q 211 66 154 66 q 332 146 252 66 q 399 225 375 190 q 452 337 423 260 q 517 542 481 414 m 538 328 q 701 377 639 340 q 787 458 762 415 q 811 532 811 501 q 796 567 811 558 q 766 576 781 576 q 710 559 741 576 q 645 509 678 542 q 584 430 611 475 q 538 328 556 384 z "},"ø":{"ha":608,"x_min":-18,"x_max":669,"o":"m 94 47 l 14 -28 l -18 7 l 71 93 q 54 203 54 152 q 89 367 54 290 q 181 504 123 444 q 304 597 239 564 q 429 631 369 631 q 558 559 517 631 l 633 632 l 669 597 l 582 513 q 599 403 599 463 q 565 240 599 316 q 473 104 530 163 q 348 13 415 45 q 221 -20 281 -20 q 149 -4 178 -20 q 94 47 120 11 m 492 427 l 175 125 q 278 43 205 43 q 366 77 325 43 q 437 168 408 111 q 481 294 467 226 q 492 427 496 361 m 164 182 l 482 488 q 441 553 469 534 q 383 572 414 572 q 292 533 334 572 q 219 431 250 493 q 175 300 189 369 q 164 182 160 231 z "},"¿":{"ha":550,"x_min":-8,"x_max":484,"o":"m 358 -144 l 400 -144 q 361 -288 373 -239 q 168 -347 269 -347 q 43 -306 94 -347 q -8 -191 -8 -265 q 8 -107 -8 -147 q 57 -26 25 -66 q 140 65 90 14 q 282 228 241 168 q 354 378 322 289 l 404 378 q 337 204 380 277 q 232 53 294 130 q 131 -84 158 -39 q 104 -178 104 -128 q 134 -248 104 -224 q 203 -272 163 -272 q 358 -144 298 -272 m 484 570 q 456 494 484 517 q 401 471 429 471 q 360 489 378 471 q 343 533 343 507 q 366 600 343 568 q 424 631 388 631 q 470 611 456 631 q 484 570 484 591 z "},"¡":{"ha":361,"x_min":-37,"x_max":364,"o":"m 211 351 l 265 351 q 231 203 264 346 q 169 -67 197 60 q 121 -300 140 -195 q 50 -318 78 -309 q -22 -347 21 -328 l -37 -334 q 34 -144 -9 -260 q 127 110 77 -28 q 200 315 178 249 l 211 351 m 364 570 q 336 494 364 517 q 281 471 309 471 q 240 489 257 471 q 222 533 222 507 q 245 599 222 568 q 301 631 269 631 q 351 609 337 631 q 364 570 364 587 z "},"¬":{"ha":926,"x_min":168,"x_max":905,"o":"m 168 648 l 905 648 l 905 249 l 817 249 l 817 559 l 168 559 l 168 648 z "},"√":{"ha":762,"x_min":14,"x_max":715,"o":"m 36 579 l 14 625 l 216 725 l 490 165 l 667 1274 l 715 1267 l 507 -53 l 170 644 l 36 579 z "},"ƒ":{"ha":708,"x_min":0,"x_max":708,"o":"m 575 612 l 581 599 q 549 547 557 568 q 416 553 467 553 l 340 93 q 303 -59 330 27 q 231 -207 275 -146 q 172 -265 208 -238 q 92 -292 135 -292 q 40 -283 58 -292 q 0 -257 22 -274 q 52 -170 37 -206 l 65 -170 q 99 -206 78 -193 q 139 -220 121 -220 q 189 -186 172 -220 q 222 -28 207 -142 l 302 553 l 215 550 l 222 585 q 313 615 260 591 q 317 644 313 616 q 353 806 330 743 q 433 920 375 869 q 595 989 513 989 q 708 958 653 989 q 672 843 693 922 l 637 843 q 616 914 631 886 q 559 942 601 942 q 498 908 520 942 q 461 803 475 873 q 441 704 450 735 q 439 688 439 693 l 427 611 q 575 612 529 611 z "},"≈":{"ha":926,"x_min":97,"x_max":829,"o":"m 794 382 l 829 382 q 778 233 827 288 q 654 176 728 176 q 576 189 616 176 q 399 258 526 205 q 254 300 298 300 q 132 178 156 300 l 97 178 q 153 335 101 286 q 267 384 203 384 q 525 302 336 384 q 671 258 626 258 q 755 292 722 258 q 794 382 789 324 m 794 722 l 829 722 q 778 572 827 627 q 654 515 728 515 q 581 526 616 515 q 399 597 537 539 q 253 639 298 639 q 132 516 155 639 l 97 516 q 153 673 101 624 q 267 723 204 723 q 525 641 336 723 q 672 597 627 597 q 756 630 723 597 q 794 722 789 663 z "},"∆":{"ha":850,"x_min":8,"x_max":844,"o":"m 453 956 l 844 0 l 8 0 l 453 956 m 403 718 l 100 68 l 672 68 l 403 718 z "},"«":{"ha":463,"x_min":47,"x_max":534,"o":"m 272 541 l 329 541 q 311 518 316 522 q 237 427 273 467 q 150 317 168 345 l 151 302 q 189 85 162 239 l 192 62 l 143 62 q 94 200 123 123 q 47 330 62 286 q 168 443 92 375 q 253 521 212 481 l 272 541 m 475 541 l 534 541 q 446 427 513 507 l 367 328 q 347 302 365 325 q 351 284 350 290 q 355 258 351 279 q 375 158 359 237 q 387 99 382 122 q 395 62 392 77 l 347 62 q 278 228 330 97 q 243 310 251 288 q 303 370 260 328 q 374 439 347 412 q 415 479 402 467 q 475 541 443 509 z "},"»":{"ha":463,"x_min":-28,"x_max":460,"o":"m 235 62 l 178 62 q 196 85 190 81 q 269 176 231 132 q 319 236 304 217 q 340 262 335 254 q 357 286 346 270 l 355 300 q 318 518 345 367 l 315 541 l 364 541 q 412 403 388 467 q 460 272 444 319 q 339 160 421 233 q 254 82 309 134 l 235 62 m 32 62 l -28 62 q 61 176 -1 102 l 140 275 q 160 300 153 294 q 158 313 159 307 q 155 326 157 319 q 151 345 153 334 q 132 444 146 378 q 113 541 118 511 l 160 541 q 180 495 168 524 q 209 426 191 467 q 229 375 226 384 q 264 293 256 316 q 203 233 247 275 q 132 163 160 191 q 92 123 104 136 q 32 62 64 94 z "},"…":{"ha":1389,"x_min":155,"x_max":1232,"o":"m 694 127 q 747 105 724 127 q 770 52 770 83 q 748 -2 770 20 q 694 -24 726 -24 q 640 -2 663 -24 q 618 52 618 20 q 641 106 618 84 q 694 127 664 127 m 1156 127 q 1210 106 1187 127 q 1232 52 1232 84 q 1222 15 1232 33 q 1193 -14 1211 -3 q 1156 -24 1175 -24 q 1102 -2 1124 -24 q 1080 52 1080 20 q 1103 106 1080 84 q 1156 127 1126 127 m 232 127 q 284 105 262 127 q 307 52 307 83 q 286 -2 307 20 q 232 -24 264 -24 q 178 -2 200 -24 q 155 52 155 20 q 178 106 155 84 q 232 127 201 127 z "}," ":{"ha":325,"x_min":0,"x_max":0,"o":""},"À":{"ha":926,"x_min":-43,"x_max":882,"o":"m 880 33 l 869 -7 q 799 -3 834 -4 q 693 0 743 0 q 465 -7 609 0 l 473 33 q 608 86 593 58 q 627 168 617 100 q 640 290 636 236 q 441 293 560 293 q 353 290 389 293 q 341 275 345 279 q 330 261 337 270 q 268 177 316 242 q 218 109 220 112 q 196 68 196 81 q 205 52 196 58 q 262 37 215 47 q 283 33 283 33 l 272 -7 q 199 -3 250 -5 q 113 0 146 0 q -43 -7 68 0 l -31 33 q 64 61 38 45 q 135 135 90 77 q 171 181 143 146 q 220 245 198 216 q 261 297 242 273 l 351 411 q 445 528 415 491 q 506 607 474 566 q 594 723 538 649 q 743 925 649 798 q 757 942 748 930 q 768 958 766 954 l 814 958 q 807 886 813 947 q 798 781 802 825 q 787 679 793 739 q 777 576 781 618 q 769 465 774 534 q 754 273 764 395 q 745 98 745 120 q 751 75 745 83 q 784 57 757 66 q 861 37 810 47 q 880 33 882 33 m 400 355 l 647 355 l 689 742 l 686 745 l 400 355 m 863 1000 l 827 1000 q 722 1127 740 1106 q 685 1170 705 1148 q 631 1225 665 1191 l 636 1236 q 771 1236 687 1234 q 779 1217 777 1221 q 785 1199 780 1213 q 808 1141 791 1182 q 843 1053 824 1101 q 863 1000 861 1004 z "},"Ã":{"ha":926,"x_min":-43,"x_max":1029,"o":"m 880 33 l 869 -7 q 799 -3 834 -4 q 693 0 743 0 q 465 -7 609 0 l 473 33 q 608 86 593 58 q 627 168 617 100 q 640 290 636 236 q 441 293 560 293 q 353 290 389 293 q 341 275 345 279 q 330 261 337 270 q 268 177 316 242 q 218 109 220 112 q 196 68 196 81 q 205 52 196 58 q 262 37 215 47 q 283 33 283 33 l 272 -7 q 199 -3 250 -5 q 113 0 146 0 q -43 -7 68 0 l -31 33 q 64 61 38 45 q 135 135 90 77 q 171 181 143 146 q 220 245 198 216 q 261 297 242 273 l 351 411 q 445 528 415 491 q 506 607 474 566 q 594 723 538 649 q 743 925 649 798 q 757 942 748 930 q 768 958 766 954 l 814 958 q 807 886 813 947 q 798 781 802 825 q 787 679 793 739 q 777 576 781 618 q 769 465 774 534 q 754 273 764 395 q 745 98 745 120 q 751 75 745 83 q 784 57 757 66 q 861 37 810 47 q 880 33 882 33 m 400 355 l 647 355 l 689 742 l 686 745 l 400 355 m 987 1196 l 1029 1196 q 962 1070 998 1107 q 898 1034 926 1034 q 798 1075 871 1034 q 716 1110 734 1110 q 637 1034 676 1110 l 595 1034 q 723 1196 653 1196 q 761 1190 745 1196 q 833 1150 777 1183 q 913 1120 892 1120 q 952 1140 937 1120 q 987 1196 968 1160 z "},"Õ":{"ha":956,"x_min":113,"x_max":996,"o":"m 113 309 q 161 546 113 429 q 292 757 209 664 q 481 904 374 850 q 700 958 589 958 q 915 874 835 958 q 996 627 996 790 q 945 368 996 489 q 810 159 895 248 q 618 21 725 71 q 400 -28 511 -28 q 215 34 279 -28 q 132 171 151 96 q 113 309 113 246 m 248 323 q 274 177 248 241 q 351 79 301 113 q 467 45 400 45 q 663 132 572 45 q 808 354 754 218 q 863 619 863 489 q 836 772 863 710 q 762 864 808 834 q 657 895 715 895 q 502 843 577 895 q 370 707 427 791 q 280 521 313 623 q 248 323 248 420 m 890 1196 l 932 1196 q 865 1070 901 1107 q 801 1034 829 1034 q 701 1075 774 1034 q 619 1110 637 1110 q 540 1034 579 1110 l 498 1034 q 626 1196 556 1196 q 664 1190 648 1196 q 736 1150 680 1183 q 817 1120 795 1120 q 856 1140 840 1120 q 890 1196 871 1160 z "},"Œ":{"ha":1360,"x_min":117,"x_max":1439,"o":"m 1192 646 l 1236 646 q 1229 623 1229 623 q 1160 385 1179 459 q 1140 314 1143 321 l 1093 314 q 1099 376 1096 340 q 1103 416 1103 412 q 1075 454 1103 450 q 983 460 1055 458 q 867 463 911 463 l 814 269 q 762 81 798 215 q 760 69 762 77 q 758 62 758 61 l 1060 62 q 1137 70 1114 62 q 1181 104 1160 77 q 1247 212 1203 132 l 1268 250 l 1320 250 q 1307 216 1316 240 q 1291 174 1297 191 q 1279 142 1284 156 q 1270 113 1274 127 q 1235 11 1257 69 q 1229 -7 1235 1 q 1088 -3 1164 -4 q 944 -1 1011 -1 q 782 0 878 0 q 521 -4 638 0 q 415 -6 457 -7 q 328 6 372 -5 q 245 41 283 16 q 148 162 180 88 q 117 315 117 237 q 154 519 117 412 q 269 723 191 627 q 465 878 347 819 q 736 937 583 937 q 859 933 771 937 q 978 930 947 930 q 1439 939 1276 930 q 1408 824 1423 880 q 1385 729 1392 768 q 1381 708 1381 721 l 1331 708 q 1333 789 1333 737 q 1329 848 1333 833 q 1307 867 1324 863 q 1244 872 1290 872 l 989 872 l 981 840 q 943 722 951 746 q 907 599 936 699 q 884 519 892 553 l 1036 519 q 1106 524 1086 519 q 1141 549 1126 529 q 1181 623 1156 569 l 1192 646 m 851 832 q 724 879 851 879 q 522 828 611 879 q 372 694 432 777 q 282 515 313 611 q 252 328 252 418 q 263 238 252 284 q 303 150 275 193 q 386 81 332 108 q 518 54 439 54 q 587 63 562 54 q 629 97 612 71 q 660 164 646 123 q 704 319 673 205 q 720 371 709 332 q 743 449 731 410 q 761 509 752 479 q 791 612 769 538 q 818 708 812 686 q 851 832 851 817 z "},"œ":{"ha":911,"x_min":56,"x_max":954,"o":"m 828 155 l 854 121 q 765 48 812 79 q 671 -1 718 17 q 590 -20 625 -20 q 520 3 545 -20 q 486 53 494 26 q 471 121 477 79 q 400 47 439 79 q 315 -2 361 16 q 220 -20 268 -20 q 98 45 140 -20 q 56 200 56 109 q 92 369 56 290 q 185 507 127 448 q 307 598 243 565 q 427 631 372 631 q 522 600 488 631 q 567 532 555 570 q 581 467 579 494 q 662 553 618 517 q 756 610 705 589 q 861 631 808 631 q 954 557 954 631 q 920 453 954 511 q 799 346 885 395 q 571 281 713 296 q 558 200 558 228 q 578 102 558 144 q 642 61 599 61 q 828 155 706 61 m 582 326 q 760 385 700 345 q 836 465 820 426 q 852 533 852 504 q 842 567 852 555 q 814 578 831 578 q 688 509 758 578 q 582 326 618 441 m 165 196 q 173 136 165 170 q 204 74 180 102 q 275 45 229 45 q 365 78 324 45 q 435 167 406 112 q 479 283 465 222 q 494 400 494 345 q 477 504 494 466 q 436 557 460 543 q 389 571 412 571 q 280 515 332 571 q 197 371 229 459 q 165 196 165 283 z "},"–":{"ha":694,"x_min":40,"x_max":751,"o":"m 40 379 l 751 379 l 751 315 l 40 315 l 40 379 z "},"—":{"ha":1389,"x_min":40,"x_max":1446,"o":"m 40 379 l 1446 379 l 1446 315 l 40 315 l 40 379 z "},"“":{"ha":665,"x_min":254,"x_max":779,"o":"m 411 701 l 421 672 q 321 576 371 631 q 254 688 254 610 q 305 828 254 755 q 449 958 356 901 l 473 922 q 355 746 355 831 q 371 706 355 714 q 411 701 387 698 m 717 701 l 726 672 q 627 576 673 629 q 559 688 559 610 q 610 828 559 755 q 754 958 661 901 l 779 922 q 661 746 661 831 q 677 706 661 714 q 717 701 693 698 z "},"”":{"ha":665,"x_min":218,"x_max":743,"o":"m 586 833 l 576 863 q 629 908 615 895 q 676 958 642 921 q 730 905 718 939 q 743 847 743 871 q 721 757 743 805 q 656 663 699 709 q 549 576 613 617 l 524 612 q 604 691 566 646 q 642 789 642 736 q 586 833 642 841 m 281 833 l 271 863 q 371 958 318 901 q 426 904 414 937 q 437 847 437 871 q 416 757 437 805 q 350 663 394 709 q 243 576 306 616 l 218 612 q 299 691 261 646 q 336 789 336 736 q 281 833 336 841 z "},"‘":{"ha":361,"x_min":256,"x_max":475,"o":"m 412 701 l 422 672 q 322 576 372 631 q 256 688 256 610 q 307 828 256 755 q 450 958 357 901 l 475 922 q 357 746 357 831 q 373 706 357 713 q 412 701 389 698 z "},"’":{"ha":361,"x_min":218,"x_max":437,"o":"m 281 833 l 271 863 q 371 958 318 901 q 426 904 414 937 q 437 847 437 871 q 416 757 437 805 q 350 663 394 709 q 243 576 306 616 l 218 612 q 299 691 261 646 q 336 789 336 736 q 281 833 336 841 m 281 833 l 271 863 q 371 958 318 901 q 426 904 414 937 q 437 847 437 871 q 416 757 437 805 q 350 663 394 709 q 243 576 306 616 l 218 612 q 299 691 261 646 q 336 789 336 736 q 281 833 336 841 z "},"÷":{"ha":926,"x_min":168,"x_max":905,"o":"m 593 760 q 576 720 593 737 q 536 703 559 703 q 496 720 513 703 q 479 760 479 738 q 496 800 479 783 q 536 818 513 818 q 576 801 559 818 q 593 760 593 783 m 168 493 l 905 493 l 905 404 l 168 404 l 168 493 m 593 138 q 576 97 593 114 q 536 79 559 79 q 496 97 513 79 q 479 138 479 115 q 496 178 479 161 q 536 195 513 195 q 576 178 559 195 q 593 138 593 161 z "},"◊":{"ha":926,"x_min":75,"x_max":851,"o":"m 185 726 q 238 580 225 637 q 250 448 250 522 q 238 318 250 375 q 185 170 225 262 q 462 235 323 235 q 739 170 604 235 q 688 311 701 257 q 674 448 674 368 q 687 579 674 523 q 739 726 699 638 q 462 662 604 662 q 185 726 319 662 m 75 769 l 144 836 q 463 751 302 751 q 781 836 619 751 l 851 769 q 764 448 764 614 q 851 127 764 283 l 781 60 q 463 145 624 145 q 305 127 378 145 q 144 60 229 106 l 75 127 q 161 448 161 281 q 75 769 161 611 z "},"ÿ":{"ha":636,"x_min":-96,"x_max":671,"o":"m 87 450 l 60 476 q 163 584 110 538 q 245 631 216 631 q 282 605 269 631 q 302 549 296 578 q 323 437 315 500 q 336 317 332 374 q 342 200 340 260 q 345 94 345 140 l 347 94 q 487 296 422 193 q 551 472 551 400 q 501 534 551 533 l 496 547 q 572 631 536 585 q 632 583 619 616 q 644 521 644 550 q 610 392 644 461 q 460 164 575 323 q 291 -56 372 41 q 160 -200 210 -154 q -3 -292 63 -292 q -96 -257 -51 -292 q -47 -165 -68 -214 l -36 -165 q -7 -198 -21 -189 q 33 -208 6 -208 q 112 -175 66 -208 q 252 -20 157 -142 q 247 163 252 64 q 232 341 241 261 q 207 470 222 422 q 175 518 193 518 q 107 469 158 518 l 87 450 m 619 905 q 655 891 640 905 q 671 850 671 876 q 649 787 671 815 q 597 758 627 758 q 559 776 573 758 q 545 819 545 794 q 566 878 545 851 q 619 905 588 905 m 397 905 q 433 891 418 905 q 448 850 448 877 q 427 787 448 815 q 375 758 405 758 q 336 776 351 758 q 322 819 322 794 q 344 878 322 851 q 397 905 366 905 z "},"Ÿ":{"ha":882,"x_min":195,"x_max":1078,"o":"m 205 899 l 218 939 q 268 936 224 939 q 339 931 311 932 q 396 930 366 930 q 621 939 490 930 l 611 899 q 585 892 597 894 q 482 859 492 867 q 469 835 469 850 q 509 686 469 810 l 567 498 q 585 521 577 511 q 625 571 593 531 q 715 688 656 612 q 829 838 760 743 q 836 848 832 840 q 839 860 839 855 q 827 877 839 872 q 770 893 816 882 q 751 899 756 896 l 761 939 q 916 930 861 930 q 1078 939 1000 930 l 1065 897 q 987 878 1011 888 q 930 834 964 868 q 829 715 897 800 q 718 579 805 688 q 589 418 627 468 q 583 397 587 411 q 573 366 578 383 q 560 319 568 348 q 534 231 551 290 q 520 179 532 222 q 503 112 509 135 q 497 83 497 88 q 505 63 497 69 q 532 54 513 58 q 611 39 567 50 q 642 33 627 33 l 629 -7 q 557 -3 601 -5 q 443 0 496 0 q 195 -7 368 0 l 205 33 q 213 34 206 33 q 225 36 219 35 q 232 37 231 37 q 337 62 319 54 q 367 100 355 71 q 467 418 382 140 q 472 437 472 431 q 470 449 472 444 q 467 459 469 455 q 460 475 465 464 q 400 659 439 531 q 360 779 385 706 q 323 863 334 852 q 297 877 313 872 q 227 893 280 882 q 205 899 210 897 m 825 1186 q 861 1172 846 1186 q 876 1131 876 1157 q 854 1067 876 1096 q 803 1039 833 1039 q 764 1057 779 1039 q 750 1100 750 1075 q 772 1159 750 1132 q 825 1186 793 1186 m 603 1186 q 638 1172 623 1186 q 654 1131 654 1158 q 632 1067 654 1096 q 581 1039 610 1039 q 542 1057 556 1039 q 528 1100 528 1075 q 549 1159 528 1132 q 603 1186 571 1186 z "},"∕":{"ha":144,"x_min":-243,"x_max":547,"o":"m 469 954 l 547 954 l -168 -53 l -243 -53 l 469 954 z "},"€":{"ha":652,"x_min":58,"x_max":789,"o":"m 132 370 l 58 370 l 78 432 l 140 432 q 155 500 149 475 l 90 500 l 110 562 l 175 562 q 368 851 245 747 q 623 956 491 956 q 789 907 709 956 q 715 671 746 794 l 668 673 q 673 762 673 722 q 599 889 673 889 q 428 803 513 889 q 288 562 343 717 l 675 562 l 656 500 l 268 500 q 254 432 261 473 l 640 432 l 621 370 l 249 370 q 283 151 240 231 q 407 71 326 71 q 599 146 471 71 l 625 96 q 346 -24 483 -24 q 173 88 229 -24 q 132 370 117 200 z "},"‹":{"ha":260,"x_min":45,"x_max":332,"o":"m 271 541 l 332 541 q 232 416 282 478 q 147 310 197 374 q 158 254 153 284 q 171 184 163 224 l 191 81 q 192 71 191 79 q 193 62 193 63 l 143 62 q 116 143 136 85 q 82 235 96 200 q 45 321 68 270 q 126 399 66 342 q 220 490 186 456 q 271 541 254 523 z "},"›":{"ha":260,"x_min":-28,"x_max":260,"o":"m 33 62 l -28 62 q 8 107 -12 81 q 72 186 29 134 q 111 234 102 224 q 127 255 119 244 q 157 293 136 266 q 143 365 151 326 q 134 418 136 404 l 114 522 q 113 532 114 524 q 111 541 111 540 l 161 541 q 192 453 182 479 q 211 399 201 427 q 235 339 220 372 q 260 282 249 306 q 185 211 233 256 q 96 125 138 165 q 33 62 54 84 z "},"":{"ha":694,"x_min":-229,"x_max":701,"o":"m 661 825 l 629 825 q 591 910 621 884 q 528 936 561 936 q 386 822 437 936 q 322 608 369 782 l 449 608 q 546 613 498 608 q 625 627 593 618 q 643 629 631 629 q 658 624 650 629 q 665 608 665 619 q 654 566 665 598 l 572 326 q 525 187 533 214 q 511 143 515 152 q 504 109 504 113 q 518 93 504 93 q 629 164 541 93 l 656 135 q 526 30 602 79 q 421 -20 450 -20 q 383 26 383 -20 q 387 57 383 43 q 411 129 391 71 q 430 182 412 132 q 470 296 448 233 q 508 406 492 358 q 532 479 524 454 q 547 538 547 529 q 533 550 547 549 q 492 551 524 551 l 306 551 q 260 375 296 513 q 232 270 254 350 q 208 180 211 191 q 151 -22 172 42 q 104 -131 131 -86 q 29 -216 77 -175 q -52 -271 -9 -250 q -131 -292 -96 -292 q -168 -286 -151 -292 q -202 -272 -186 -281 q -229 -257 -218 -264 q -198 -214 -208 -231 q -176 -167 -189 -197 l -163 -167 q -129 -205 -146 -192 q -77 -218 -112 -218 q -11 -188 -39 -218 q 45 -78 18 -158 q 76 35 53 -54 q 109 161 99 123 q 137 275 118 200 q 160 370 155 350 q 203 551 189 499 q 113 547 140 549 l 121 585 q 221 619 171 598 q 261 770 241 712 q 319 867 282 827 q 446 961 381 932 q 567 989 511 989 q 633 980 604 989 q 701 951 662 970 q 661 825 675 871 z "},"":{"ha":694,"x_min":-231,"x_max":796,"o":"m 777 989 l 796 970 q 737 816 760 884 q 650 541 714 748 q 605 394 618 439 q 570 276 591 349 q 538 162 549 203 q 528 114 528 121 q 545 97 528 97 q 629 149 564 97 q 638 156 633 152 q 647 164 643 160 l 675 135 q 435 -20 507 -20 q 408 -8 417 -20 q 399 20 399 3 q 410 67 399 28 q 451 202 422 106 q 499 363 479 299 q 529 465 519 428 q 553 547 539 499 q 575 618 568 594 q 591 673 582 643 q 615 749 601 698 q 629 836 629 801 q 619 879 629 857 q 586 918 608 902 q 529 935 563 935 q 455 909 486 935 q 402 841 425 884 q 361 741 380 799 q 323 608 343 682 q 469 610 382 607 l 478 599 q 444 545 461 577 q 304 549 386 549 q 284 467 295 511 q 254 355 273 422 l 200 150 q 142 -48 168 22 q 80 -165 115 -119 q -14 -249 44 -212 q -134 -292 -75 -292 q -231 -258 -178 -292 q -201 -215 -213 -235 q -178 -168 -190 -196 l -163 -168 q -128 -207 -144 -194 q -78 -220 -112 -220 q -30 -206 -49 -220 q 5 -165 -10 -192 q 43 -75 23 -136 q 80 51 62 -14 q 98 118 98 117 q 113 178 100 125 q 135 273 125 231 q 151 335 145 315 q 164 389 153 341 l 203 549 q 111 546 149 549 l 118 582 q 220 616 161 593 q 260 761 238 702 q 321 864 281 820 q 427 951 366 914 q 559 989 489 989 q 635 975 606 989 q 688 937 663 960 q 777 989 724 956 z "},"‡":{"ha":593,"x_min":-25,"x_max":668,"o":"m 437 989 l 574 989 q 557 953 565 970 q 514 861 550 936 q 501 833 509 852 q 478 781 493 815 q 457 730 464 746 q 449 710 457 726 q 637 736 534 718 q 668 742 656 742 l 636 629 q 605 635 618 633 q 555 643 591 637 q 437 663 487 656 q 414 524 417 549 l 393 378 q 389 349 389 359 q 347 254 367 300 q 311 172 326 208 q 290 122 295 135 q 257 37 286 110 q 358 51 341 48 q 441 64 376 53 q 475 69 458 64 l 443 -45 q 241 -9 347 -26 q 203 -292 227 -79 l 69 -292 q 79 -267 72 -282 q 137 -145 119 -184 q 176 -50 155 -105 q 186 -28 182 -33 q 189 -18 186 -25 q 193 -9 192 -12 q -1 -40 154 -12 q -25 -45 -11 -45 l 7 69 q 116 50 45 61 q 210 37 188 39 q 218 85 214 59 q 225 122 223 112 q 236 204 227 133 q 248 287 243 262 q 257 353 252 312 q 289 425 277 397 q 324 507 301 454 q 366 607 347 560 q 389 663 385 653 q 293 650 341 660 q 170 629 202 633 l 203 742 q 401 710 277 725 q 422 851 410 762 l 435 964 q 436 977 435 966 q 437 989 437 987 z "},"∙":{"ha":361,"x_min":189,"x_max":330,"o":"m 189 447 q 217 522 189 498 q 272 546 245 546 q 314 529 297 546 q 330 484 330 511 q 308 417 330 448 q 250 386 285 386 q 203 408 218 386 q 189 447 189 429 z "},"‚":{"ha":361,"x_min":-11,"x_max":208,"o":"m 52 26 l 41 56 q 142 151 89 94 q 196 97 184 130 q 208 40 208 64 q 186 -50 208 -2 q 121 -144 165 -98 q 14 -231 77 -191 l -11 -195 q 70 -116 32 -161 q 107 -18 107 -70 q 52 26 107 34 z "},"„":{"ha":665,"x_min":-12,"x_max":513,"o":"m 355 26 l 346 56 q 398 101 385 87 q 446 151 412 114 q 500 98 487 132 q 513 40 513 64 q 490 -50 513 -2 q 425 -144 468 -98 q 318 -231 382 -190 l 293 -195 q 373 -116 336 -161 q 411 -18 411 -70 q 355 26 411 34 m 50 26 l 40 56 q 140 151 87 94 q 195 97 183 130 q 207 40 207 64 q 185 -50 207 -2 q 119 -144 163 -98 q 12 -231 75 -191 l -12 -195 q 68 -116 31 -161 q 106 -18 106 -70 q 50 26 106 34 z "},"‰":{"ha":1402,"x_min":143,"x_max":1358,"o":"m 261 582 q 314 489 261 489 q 383 540 351 489 q 435 667 415 591 q 454 817 454 743 q 441 880 454 857 q 401 903 427 903 q 331 848 363 903 q 280 716 298 793 q 261 582 261 640 m 857 954 l 933 954 l 220 -53 l 143 -53 l 857 954 m 168 602 q 185 706 168 645 q 233 824 202 767 q 311 917 264 880 q 415 954 357 954 q 490 930 460 954 q 534 870 520 907 q 547 791 547 833 q 513 630 547 713 q 423 494 479 547 q 302 440 366 440 q 199 493 229 440 q 168 602 168 546 m 528 107 q 544 212 528 151 q 593 331 561 273 q 671 425 625 388 q 775 461 718 461 q 850 437 820 461 q 894 376 880 414 q 908 297 908 339 q 874 138 908 220 q 784 1 841 55 q 663 -53 726 -53 q 558 0 589 -53 q 528 107 528 54 m 623 87 q 675 -5 623 -5 q 743 46 711 -5 q 795 175 776 97 q 815 323 815 252 q 801 386 815 363 q 761 410 787 410 q 690 354 722 410 q 641 221 659 298 q 623 87 623 143 m 978 107 q 995 212 978 151 q 1043 331 1011 273 q 1121 425 1075 388 q 1225 461 1168 461 q 1300 437 1270 461 q 1344 376 1331 414 q 1358 297 1358 339 q 1324 137 1358 220 q 1233 1 1291 54 q 1112 -53 1176 -53 q 1009 0 1040 -53 q 978 107 978 54 m 1072 87 q 1125 -5 1072 -5 q 1194 46 1161 -5 q 1246 175 1226 97 q 1265 323 1265 252 q 1251 387 1265 363 q 1211 410 1237 410 q 1141 354 1173 410 q 1090 221 1109 298 q 1072 87 1072 144 z "},"Â":{"ha":926,"x_min":-43,"x_max":933,"o":"m 880 33 l 869 -7 q 799 -3 834 -4 q 693 0 743 0 q 465 -7 609 0 l 473 33 q 608 86 593 58 q 627 168 617 100 q 640 290 636 236 q 441 293 560 293 q 353 290 389 293 q 341 275 345 279 q 330 261 337 270 q 268 177 316 242 q 218 109 220 112 q 196 68 196 81 q 205 52 196 58 q 262 37 215 47 q 283 33 283 33 l 272 -7 q 199 -3 250 -5 q 113 0 146 0 q -43 -7 68 0 l -31 33 q 64 61 38 45 q 135 135 90 77 q 171 181 143 146 q 220 245 198 216 q 261 297 242 273 l 351 411 q 445 528 415 491 q 506 607 474 566 q 594 723 538 649 q 743 925 649 798 q 757 942 748 930 q 768 958 766 954 l 814 958 q 807 886 813 947 q 798 781 802 825 q 787 679 793 739 q 777 576 781 618 q 769 465 774 534 q 754 273 764 395 q 745 98 745 120 q 751 75 745 83 q 784 57 757 66 q 861 37 810 47 q 880 33 882 33 m 400 355 l 647 355 l 689 742 l 686 745 l 400 355 m 933 1000 l 892 1000 q 882 1015 886 1008 l 838 1081 q 821 1104 827 1095 q 812 1119 815 1114 q 806 1129 809 1124 q 728 1072 770 1105 q 632 1000 671 1028 l 582 1000 q 600 1021 583 1002 q 714 1149 672 1099 q 775 1218 758 1202 q 798 1217 775 1218 q 831 1215 820 1215 q 880 1218 848 1215 q 884 1199 884 1206 q 903 1116 888 1175 q 926 1021 917 1057 q 929 1013 927 1020 q 933 1000 931 1006 z "},"Ê":{"ha":868,"x_min":-17,"x_max":945,"o":"m 228 899 l 239 939 q 422 930 320 930 q 594 931 509 930 q 771 932 680 931 q 945 939 863 934 q 886 705 908 820 l 838 708 q 840 791 839 722 q 836 850 842 834 q 811 870 829 866 q 743 873 793 873 l 497 873 q 471 788 484 832 q 439 682 457 745 q 404 564 414 606 q 397 543 401 555 q 389 518 393 531 l 507 518 q 615 524 590 518 q 648 552 633 528 q 690 627 664 575 l 700 646 l 741 646 q 733 619 735 625 q 706 525 712 548 q 691 474 699 502 q 676 417 684 447 q 659 350 669 388 q 647 311 651 328 l 603 311 q 608 364 603 313 q 612 421 612 414 q 598 451 612 444 q 558 458 583 458 q 465 460 543 458 q 374 461 387 461 q 345 357 366 435 q 321 269 324 279 q 265 61 292 168 l 558 61 q 643 69 616 61 q 690 104 669 77 q 753 207 712 132 q 765 230 758 217 q 775 248 773 243 l 825 248 q 747 25 785 143 l 737 -7 q 519 -3 694 -5 q 297 0 342 0 q 205 0 235 0 q 123 -2 176 -1 q 41 -5 71 -3 q -17 -7 12 -6 l -4 33 l 21 39 q 93 55 68 48 q 127 71 119 62 q 144 100 136 79 q 187 229 161 144 q 245 433 212 315 q 297 620 273 535 q 338 770 320 705 q 355 843 355 836 q 342 869 355 862 q 254 893 323 880 q 228 899 235 896 m 821 1000 l 779 1000 q 770 1015 773 1008 l 725 1081 q 709 1104 715 1095 q 700 1119 703 1114 q 693 1129 696 1124 q 615 1072 657 1105 q 519 1000 558 1028 l 469 1000 q 488 1021 471 1002 q 602 1149 559 1099 q 663 1218 646 1202 q 685 1217 663 1218 q 718 1215 707 1215 q 767 1218 736 1215 q 771 1199 771 1206 q 790 1116 776 1175 q 814 1021 804 1057 q 817 1013 814 1020 q 821 1000 819 1006 z "},"Á":{"ha":926,"x_min":-43,"x_max":937,"o":"m 880 33 l 869 -7 q 799 -3 834 -4 q 693 0 743 0 q 465 -7 609 0 l 473 33 q 608 86 593 58 q 627 168 617 100 q 640 290 636 236 q 441 293 560 293 q 353 290 389 293 q 341 275 345 279 q 330 261 337 270 q 268 177 316 242 q 218 109 220 112 q 196 68 196 81 q 205 52 196 58 q 262 37 215 47 q 283 33 283 33 l 272 -7 q 199 -3 250 -5 q 113 0 146 0 q -43 -7 68 0 l -31 33 q 64 61 38 45 q 135 135 90 77 q 171 181 143 146 q 220 245 198 216 q 261 297 242 273 l 351 411 q 445 528 415 491 q 506 607 474 566 q 594 723 538 649 q 743 925 649 798 q 757 942 748 930 q 768 958 766 954 l 814 958 q 807 886 813 947 q 798 781 802 825 q 787 679 793 739 q 777 576 781 618 q 769 465 774 534 q 754 273 764 395 q 745 98 745 120 q 751 75 745 83 q 784 57 757 66 q 861 37 810 47 q 880 33 882 33 m 400 355 l 647 355 l 689 742 l 686 745 l 400 355 m 741 1000 l 705 1000 q 725 1053 706 1004 q 762 1148 743 1101 q 782 1199 781 1196 q 796 1236 785 1208 q 930 1236 880 1234 l 937 1225 q 882 1170 902 1191 q 845 1127 863 1148 q 741 1000 827 1106 z "},"Ë":{"ha":868,"x_min":-17,"x_max":945,"o":"m 228 899 l 239 939 q 422 930 320 930 q 594 931 509 930 q 771 932 680 931 q 945 939 863 934 q 886 705 908 820 l 838 708 q 840 791 839 722 q 836 850 842 834 q 811 870 829 866 q 743 873 793 873 l 497 873 q 471 788 484 832 q 439 682 457 745 q 404 564 414 606 q 397 543 401 555 q 389 518 393 531 l 507 518 q 615 524 590 518 q 648 552 633 528 q 690 627 664 575 l 700 646 l 741 646 q 733 619 735 625 q 706 525 712 548 q 691 474 699 502 q 676 417 684 447 q 659 350 669 388 q 647 311 651 328 l 603 311 q 608 364 603 313 q 612 421 612 414 q 598 451 612 444 q 558 458 583 458 q 465 460 543 458 q 374 461 387 461 q 345 357 366 435 q 321 269 324 279 q 265 61 292 168 l 558 61 q 643 69 616 61 q 690 104 669 77 q 753 207 712 132 q 765 230 758 217 q 775 248 773 243 l 825 248 q 747 25 785 143 l 737 -7 q 519 -3 694 -5 q 297 0 342 0 q 205 0 235 0 q 123 -2 176 -1 q 41 -5 71 -3 q -17 -7 12 -6 l -4 33 l 21 39 q 93 55 68 48 q 127 71 119 62 q 144 100 136 79 q 187 229 161 144 q 245 433 212 315 q 297 620 273 535 q 338 770 320 705 q 355 843 355 836 q 342 869 355 862 q 254 893 323 880 q 228 899 235 896 m 818 1186 q 854 1172 839 1186 q 869 1131 869 1157 q 848 1067 869 1096 q 796 1039 826 1039 q 758 1057 772 1039 q 743 1100 743 1075 q 765 1159 743 1132 q 818 1186 787 1186 m 596 1186 q 632 1172 616 1186 q 647 1131 647 1158 q 625 1067 647 1096 q 574 1039 604 1039 q 535 1057 549 1039 q 521 1100 521 1075 q 543 1159 521 1132 q 596 1186 564 1186 z "},"È":{"ha":868,"x_min":-17,"x_max":945,"o":"m 228 899 l 239 939 q 422 930 320 930 q 594 931 509 930 q 771 932 680 931 q 945 939 863 934 q 886 705 908 820 l 838 708 q 840 791 839 722 q 836 850 842 834 q 811 870 829 866 q 743 873 793 873 l 497 873 q 471 788 484 832 q 439 682 457 745 q 404 564 414 606 q 397 543 401 555 q 389 518 393 531 l 507 518 q 615 524 590 518 q 648 552 633 528 q 690 627 664 575 l 700 646 l 741 646 q 733 619 735 625 q 706 525 712 548 q 691 474 699 502 q 676 417 684 447 q 659 350 669 388 q 647 311 651 328 l 603 311 q 608 364 603 313 q 612 421 612 414 q 598 451 612 444 q 558 458 583 458 q 465 460 543 458 q 374 461 387 461 q 345 357 366 435 q 321 269 324 279 q 265 61 292 168 l 558 61 q 643 69 616 61 q 690 104 669 77 q 753 207 712 132 q 765 230 758 217 q 775 248 773 243 l 825 248 q 747 25 785 143 l 737 -7 q 519 -3 694 -5 q 297 0 342 0 q 205 0 235 0 q 123 -2 176 -1 q 41 -5 71 -3 q -17 -7 12 -6 l -4 33 l 21 39 q 93 55 68 48 q 127 71 119 62 q 144 100 136 79 q 187 229 161 144 q 245 433 212 315 q 297 620 273 535 q 338 770 320 705 q 355 843 355 836 q 342 869 355 862 q 254 893 323 880 q 228 899 235 896 m 750 1000 l 714 1000 q 610 1127 627 1106 q 572 1170 592 1148 q 518 1225 553 1191 l 524 1236 q 659 1236 574 1234 q 666 1217 665 1221 q 672 1199 667 1213 q 695 1141 679 1182 q 730 1053 711 1101 q 750 1000 749 1004 z "},"Í":{"ha":492,"x_min":-9,"x_max":653,"o":"m 653 939 l 640 897 q 633 896 639 897 q 620 893 627 895 q 612 892 614 892 q 526 868 547 880 q 496 835 506 857 q 444 681 477 789 q 376 456 410 574 q 323 261 342 338 q 301 172 323 258 q 279 81 279 87 q 288 64 279 71 q 387 37 293 59 q 410 33 410 33 l 397 -7 q 317 -3 365 -5 q 195 0 250 0 q -9 -7 104 0 l 3 33 q 7 34 3 33 q 18 36 12 35 q 32 39 25 37 q 111 59 93 50 q 142 85 130 68 q 204 268 157 109 q 229 355 206 276 q 257 453 252 433 q 288 562 271 504 q 313 652 304 620 q 359 831 349 783 q 363 850 363 841 q 351 868 363 863 q 298 883 345 871 q 235 897 252 894 l 245 939 q 444 930 355 930 q 653 939 566 930 m 440 1000 l 404 1000 q 424 1053 406 1004 q 462 1148 443 1101 q 481 1199 481 1196 q 496 1236 484 1208 q 630 1236 580 1234 l 636 1225 q 582 1170 602 1191 q 545 1127 562 1148 q 440 1000 527 1106 z "},"Î":{"ha":492,"x_min":-9,"x_max":653,"o":"m 653 939 l 640 897 q 633 896 639 897 q 620 893 627 895 q 612 892 614 892 q 526 868 547 880 q 496 835 506 857 q 444 681 477 789 q 376 456 410 574 q 323 261 342 338 q 301 172 323 258 q 279 81 279 87 q 288 64 279 71 q 387 37 293 59 q 410 33 410 33 l 397 -7 q 317 -3 365 -5 q 195 0 250 0 q -9 -7 104 0 l 3 33 q 7 34 3 33 q 18 36 12 35 q 32 39 25 37 q 111 59 93 50 q 142 85 130 68 q 204 268 157 109 q 229 355 206 276 q 257 453 252 433 q 288 562 271 504 q 313 652 304 620 q 359 831 349 783 q 363 850 363 841 q 351 868 363 863 q 298 883 345 871 q 235 897 252 894 l 245 939 q 444 930 355 930 q 653 939 566 930 m 633 1000 l 591 1000 q 582 1015 585 1008 l 537 1081 q 521 1104 527 1095 q 512 1119 515 1114 q 505 1129 509 1124 q 427 1072 469 1105 q 332 1000 370 1028 l 281 1000 q 300 1021 283 1002 q 414 1149 372 1099 q 475 1218 458 1202 q 497 1217 475 1218 q 530 1215 519 1215 q 579 1218 548 1215 q 583 1199 583 1206 q 602 1116 588 1175 q 626 1021 616 1057 q 629 1013 627 1020 q 633 1000 631 1006 z "},"Ï":{"ha":492,"x_min":-9,"x_max":682,"o":"m 653 939 l 640 897 q 633 896 639 897 q 620 893 627 895 q 612 892 614 892 q 526 868 547 880 q 496 835 506 857 q 444 681 477 789 q 376 456 410 574 q 323 261 342 338 q 301 172 323 258 q 279 81 279 87 q 288 64 279 71 q 387 37 293 59 q 410 33 410 33 l 397 -7 q 317 -3 365 -5 q 195 0 250 0 q -9 -7 104 0 l 3 33 q 7 34 3 33 q 18 36 12 35 q 32 39 25 37 q 111 59 93 50 q 142 85 130 68 q 204 268 157 109 q 229 355 206 276 q 257 453 252 433 q 288 562 271 504 q 313 652 304 620 q 359 831 349 783 q 363 850 363 841 q 351 868 363 863 q 298 883 345 871 q 235 897 252 894 l 245 939 q 444 930 355 930 q 653 939 566 930 m 630 1186 q 666 1172 651 1186 q 682 1131 682 1157 q 660 1067 682 1096 q 608 1039 638 1039 q 570 1057 584 1039 q 555 1100 555 1075 q 577 1159 555 1132 q 630 1186 599 1186 m 408 1186 q 444 1172 429 1186 q 459 1131 459 1158 q 437 1067 459 1096 q 386 1039 416 1039 q 347 1057 361 1039 q 333 1100 333 1075 q 355 1159 333 1132 q 408 1186 376 1186 z "},"Ì":{"ha":492,"x_min":-9,"x_max":653,"o":"m 653 939 l 640 897 q 633 896 639 897 q 620 893 627 895 q 612 892 614 892 q 526 868 547 880 q 496 835 506 857 q 444 681 477 789 q 376 456 410 574 q 323 261 342 338 q 301 172 323 258 q 279 81 279 87 q 288 64 279 71 q 387 37 293 59 q 410 33 410 33 l 397 -7 q 317 -3 365 -5 q 195 0 250 0 q -9 -7 104 0 l 3 33 q 7 34 3 33 q 18 36 12 35 q 32 39 25 37 q 111 59 93 50 q 142 85 130 68 q 204 268 157 109 q 229 355 206 276 q 257 453 252 433 q 288 562 271 504 q 313 652 304 620 q 359 831 349 783 q 363 850 363 841 q 351 868 363 863 q 298 883 345 871 q 235 897 252 894 l 245 939 q 444 930 355 930 q 653 939 566 930 m 562 1000 l 526 1000 q 422 1127 439 1106 q 385 1170 404 1148 q 330 1225 365 1191 l 336 1236 q 471 1236 387 1234 q 478 1217 477 1221 q 484 1199 479 1213 q 507 1141 491 1182 q 542 1053 524 1101 q 562 1000 561 1004 z "},"Ó":{"ha":956,"x_min":113,"x_max":996,"o":"m 113 309 q 161 546 113 429 q 292 757 209 664 q 481 904 374 850 q 700 958 589 958 q 915 874 835 958 q 996 627 996 790 q 945 368 996 489 q 810 159 895 248 q 618 21 725 71 q 400 -28 511 -28 q 215 34 279 -28 q 132 171 151 96 q 113 309 113 246 m 248 323 q 274 177 248 241 q 351 79 301 113 q 467 45 400 45 q 663 132 572 45 q 808 354 754 218 q 863 619 863 489 q 836 772 863 710 q 762 864 808 834 q 657 895 715 895 q 502 843 577 895 q 370 707 427 791 q 280 521 313 623 q 248 323 248 420 m 672 1000 l 636 1000 q 656 1053 637 1004 q 694 1148 675 1101 q 713 1199 713 1196 q 728 1236 716 1208 q 862 1236 812 1234 l 868 1225 q 814 1170 833 1191 q 777 1127 794 1148 q 672 1000 759 1106 z "},"Ô":{"ha":956,"x_min":113,"x_max":996,"o":"m 113 309 q 161 546 113 429 q 292 757 209 664 q 481 904 374 850 q 700 958 589 958 q 915 874 835 958 q 996 627 996 790 q 945 368 996 489 q 810 159 895 248 q 618 21 725 71 q 400 -28 511 -28 q 215 34 279 -28 q 132 171 151 96 q 113 309 113 246 m 248 323 q 274 177 248 241 q 351 79 301 113 q 467 45 400 45 q 663 132 572 45 q 808 354 754 218 q 863 619 863 489 q 836 772 863 710 q 762 864 808 834 q 657 895 715 895 q 502 843 577 895 q 370 707 427 791 q 280 521 313 623 q 248 323 248 420 m 865 1000 l 823 1000 q 814 1015 817 1008 l 769 1081 q 753 1104 759 1095 q 744 1119 747 1114 q 737 1129 741 1124 q 659 1072 701 1105 q 564 1000 602 1028 l 513 1000 q 532 1021 515 1002 q 646 1149 604 1099 q 707 1218 690 1202 q 729 1217 707 1218 q 762 1215 751 1215 q 811 1218 780 1215 q 815 1199 815 1206 q 834 1116 820 1175 q 858 1021 848 1057 q 861 1013 859 1020 q 865 1000 863 1006 z "},"Ò":{"ha":956,"x_min":113,"x_max":996,"o":"m 113 309 q 161 546 113 429 q 292 757 209 664 q 481 904 374 850 q 700 958 589 958 q 915 874 835 958 q 996 627 996 790 q 945 368 996 489 q 810 159 895 248 q 618 21 725 71 q 400 -28 511 -28 q 215 34 279 -28 q 132 171 151 96 q 113 309 113 246 m 248 323 q 274 177 248 241 q 351 79 301 113 q 467 45 400 45 q 663 132 572 45 q 808 354 754 218 q 863 619 863 489 q 836 772 863 710 q 762 864 808 834 q 657 895 715 895 q 502 843 577 895 q 370 707 427 791 q 280 521 313 623 q 248 323 248 420 m 794 1000 l 758 1000 q 654 1127 671 1106 q 616 1170 636 1148 q 562 1225 597 1191 l 568 1236 q 703 1236 618 1234 q 710 1217 709 1221 q 716 1199 711 1213 q 739 1141 723 1182 q 774 1053 755 1101 q 794 1000 793 1004 z "},"Ú":{"ha":1013,"x_min":192,"x_max":1196,"o":"m 1196 939 l 1185 899 q 1158 893 1179 897 q 1094 878 1117 886 q 1057 853 1072 870 q 1033 811 1042 836 q 1004 725 1023 787 q 950 550 966 604 q 925 466 934 496 q 886 326 917 435 q 828 175 863 241 q 745 63 792 108 q 632 -4 697 19 q 485 -28 566 -28 q 313 8 378 -28 q 220 99 248 43 q 192 216 192 155 q 199 299 192 256 q 228 420 207 342 q 285 625 249 498 q 300 680 292 653 q 314 732 307 707 q 332 802 321 758 l 340 829 q 342 839 340 831 q 343 852 343 847 q 334 869 343 865 q 296 881 325 873 q 249 890 267 888 l 216 899 l 228 939 q 329 932 293 935 q 427 930 365 930 q 532 932 493 930 q 633 939 571 935 l 624 899 q 507 870 528 880 q 472 832 485 861 q 418 661 458 796 q 353 439 374 514 q 324 320 332 364 q 315 232 315 275 q 342 131 315 170 q 414 75 370 92 q 514 57 459 57 q 642 84 589 57 q 732 162 696 111 q 795 288 768 214 q 857 484 823 361 q 931 746 909 665 q 953 846 953 828 q 936 870 953 861 q 863 892 918 880 q 833 899 848 894 l 844 939 q 1022 930 948 930 q 1196 939 1121 930 m 700 1000 l 664 1000 q 684 1053 665 1004 q 722 1148 703 1101 q 741 1199 741 1196 q 755 1236 744 1208 q 890 1236 840 1234 l 896 1225 q 842 1170 861 1191 q 804 1127 822 1148 q 700 1000 787 1106 z "},"Û":{"ha":1013,"x_min":192,"x_max":1196,"o":"m 1196 939 l 1185 899 q 1158 893 1179 897 q 1094 878 1117 886 q 1057 853 1072 870 q 1033 811 1042 836 q 1004 725 1023 787 q 950 550 966 604 q 925 466 934 496 q 886 326 917 435 q 828 175 863 241 q 745 63 792 108 q 632 -4 697 19 q 485 -28 566 -28 q 313 8 378 -28 q 220 99 248 43 q 192 216 192 155 q 199 299 192 256 q 228 420 207 342 q 285 625 249 498 q 300 680 292 653 q 314 732 307 707 q 332 802 321 758 l 340 829 q 342 839 340 831 q 343 852 343 847 q 334 869 343 865 q 296 881 325 873 q 249 890 267 888 l 216 899 l 228 939 q 329 932 293 935 q 427 930 365 930 q 532 932 493 930 q 633 939 571 935 l 624 899 q 507 870 528 880 q 472 832 485 861 q 418 661 458 796 q 353 439 374 514 q 324 320 332 364 q 315 232 315 275 q 342 131 315 170 q 414 75 370 92 q 514 57 459 57 q 642 84 589 57 q 732 162 696 111 q 795 288 768 214 q 857 484 823 361 q 931 746 909 665 q 953 846 953 828 q 936 870 953 861 q 863 892 918 880 q 833 899 848 894 l 844 939 q 1022 930 948 930 q 1196 939 1121 930 m 892 1000 l 851 1000 q 842 1015 845 1008 l 797 1081 q 781 1104 787 1095 q 771 1119 774 1114 q 765 1129 768 1124 q 687 1072 729 1105 q 591 1000 630 1028 l 541 1000 q 559 1021 543 1002 q 673 1149 631 1099 q 734 1218 718 1202 q 757 1217 734 1218 q 790 1215 779 1215 q 839 1218 808 1215 q 843 1199 843 1206 q 862 1116 848 1175 q 886 1021 876 1057 q 888 1013 886 1020 q 892 1000 890 1006 z "},"Ù":{"ha":1013,"x_min":192,"x_max":1196,"o":"m 1196 939 l 1185 899 q 1158 893 1179 897 q 1094 878 1117 886 q 1057 853 1072 870 q 1033 811 1042 836 q 1004 725 1023 787 q 950 550 966 604 q 925 466 934 496 q 886 326 917 435 q 828 175 863 241 q 745 63 792 108 q 632 -4 697 19 q 485 -28 566 -28 q 313 8 378 -28 q 220 99 248 43 q 192 216 192 155 q 199 299 192 256 q 228 420 207 342 q 285 625 249 498 q 300 680 292 653 q 314 732 307 707 q 332 802 321 758 l 340 829 q 342 839 340 831 q 343 852 343 847 q 334 869 343 865 q 296 881 325 873 q 249 890 267 888 l 216 899 l 228 939 q 329 932 293 935 q 427 930 365 930 q 532 932 493 930 q 633 939 571 935 l 624 899 q 507 870 528 880 q 472 832 485 861 q 418 661 458 796 q 353 439 374 514 q 324 320 332 364 q 315 232 315 275 q 342 131 315 170 q 414 75 370 92 q 514 57 459 57 q 642 84 589 57 q 732 162 696 111 q 795 288 768 214 q 857 484 823 361 q 931 746 909 665 q 953 846 953 828 q 936 870 953 861 q 863 892 918 880 q 833 899 848 894 l 844 939 q 1022 930 948 930 q 1196 939 1121 930 m 822 1000 l 786 1000 q 682 1127 699 1106 q 644 1170 664 1148 q 590 1225 625 1191 l 595 1236 q 730 1236 646 1234 q 738 1217 736 1221 q 744 1199 739 1213 q 767 1141 751 1182 q 802 1053 783 1101 q 822 1000 821 1004 z "},"ı":{"ha":376,"x_min":71,"x_max":345,"o":"m 318 163 l 345 134 q 214 27 283 75 q 109 -20 146 -20 q 82 -8 94 -20 q 71 21 71 3 q 90 109 71 47 l 140 249 q 182 378 145 264 q 220 497 220 492 q 205 514 220 514 q 172 497 195 514 q 131 460 148 479 l 113 441 l 87 469 q 222 587 160 544 q 317 631 285 631 q 345 604 345 631 q 329 537 345 589 q 289 410 313 485 q 250 294 264 334 q 212 184 233 248 q 192 107 192 121 q 205 90 192 90 q 298 149 231 90 q 309 156 302 151 q 318 163 315 161 z "},"ˆ":{"ha":463,"x_min":183,"x_max":534,"o":"m 534 720 l 493 720 q 484 734 487 728 l 439 800 q 422 824 429 814 q 413 838 416 833 q 407 848 410 844 q 329 791 371 824 q 233 720 272 747 l 183 720 q 201 741 184 722 q 315 868 273 818 q 376 937 359 921 q 399 936 376 937 q 432 935 421 935 q 481 937 450 935 q 485 918 485 925 q 504 836 490 895 q 528 741 518 777 q 530 732 528 739 q 534 720 532 726 z "},"˜":{"ha":463,"x_min":168,"x_max":602,"o":"m 559 916 l 602 916 q 535 790 571 827 q 471 753 499 753 q 371 794 444 753 q 289 829 307 829 q 210 753 249 829 l 168 753 q 296 916 226 916 q 334 909 317 916 q 406 869 350 902 q 486 839 465 839 q 525 859 509 839 q 559 916 541 879 z "},"¯":{"ha":463,"x_min":142,"x_max":624,"o":"m 624 875 l 602 794 l 142 794 l 165 875 l 624 875 z "},"ˉ":{"ha":463,"x_min":142,"x_max":624,"o":"m 624 875 l 602 794 l 142 794 l 165 875 l 624 875 z "},"˘":{"ha":463,"x_min":216,"x_max":568,"o":"m 525 924 l 568 924 q 487 800 538 857 q 345 743 435 743 q 254 778 292 743 q 216 868 216 812 q 222 924 216 893 l 264 924 q 363 829 257 829 q 454 855 412 829 q 525 924 496 881 z "},"˙":{"ha":463,"x_min":346,"x_max":472,"o":"m 421 905 q 457 891 441 905 q 472 850 472 876 q 450 787 472 815 q 399 758 429 758 q 360 776 374 758 q 346 819 346 794 q 368 878 346 851 q 421 905 389 905 z "},"˚":{"ha":463,"x_min":253,"x_max":525,"o":"m 389 972 q 457 954 426 972 q 507 903 489 935 q 525 835 525 871 q 507 767 525 799 q 456 717 488 735 q 389 699 425 699 q 321 717 352 699 q 271 767 290 735 q 253 835 253 799 q 292 932 253 891 q 389 972 332 972 m 389 914 q 332 891 356 914 q 309 835 309 868 q 332 777 309 800 q 389 754 355 754 q 445 778 422 754 q 468 835 468 801 q 445 891 468 869 q 389 914 421 914 z "},"¸":{"ha":463,"x_min":65,"x_max":283,"o":"m 232 16 l 283 16 q 225 -53 246 -31 q 273 -125 273 -77 q 246 -187 273 -158 q 173 -235 219 -216 q 71 -261 127 -254 l 65 -227 q 155 -190 116 -213 q 193 -143 193 -167 q 187 -125 193 -135 q 167 -115 181 -115 q 143 -121 157 -115 l 134 -98 q 232 16 180 -58 z "},"˝":{"ha":463,"x_min":201,"x_max":619,"o":"m 237 721 l 201 721 q 238 815 203 724 q 279 920 274 905 q 284 935 283 930 q 288 943 286 940 q 293 957 289 947 q 428 957 377 955 l 433 946 q 379 890 399 911 q 342 848 359 869 q 237 721 324 827 m 424 721 l 387 721 q 425 818 402 761 q 465 920 448 875 q 479 957 468 929 q 512 956 499 956 q 541 956 524 956 q 576 956 558 956 q 614 957 593 956 l 619 946 q 569 894 585 911 q 532 852 553 877 q 424 721 511 827 z "},"˛":{"ha":463,"x_min":85,"x_max":357,"o":"m 332 -132 l 357 -165 q 270 -229 319 -203 q 178 -254 221 -254 q 113 -229 142 -254 q 85 -160 85 -204 q 207 12 85 -64 l 271 12 q 188 -66 208 -28 q 168 -127 168 -104 q 181 -162 168 -146 q 221 -179 194 -179 q 332 -132 268 -179 z "},"ˇ":{"ha":463,"x_min":243,"x_max":595,"o":"m 545 940 l 595 940 q 576 920 585 928 q 463 791 497 833 q 401 722 418 739 q 379 724 401 722 q 346 725 357 725 q 297 722 328 725 q 293 742 293 734 q 250 920 277 817 q 246 931 248 925 q 243 940 244 938 l 285 940 q 294 925 291 932 l 339 860 q 359 830 350 844 q 371 811 368 817 q 388 824 380 818 q 414 843 396 829 q 449 868 432 856 q 545 940 495 904 z "},"Š":{"ha":753,"x_min":78,"x_max":824,"o":"m 147 298 l 203 298 q 200 241 201 263 q 199 207 199 219 q 236 94 199 130 q 305 57 267 66 q 374 47 342 47 q 480 78 439 47 q 539 153 522 109 q 557 236 557 197 q 523 356 557 305 q 437 454 489 406 q 327 563 360 528 q 276 633 294 597 q 257 708 257 669 q 296 827 257 769 q 408 921 335 884 q 578 958 481 958 q 675 948 630 958 q 748 927 720 938 q 819 895 776 916 q 788 792 796 825 q 768 693 780 760 l 765 672 l 711 672 q 710 783 713 747 q 696 836 707 819 q 638 883 679 865 q 553 901 597 901 q 466 881 506 901 q 403 827 426 861 q 380 753 380 794 q 409 670 380 709 q 530 539 437 631 q 654 399 620 452 q 689 278 689 347 q 647 135 689 205 q 523 18 604 64 q 332 -28 442 -28 q 78 41 199 -28 q 106 132 97 100 q 125 202 116 163 q 147 298 135 241 m 774 1221 l 824 1221 q 806 1200 814 1208 q 692 1072 726 1114 q 631 1003 647 1020 q 608 1004 631 1003 q 575 1006 586 1006 q 526 1003 557 1006 q 522 1023 522 1015 q 479 1200 507 1098 q 475 1212 477 1206 q 472 1221 473 1219 l 514 1221 q 524 1206 520 1213 l 568 1141 q 588 1111 579 1125 q 600 1092 597 1097 q 617 1104 610 1099 q 643 1123 625 1110 q 678 1149 661 1137 q 774 1221 724 1185 z "},"š":{"ha":449,"x_min":-12,"x_max":588,"o":"m 439 468 l 407 468 q 381 544 403 508 q 298 581 359 581 q 230 557 257 581 q 203 498 203 533 q 210 467 203 483 q 239 427 218 451 q 297 368 260 404 q 380 270 352 315 q 408 178 408 224 q 375 82 408 128 q 286 8 342 37 q 161 -20 229 -20 q 60 -3 98 -20 q -12 40 22 14 q 46 160 24 105 l 64 155 q 85 97 74 111 q 136 59 103 74 q 203 45 170 45 q 281 71 252 45 q 310 138 310 96 q 289 201 310 165 q 205 300 267 236 q 130 391 149 360 q 111 458 111 422 q 140 543 111 503 q 221 607 170 583 q 335 631 273 631 q 476 591 414 631 q 460 537 471 576 q 439 468 448 498 m 538 940 l 588 940 q 570 920 578 928 q 456 791 490 833 q 395 722 411 739 q 372 724 395 722 q 339 725 350 725 q 290 722 321 725 q 286 742 286 734 q 243 920 271 817 q 239 931 241 925 q 236 940 237 938 l 278 940 q 288 925 284 932 l 332 860 q 352 830 343 844 q 364 811 361 817 q 381 824 374 818 q 407 843 389 829 q 442 868 425 856 q 538 940 488 904 z "},"¦":{"ha":737,"x_min":389,"x_max":479,"o":"m 389 325 l 479 325 l 479 -165 l 389 -165 l 389 325 m 389 989 l 479 989 l 479 497 l 389 497 l 389 989 z "},"Ð":{"ha":1013,"x_min":-22,"x_max":1053,"o":"m 248 461 l 110 461 l 126 518 l 264 518 q 275 558 264 519 q 297 639 283 588 q 332 762 328 751 q 353 851 353 833 q 342 869 353 863 q 303 880 336 872 q 250 892 270 888 q 241 895 247 893 q 230 897 235 896 q 224 899 225 898 l 233 939 q 269 936 255 937 q 304 933 283 935 q 408 930 363 930 q 568 935 458 930 q 694 939 617 939 q 951 862 850 939 q 1053 606 1053 786 q 1024 432 1053 519 q 937 266 995 345 q 794 123 880 186 q 587 19 691 46 q 371 -8 482 -8 q 241 -3 353 -8 q 197 -1 238 -3 q 131 0 155 0 q -22 -7 86 0 l -9 33 q 24 40 -5 33 q 101 61 85 53 q 129 86 118 68 q 200 293 151 118 l 236 419 q 241 440 236 429 q 248 461 248 458 m 621 461 l 370 461 l 345 372 q 319 283 326 315 q 279 137 287 166 q 260 64 271 107 q 393 56 334 56 q 579 82 496 56 q 743 184 663 109 q 871 368 825 262 q 918 595 918 475 q 867 782 918 720 q 750 861 815 845 q 608 876 685 876 q 552 874 572 876 q 488 865 532 872 l 475 825 q 453 748 467 798 q 426 655 438 699 q 405 584 413 612 q 386 518 397 555 l 636 518 l 621 461 z "},"ð":{"ha":623,"x_min":58,"x_max":642,"o":"m 300 742 l 275 786 l 414 863 q 350 957 384 913 l 382 989 q 429 943 414 961 q 468 892 445 924 l 618 975 l 642 930 l 498 850 q 547 763 527 806 q 582 671 567 720 q 604 572 597 621 q 611 473 611 522 q 578 275 611 366 q 487 118 545 184 q 359 16 429 51 q 221 -20 290 -20 q 96 50 133 -20 q 58 200 58 119 q 90 353 58 278 q 173 488 121 429 q 284 583 224 547 q 396 618 345 618 q 451 607 429 618 q 503 575 474 595 q 481 702 498 636 q 436 817 463 767 l 300 742 m 498 410 q 474 529 498 481 q 389 576 449 576 q 284 519 336 576 q 200 374 233 462 q 167 203 167 287 q 196 91 167 138 q 278 43 224 43 q 397 105 347 43 q 473 254 448 168 q 498 410 498 340 z "},"Ý":{"ha":882,"x_min":195,"x_max":1078,"o":"m 205 899 l 218 939 q 268 936 224 939 q 339 931 311 932 q 396 930 366 930 q 621 939 490 930 l 611 899 q 585 892 597 894 q 482 859 492 867 q 469 835 469 850 q 509 686 469 810 l 567 498 q 585 521 577 511 q 625 571 593 531 q 715 688 656 612 q 829 838 760 743 q 836 848 832 840 q 839 860 839 855 q 827 877 839 872 q 770 893 816 882 q 751 899 756 896 l 761 939 q 916 930 861 930 q 1078 939 1000 930 l 1065 897 q 987 878 1011 888 q 930 834 964 868 q 829 715 897 800 q 718 579 805 688 q 589 418 627 468 q 583 397 587 411 q 573 366 578 383 q 560 319 568 348 q 534 231 551 290 q 520 179 532 222 q 503 112 509 135 q 497 83 497 88 q 505 63 497 69 q 532 54 513 58 q 611 39 567 50 q 642 33 627 33 l 629 -7 q 557 -3 601 -5 q 443 0 496 0 q 195 -7 368 0 l 205 33 q 213 34 206 33 q 225 36 219 35 q 232 37 231 37 q 337 62 319 54 q 367 100 355 71 q 467 418 382 140 q 472 437 472 431 q 470 449 472 444 q 467 459 469 455 q 460 475 465 464 q 400 659 439 531 q 360 779 385 706 q 323 863 334 852 q 297 877 313 872 q 227 893 280 882 q 205 899 210 897 m 635 1000 l 599 1000 q 619 1053 600 1004 q 656 1148 637 1101 q 676 1199 675 1196 q 690 1236 679 1208 q 825 1236 774 1234 l 831 1225 q 777 1170 796 1191 q 739 1127 757 1148 q 635 1000 722 1106 z "},"ý":{"ha":636,"x_min":-96,"x_max":644,"o":"m 87 450 l 60 476 q 163 584 110 538 q 245 631 216 631 q 282 605 269 631 q 302 549 296 578 q 323 437 315 500 q 336 317 332 374 q 342 200 340 260 q 345 94 345 140 l 347 94 q 487 296 422 193 q 551 472 551 400 q 501 534 551 533 l 496 547 q 572 631 536 585 q 632 583 619 616 q 644 521 644 550 q 610 392 644 461 q 460 164 575 323 q 291 -56 372 41 q 160 -200 210 -154 q -3 -292 63 -292 q -96 -257 -51 -292 q -47 -165 -68 -214 l -36 -165 q -7 -198 -21 -189 q 33 -208 6 -208 q 112 -175 66 -208 q 252 -20 157 -142 q 247 163 252 64 q 232 341 241 261 q 207 470 222 422 q 175 518 193 518 q 107 469 158 518 l 87 450 m 429 720 l 393 720 q 413 772 395 724 q 451 868 432 820 q 471 918 470 916 q 485 956 473 928 q 619 956 569 954 l 625 945 q 571 889 591 910 q 534 846 551 867 q 429 720 516 825 z "},"Þ":{"ha":911,"x_min":0,"x_max":911,"o":"m 245 899 l 257 939 q 463 930 369 930 q 661 939 553 930 l 650 899 q 568 882 595 890 q 526 863 541 875 q 502 829 511 850 q 478 758 493 807 l 468 729 l 685 729 q 852 678 793 729 q 911 533 911 627 q 882 408 911 468 q 805 304 854 348 q 692 233 755 260 q 588 209 652 218 q 484 200 524 200 l 317 200 q 312 180 314 188 q 307 164 309 173 q 288 81 288 91 q 310 57 288 62 q 318 56 311 57 q 330 54 324 55 q 336 53 336 53 q 350 50 345 50 l 454 33 l 441 -7 q 358 -3 411 -5 q 212 0 286 0 q 0 -7 97 0 l 11 33 l 26 36 q 97 48 71 42 q 135 65 122 55 q 214 267 167 89 q 279 503 233 326 q 311 615 285 522 q 342 726 336 709 q 364 807 348 755 l 370 829 q 372 848 372 840 q 356 871 372 863 q 298 888 340 879 l 260 896 q 245 899 255 896 m 390 469 l 345 307 q 332 260 341 298 l 436 260 q 614 281 561 260 q 707 338 669 300 q 764 422 745 376 q 783 518 783 469 q 750 619 783 585 q 677 661 718 653 q 589 668 637 668 l 450 668 q 432 607 445 650 q 390 469 418 563 z "},"þ":{"ha":652,"x_min":-131,"x_max":648,"o":"m 210 867 l 222 908 q 449 989 349 940 l 468 971 q 379 729 440 913 l 285 433 l 288 431 q 362 518 317 471 q 455 598 408 566 q 533 631 502 631 q 593 608 567 631 q 634 546 620 585 q 648 456 648 507 q 617 283 648 368 q 529 129 585 198 q 402 20 473 60 q 256 -20 332 -20 q 158 8 210 -20 q 147 -29 153 -18 q 131 -89 143 -45 q 111 -162 118 -132 q 103 -205 103 -192 q 111 -223 103 -216 q 140 -237 118 -231 q 189 -248 162 -243 q 207 -252 205 -251 l 196 -292 q 26 -283 82 -283 q -131 -292 -25 -283 l -119 -252 q -111 -250 -118 -251 q -102 -248 -104 -248 q -39 -232 -49 -235 q -18 -220 -28 -229 q 41 -68 5 -195 q 97 117 77 50 q 122 200 117 184 q 135 244 127 216 q 175 379 158 321 q 203 475 192 437 q 307 833 288 758 q 311 856 311 850 q 289 875 311 875 q 259 872 283 875 q 210 867 235 870 m 179 83 q 209 61 195 71 q 243 46 223 52 q 289 40 262 40 q 387 76 340 40 q 467 170 433 112 q 519 295 500 227 q 538 425 538 363 q 528 502 538 464 q 486 541 518 541 q 416 505 460 541 q 338 429 372 469 q 253 296 291 376 q 179 83 216 216 z "},"×":{"ha":926,"x_min":197,"x_max":876,"o":"m 536 511 l 814 789 l 876 725 l 599 449 l 873 174 l 811 111 l 536 386 l 262 111 l 200 174 l 473 449 l 197 725 l 260 789 l 536 511 z "},"¹":{"ha":449,"x_min":180,"x_max":489,"o":"m 300 865 l 309 896 q 471 957 399 922 l 489 943 q 449 823 472 895 q 406 684 426 751 q 378 586 385 618 q 364 532 373 559 q 358 507 358 519 q 372 487 358 492 q 427 473 386 481 l 419 444 q 393 446 410 445 q 356 448 376 447 q 313 449 336 448 q 180 444 307 449 l 189 473 q 196 474 193 474 q 204 475 199 475 q 242 484 234 481 q 260 500 250 488 q 293 580 273 518 q 323 686 312 642 q 340 743 326 694 q 359 809 354 791 q 368 836 364 826 q 370 845 370 842 q 372 851 371 848 q 372 859 372 854 q 355 872 372 872 q 318 868 344 872 q 300 865 307 865 z "},"²":{"ha":449,"x_min":121,"x_max":517,"o":"m 261 811 l 225 811 q 261 922 247 869 q 387 957 330 957 q 481 923 445 957 q 517 838 517 888 q 464 710 517 772 q 290 554 410 649 q 269 537 281 547 q 253 528 257 528 l 253 525 l 351 525 q 415 532 400 525 q 447 567 430 538 l 456 579 l 493 579 q 435 446 458 510 q 296 449 335 449 q 214 448 268 449 q 121 446 160 446 l 127 476 q 142 488 134 481 q 157 500 151 494 q 363 680 296 611 q 431 806 431 749 q 407 864 431 846 q 357 882 384 882 q 261 811 301 882 z "},"³":{"ha":449,"x_min":147,"x_max":514,"o":"m 298 836 l 268 836 q 292 926 281 879 q 403 953 347 953 q 481 933 448 953 q 514 867 514 913 q 490 802 514 835 q 414 749 467 770 q 470 715 448 738 q 493 640 493 693 q 462 537 493 585 q 379 461 431 489 q 268 433 328 433 q 147 463 213 433 q 184 564 168 507 l 215 564 q 238 497 212 515 q 288 479 263 479 q 343 499 317 479 q 384 552 368 519 q 399 621 399 585 q 378 685 399 665 q 333 709 357 706 q 275 710 309 712 l 286 749 q 389 779 343 757 q 435 846 435 801 q 420 880 435 865 q 379 895 406 895 q 331 879 348 895 q 298 836 313 863 z "},"½":{"ha":1084,"x_min":180,"x_max":1010,"o":"m 921 954 l 999 954 l 283 -53 l 208 -53 l 921 954 m 300 865 l 309 896 q 471 957 399 922 l 489 943 q 449 823 472 895 q 406 684 426 751 q 378 586 385 618 q 364 532 373 559 q 358 507 358 519 q 372 487 358 492 q 427 473 386 481 l 419 444 q 393 446 410 445 q 356 448 376 447 q 313 449 336 448 q 180 444 307 449 l 189 473 q 196 474 193 474 q 204 475 199 475 q 242 484 234 481 q 260 500 250 488 q 293 580 273 518 q 323 686 312 642 q 340 743 326 694 q 359 809 354 791 q 368 836 364 826 q 370 845 370 842 q 372 851 371 848 q 372 859 372 854 q 355 872 372 872 q 318 868 344 872 q 300 865 307 865 m 754 321 l 718 321 q 754 432 740 379 q 880 467 823 467 q 974 432 938 467 q 1010 347 1010 398 q 957 220 1010 281 q 783 64 903 159 q 762 47 774 56 q 746 37 750 37 l 746 35 l 844 35 q 908 41 893 35 q 940 77 923 48 l 949 89 l 986 89 q 928 -45 951 20 q 789 -41 861 -41 q 614 -45 718 -41 l 621 -14 q 635 -2 627 -8 q 650 9 644 4 q 856 190 789 121 q 924 315 924 258 q 901 374 924 355 q 850 392 878 392 q 754 321 794 392 z "},"¼":{"ha":1084,"x_min":180,"x_max":1031,"o":"m 1003 153 l 1010 138 q 981 81 993 111 q 917 86 940 85 q 911 64 917 76 q 900 14 900 22 q 903 1 900 5 q 911 -4 906 -3 q 953 -14 917 -6 l 968 -18 l 961 -47 q 927 -46 945 -47 q 884 -44 909 -45 q 838 -43 859 -43 q 791 -44 817 -43 q 750 -46 764 -45 q 722 -47 736 -47 l 732 -18 q 750 -16 739 -18 q 790 -4 777 -12 q 811 21 803 3 q 836 86 820 39 q 636 81 741 90 q 649 122 644 106 q 657 155 653 138 q 808 306 696 193 l 933 435 q 1015 465 979 446 l 1031 454 q 978 300 994 351 q 933 149 947 192 q 1003 153 975 149 m 914 349 l 885 319 q 837 270 869 302 q 803 235 805 237 q 776 208 796 227 q 737 170 755 188 q 726 158 732 165 q 715 150 720 151 l 715 147 q 856 149 815 147 l 884 245 q 898 290 889 260 q 907 319 907 319 q 917 346 914 342 l 914 349 m 921 954 l 999 954 l 283 -53 l 208 -53 l 921 954 m 300 865 l 309 896 q 471 957 399 922 l 489 943 q 449 823 472 895 q 406 684 426 751 q 378 586 385 618 q 364 532 373 559 q 358 507 358 519 q 372 487 358 492 q 427 473 386 481 l 419 444 q 393 446 410 445 q 356 448 376 447 q 313 449 336 448 q 180 444 307 449 l 189 473 q 196 474 193 474 q 204 475 199 475 q 242 484 234 481 q 260 500 250 488 q 293 580 273 518 q 323 686 312 642 q 340 743 326 694 q 359 809 354 791 q 368 836 364 826 q 370 845 370 842 q 372 851 371 848 q 372 859 372 854 q 355 872 372 872 q 318 868 344 872 q 300 865 307 865 z "},"¾":{"ha":1084,"x_min":147,"x_max":1031,"o":"m 1003 153 l 1010 138 q 981 81 993 111 q 917 86 940 85 q 911 64 917 76 q 900 14 900 22 q 903 1 900 5 q 911 -4 906 -3 q 953 -14 917 -6 l 968 -18 l 961 -47 q 927 -46 945 -47 q 884 -44 909 -45 q 838 -43 859 -43 q 791 -44 817 -43 q 750 -46 764 -45 q 722 -47 736 -47 l 732 -18 q 750 -16 739 -18 q 790 -4 777 -12 q 811 21 803 3 q 836 86 820 39 q 636 81 741 90 q 649 122 644 106 q 657 155 653 138 q 808 306 696 193 l 933 435 q 1015 465 979 446 l 1031 454 q 978 300 994 351 q 933 149 947 192 q 1003 153 975 149 m 914 349 l 885 319 q 837 270 869 302 q 803 235 805 237 q 776 208 796 227 q 737 170 755 188 q 726 158 732 165 q 715 150 720 151 l 715 147 q 856 149 815 147 l 884 245 q 898 290 889 260 q 907 319 907 319 q 917 346 914 342 l 914 349 m 921 954 l 999 954 l 283 -53 l 208 -53 l 921 954 m 298 836 l 268 836 q 292 926 281 879 q 403 953 347 953 q 481 933 448 953 q 514 867 514 913 q 490 802 514 835 q 414 749 467 770 q 470 715 448 738 q 493 640 493 693 q 462 537 493 585 q 379 461 431 489 q 268 433 328 433 q 147 463 213 433 q 184 564 168 507 l 215 564 q 238 497 212 515 q 288 479 263 479 q 343 499 317 479 q 384 552 368 519 q 399 621 399 585 q 378 685 399 665 q 333 709 357 706 q 275 710 309 712 l 286 749 q 389 779 343 757 q 435 846 435 801 q 420 880 435 865 q 379 895 406 895 q 331 879 348 895 q 298 836 313 863 z "},"¤":{"ha":956,"x_min":220,"x_max":882,"o":"m 736 694 l 822 781 l 882 720 l 796 633 q 841 554 823 595 q 859 450 859 513 q 842 349 859 387 q 796 265 826 311 l 882 179 l 822 119 l 736 204 q 654 160 695 176 q 551 143 614 143 q 449 159 490 143 q 367 204 409 176 l 281 119 l 220 179 l 307 265 q 244 450 244 349 q 261 553 244 512 q 306 635 279 595 l 220 720 l 281 781 l 367 694 q 551 755 456 755 q 657 738 613 755 q 736 694 701 720 m 772 450 q 755 535 772 495 q 709 605 739 575 q 637 652 680 634 q 551 669 595 669 q 440 640 491 669 q 360 560 390 610 q 330 450 330 510 q 360 339 330 390 q 440 259 390 288 q 551 229 491 229 q 636 247 595 229 q 708 294 677 264 q 755 365 739 325 q 772 450 772 405 z "}}}
